<?xml version="1.0" standalone="no"?>
<!DOCTYPE svg PUBLIC "-//W3C//DTD SVG 1.1//EN" "http://www.w3.org/Graphics/SVG/1.1/DTD/svg11.dtd" >
<svg xmlns="http://www.w3.org/2000/svg">
<metadata></metadata>
<defs>
<font id="quickpenregular" horiz-adv-x="1421" >
<font-face units-per-em="2048" ascent="1638" descent="-410" />
<missing-glyph horiz-adv-x="854" />
<glyph horiz-adv-x="0" />
<glyph horiz-adv-x="0" />
<glyph horiz-adv-x="682" />
<glyph unicode="&#xd;" horiz-adv-x="854" />
<glyph unicode=" "  horiz-adv-x="854" />
<glyph unicode="&#x09;" horiz-adv-x="854" />
<glyph unicode="&#xa0;" horiz-adv-x="854" />
<glyph unicode="!" horiz-adv-x="958" d="M354 324q-7 22 -28 22q1 44 16 87t41.5 96t36.5 79q2 7 5 24t7 25q4 11 19 36.5t20 39.5q16 46 70 164l3 6q50 79 50 117q6 2 12.5 11t13 22.5t12 26t12 28.5t9.5 22q11 22 20.5 48t20 58t17.5 50q2 6 7 10t5 9q0 1 -1 5t-1 5q0 3 27 41q0 5 14 34.5t14 39.5q0 3 -1 8 t-1 8q0 9 13 34t24 29q74 -10 74 -55q0 -17 -10.5 -38t-27.5 -47t-24 -40q-31 -56 -37 -69q-2 -4 -2 -13t-2 -14q-11 -5 -12 -10q-14 -26 -19 -41.5t-10.5 -26.5t-25.5 -37q-2 -4 -4.5 -19t-5.5 -24q-8 0 -17.5 -17.5t-21 -48.5t-13.5 -36q-35 -75 -108 -230t-111 -237 q0 -15 -29.5 -98.5t-50.5 -83.5zM373 -45q-29 -29 -80 -29q-31 0 -45.5 14.5t-14.5 47.5q0 7 4 23t9 16q2 0 7 -1t7 -1q3 0 6.5 16t12.5 18q17 -1 25.5 -2t16.5 -5.5t11 -8t13 -15.5t20 -22q-5 -14 -5 -20q0 -8 6.5 -16t6.5 -15z" />
<glyph unicode="&#x22;" horiz-adv-x="940" d="M524 877v16q0 11 -8 14q0 19 13.5 42t13.5 42v6q39 28 45 84q16 13 43 66.5t55 97t55 43.5q21 0 33 -18t12 -47q0 -19 -6.5 -31.5t-20 -24.5t-18.5 -18v-10q0 -12 -17 -25t-17 -20q0 -2 1 -7.5t1 -7.5q0 -7 -13.5 -16t-15.5 -12t-2.5 -11.5t-3.5 -11.5q-2 -2 -6.5 -4 t-5.5 -4q-3 -5 -6.5 -18.5t-6.5 -18.5q-4 -5 -14 -11t-14 -11l-2 -6t-1.5 -4t-1 -3t-1.5 -3.5t-2.5 -3.5t-4 -4.5l-6.5 -6.5q-2 -3 -7.5 -21t-18 -26.5t-39.5 -8.5q-10 0 -13 3zM492 1227q0 -19 -10.5 -43t-10.5 -41q0 -9 2 -13q-14 -2 -20.5 -19.5t-14.5 -44t-24 -42.5 q-3 -9 -12 -33.5t-15 -41t-17.5 -38t-23.5 -37.5q-5 0 -6.5 -7.5t-2 -17.5t-3.5 -13q-31 -31 -53 -31q-11 0 -23 8.5t-12 24.5q0 19 19.5 48t21.5 34q6 9 11.5 29.5t8.5 27.5q3 10 13.5 26t13.5 21q4 9 11 32.5t14.5 38.5t19.5 27q-4 12 -4 15q0 13 11 31.5t13 23.5 q7 32 7 82q0 8 18 8q30 0 68 -55z" />
<glyph unicode="#" horiz-adv-x="1296" d="M387 778q-11 -1 -29 -10.5t-24 -11.5q-7 -3 -29 -8t-33 -9q-6 -3 -77 -45q-6 -2 -15.5 -2.5t-11.5 -1.5q-4 0 -8.5 -6.5t-9.5 -7.5q-25 -14 -44 -14q-29 0 -59 73q4 -2 8 -2t9.5 3t9.5 3h4q10 7 22.5 14t29 15t26.5 14q1 1 11.5 6.5t19 9.5t22.5 10.5t27 11t27.5 9 t29.5 7t29 2.5q12 0 20 -2q6 0 7 10t3 12q18 2 44 14t44 13q16 14 38 59.5t44 59.5q11 33 42.5 81t41.5 74q40 -3 70 -29q-4 -13 -33 -51q-43 -79 -61 -110q-4 -4 -11.5 -10t-11.5 -10.5t-8 -11t-4 -13.5q0 -21 16 -21q5 0 17.5 4.5t17.5 5.5q30 2 82 22.5t78 20.5 q33 0 56 21t34.5 48.5t31.5 62.5t44 55q86 0 96 -56q0 -7 -15.5 -17.5t-37 -32t-33.5 -50.5h6q8 0 20 1t15 1q12 0 12 -12q20 4 25 4q7 0 21 -2t20 -2q7 0 12.5 5t7.5 5q50 0 68 -20q0 -12 -16 -21.5t-27 -9.5q-4 0 -9.5 5t-9.5 5q-35 -16 -104 -24.5t-94 -20.5 q-11 -5 -24.5 -34t-28 -66t-21.5 -49q-3 -6 -10.5 -14t-12 -15t-4.5 -14q6 -2 15 -13.5t16 -15.5q6 -3 23 -5t24 -5q0 -12 -21 -18t-49.5 -11t-39.5 -14q-7 -6 -23.5 -33.5t-29.5 -52t-13 -25.5v-10v-4q-6 -6 -10.5 -11.5t-9 -13t-7.5 -12t-7 -14t-6 -13.5t-6.5 -16 t-6.5 -16q-2 -3 -10.5 -24t-16 -38t-21.5 -32t-28 -15q-11 0 -16 9.5t-5 19.5q0 7 5 19t11 21l5 9q0 3 -1 8t-1 8q0 5 4 9.5t10.5 9t9.5 8.5q1 2 1.5 7.5t0.5 9.5t2 7.5t5 3.5q1 0 3 -1t3 -1q0 5 -2 10.5t-2 10.5q15 10 27.5 43.5t25.5 44.5q0 24 10 33t10 16q0 10 -16 10 q-37 0 -147 -26.5t-146 -32.5q-57 -91 -102 -207q-2 -5 -7 -20t-9 -24.5t-12 -23t-17 -22.5q-35 0 -35 47q0 20 41 115q5 9 19.5 33t21 39t8.5 30q-8 2 -20 2q-18 0 -52 -10t-51 -10q-6 -2 -18.5 -9.5t-24.5 -11.5t-26 -4q-4 4 -17.5 15t-22 21t-12.5 24q0 20 27 30t68 14.5 t84.5 10.5t83.5 25.5t57 52.5q2 4 6.5 14.5t7.5 16t10.5 13t16.5 13.5v6q0 15 6 29t6 16zM723 879q-1 0 -8 -5.5t-13 -5.5h-14q-13 0 -25.5 -8t-23.5 -8q-4 0 -11 1t-10 1q-10 -3 -12 -7q-1 -1 -2 -1h-6q-1 0 -3.5 -1t-4.5 -1q-97 -36 -113 -41q-10 -22 -38.5 -72.5 t-41.5 -81.5q12 -4 13 -4q6 0 16 3t16 3q2 0 7.5 -1t7.5 -1q0 8 21.5 11t47.5 6t33 10q1 0 3.5 -2t2.5 -4h-2q60 7 109 18q4 4 13 25t20 26q-1 -5 -8 -20.5t-7 -24.5h2q29 35 29 37v12q0 2 1.5 3l4.5 3t4 3q2 6 2.5 17t1.5 13q7 0 15.5 13.5t24 46.5t20.5 43q-11 -3 -35 -3 t-37 -3z" />
<glyph unicode="$" horiz-adv-x="1110" d="M944 1468q-8 -10 -31 -10h-22q-14 -8 -29 -34.5t-31 -32.5q-1 -9 -4.5 -20t-6.5 -18t-9.5 -20t-9.5 -18q-25 -49 -101 -215q9 -4 87.5 -31.5t129 -52.5t78.5 -53q0 -1 2 -8.5t6 -16t9 -12.5q2 -3 11 -4t11 -4q0 -7 12.5 -31t12.5 -39q0 -14 -10 -27q-66 21 -76 74 q-21 10 -53.5 35t-64 40t-71.5 17q-6 15 -43 19t-45 16q-21 -13 -44 -52.5t-34 -66.5t-36 -90q-1 -3 -10.5 -17.5t-17.5 -28t-15 -35.5t-7 -44q0 -19 8.5 -34.5t28 -37.5t29.5 -36q12 -26 26.5 -50.5t23 -44t18.5 -57.5q12 -48 12 -57q0 -16 -6 -31q-3 -13 -33.5 -43.5 t-38.5 -30.5h-16q-12 0 -31.5 -8t-20.5 -8q-10 0 -39 7t-36 7q-2 0 -3 -4t-3 -4q-15 0 -35.5 12.5t-28.5 12.5q-23 -3 -34.5 -25t-14 -46t-16 -43.5t-41.5 -19.5q-11 0 -11 11q0 3 1 7.5t1 6.5q0 7 -6 18t-14 17q30 79 37 117q-1 11 -32 38.5t-44 30.5q-3 5 -9.5 17.5 t-10 19t-10 16t-13 16.5t-14.5 13q-5 19 -20 58t-23.5 71.5t-8.5 65.5q0 5 5 45q24 -1 43.5 -29.5t25.5 -32.5q0 -85 32.5 -153.5t92.5 -106.5q22 4 39.5 41t36.5 101t31 92q1 2 13.5 29.5t16.5 50.5q-3 16 -22.5 36t-24.5 33q-1 1 -12 20t-13.5 23.5l-12.5 22.5t-13 26.5 t-10 25.5t-9.5 28.5t-5 27t-2.5 29.5q0 31 13 68q20 5 74.5 20.5t95.5 24t77 8.5h15q17 4 35 42t43.5 108.5t40.5 103.5q2 3 7 8.5t7 9t5 9t4 12t1 14.5v12q19 22 50 86.5t57 87.5q26 -11 40.5 -18.5t31.5 -22t24.5 -35t7.5 -49.5zM416 971q-2 -12 -2 -35q0 -81 57 -145 q0 11 12.5 20t14.5 16q4 9 4.5 28t3.5 26q39 73 47 118h-16q-26 0 -62 -13.5t-59 -14.5zM446 512q-2 -2 -2 -6q0 -2 1 -8.5t1 -10.5q0 -22 -27.5 -65t-27.5 -62q0 -7 3 -12t8.5 -8t11 -5t14.5 -2.5t13.5 -0.5h13.5h10q57 0 95 22.5t38 69.5q0 43 -39 111q-8 10 -14.5 29.5 t-16 28.5t-30.5 9q-2 -20 -12 -36.5t-23 -30.5t-17 -23z" />
<glyph unicode="%" horiz-adv-x="1368" d="M1130 1059q-16 -4 -20 -4q-5 0 -21 2t-26 2q-13 0 -22 -5t-31 -26q-1 0 -6 4t-7 4q-1 0 -3.5 -5.5t-6 -13.5t-6.5 -11q-10 -12 -36 -40.5t-46 -50.5t-20 -24t1 -4.5t1 -3.5q0 -2 -4 -2h-9q-2 0 -9 -13.5t-15 -28.5t-13 -18q-5 -7 -20 -19t-20 -18q-54 -65 -168 -209 q-50 -69 -72 -77q-4 -23 -19.5 -40t-40 -34.5t-36.5 -32.5q-5 -10 -19 -24q-1 -2 -2 -8.5t-3 -12.5t-5 -10q-6 -7 -21.5 -17.5t-21.5 -17.5q-6 -8 -15.5 -25.5t-13.5 -23.5q-3 -3 -12.5 -8t-11.5 -8q-4 -6 -10 -17.5t-10.5 -19.5t-9.5 -16t-10 -12.5t-9 -4.5q-1 0 -3.5 2 t-3.5 2q-2 0 -14 -16.5t-24 -16.5q-7 0 -7 2q0 57 29 66q1 26 25 58t41 32q1 15 13 33.5t24 29.5l12 11v6q0 8 18 20q17 27 44.5 62.5t49.5 61.5t59.5 70.5t53.5 63.5q12 14 53 72q2 2 16.5 15.5t25 24.5t14.5 19q7 18 16 29l17 22q20 21 32 21q4 25 15.5 37t34.5 32t44 52 q3 3 4 11t4 11q3 5 14.5 15t14.5 14q7 9 26 36.5t32 42.5t36.5 29.5t49.5 14.5q23 0 52.5 -29t30.5 -63zM526 1036l-24 21q-10 2 -29.5 7t-35.5 8t-31 3q-68 0 -95 -61q6 -24 24 -33.5t33 -11t15 -6.5q78 10 84 12q18 3 49 17.5t47 17.5q0 10 -3 30t-3 29v8 q28 -6 40.5 -16.5t12.5 -30.5q0 -28 -6 -43q0 3 -3 -1q-24 -35 -81 -64q-5 -2 -22.5 -3.5t-24.5 -3.5q-14 -12 -29 -16t-51 -4q-44 0 -63.5 6t-40.5 27q-8 8 -19.5 37.5t-11.5 48.5q0 20 22.5 45t30.5 41q5 3 15.5 4t15.5 4q5 2 9 8t9 8q17 6 84 6q8 -10 35 -22 q37 -19 46 -46q3 -9 3 -18q0 -6 -2 -8zM1059 324q0 -32 -32.5 -70.5t-63.5 -54.5l-5 -4q-5 -4 -16.5 -11.5t-25.5 -16t-34.5 -17.5t-42 -16.5t-48.5 -12t-54 -4.5q-10 0 -30.5 20t-20.5 39q0 42 32.5 81.5t97.5 88t75 57.5q33 0 48.5 8.5t16.5 8.5q63 -20 103 -96zM946 336 q-4 -6 -9 -10.5t-12 -8t-10 -6.5q-7 -2 -39 -19.5t-32 -21.5v-10q0 -3 -13.5 -8t-13.5 -14q0 -19 27 -19q14 0 41 14.5t45 14.5h8q2 10 9.5 17t20 12.5t13.5 5.5q1 1 1.5 4.5t2.5 6.5t6 3t6 -2q0 3 0.5 10t1 11t-0.5 8.5t-4 7t-9 2.5q-4 0 -10.5 -1t-9.5 -1q-13 0 -19 4z " />
<glyph unicode="&#x26;" horiz-adv-x="1107" d="M670 1057q-6 -10 -6 -23q1 -5 -12.5 -25.5t-40.5 -56.5t-36 -49q-6 -9 -20 -27.5t-20 -27.5q-11 -17 -23 -45t-25 -47q60 -197 82 -199q-6 -9 -6 -14t8.5 -14t10.5 -13q0 -2 47 -156q14 2 38.5 26t37.5 24h8q9 1 19 14.5t20 17.5q20 9 44.5 31t41.5 47l6 -2 q17 0 35.5 15.5t25.5 15.5q2 0 6.5 -1t6.5 -1q-1 -9 -12 -14.5t-11 -6.5q0 -3 8 -8q-16 -39 -151 -135q-6 -5 -28.5 -23t-36.5 -30t-27 -30t-13 -32q0 -22 16 -69t17 -52q0 -35 8 -43q4 -14 9.5 -36.5t9.5 -36.5t9.5 -34t9.5 -33t9.5 -28t11 -24.5t11.5 -18t12.5 -12.5 t13.5 -4q11 0 24.5 -19t14.5 -20q-13 -24 -41 -24q-108 0 -155 157q-11 43 -28.5 125.5t-31.5 124.5q-19 -4 -42 -30.5t-52 -26.5q-4 -15 -31.5 -37t-53.5 -37l-26 -16v-11v-2h-10q-2 0 -2 -2v-6q-14 -19 -55 -33v-6q0 -5 -4 -7t-10 -2t-7 -1q-11 -9 -29 -20t-26 -17 q-5 -5 -18.5 -7t-24.5 -7q-3 0 -6.5 -7t-5.5 -7q-3 0 -7.5 2t-6.5 2q-14 0 -32 -6.5t-24 -6.5q-32 0 -81 24.5t-66 59.5q6 69 14 82q6 0 6 4q-4 5 -4 13q0 19 13 27.5t14 11.5q2 5 3 15.5t3 16.5q3 4 16 21.5t22 32t9 22.5v10q0 5 2 7t5.5 2.5t4.5 1.5q2 3 9.5 19t9.5 19.5 t9 15t12 16.5t13.5 11.5t18.5 10.5q8 57 51 100q11 11 31 43q4 17 7.5 22.5t10 7.5t11.5 7q11 16 34.5 57t40.5 68q7 5 17 29.5t14 31.5q5 8 21.5 28t23.5 34q-11 28 -22 92t-19 90q1 7 2 20t3 22t7 13q-16 22 -16 68q0 4 10.5 28.5t10.5 45.5q0 7 -3 16q2 4 14.5 18.5 t12.5 30.5q0 2 -1 6t-1 6q30 10 37 60q5 5 22 21t31 27.5t29 18.5v11q0 5 35.5 18.5t56.5 16.5q37 0 49 16q4 0 4 -8q7 0 19 2t18 2q62 0 78 -33q47 -23 47 -70q0 -14 -4 -26.5t-13 -35t-16 -42.5q-11 -18 -33 -56.5t-40 -67t-37 -54.5zM598 1339v-4q0 -6 -25.5 -28t-59 -56 t-48.5 -63q-6 -17 -9.5 -43t-4.5 -46t-1.5 -50t-0.5 -41q-1 -4 -6 -14.5t-5 -16.5q1 -6 6.5 -18.5t6.5 -16.5q0 -3 -1 -10t-1 -10q0 -8 10 -11q11 6 37 45v9q0 3 10 13.5t10 12.5q11 21 45.5 67.5t42.5 61.5q1 2 31 47t52 91t22 81q0 9 -0.5 12.5t-4.5 8t-12 4.5 q-18 0 -42 -12.5t-42 -12.5h-10zM352 565q-6 -10 -18.5 -30.5t-18.5 -30.5q-14 -23 -33 -51t-43 -61t-36 -50q-2 -1 -14 -23.5t-29 -54.5t-25 -45q-3 -7 -29.5 -55t-38.5 -79t-12 -58v-6.5t1.5 -4.5t4.5 -3.5t9 -0.5q100 0 184 54q3 2 20 18t33 16h4q9 10 21 20.5t24 19 t21.5 14.5t17.5 11l8 5q1 2 3.5 9.5t6.5 12.5t9 5q2 0 7.5 -2t6.5 -2v2v10q0 2 2 2h11h2q9 7 29 21.5t28 21t19.5 18t15.5 21.5t4 22q0 29 -25.5 102t-25.5 103q-29 45 -41 111q-6 1 -13 37t-12 36q-12 -16 -40 -69.5t-38 -65.5z" />
<glyph unicode="'" horiz-adv-x="503" d="M311 1112h-2q-6 0 -13 -4t-14 -10.5t-12.5 -12.5t-10.5 -12l-5 -6l-10 -9l-18 -18t-21.5 -22.5t-22 -25t-16 -24t-6.5 -20.5q-2 2 -10 2t-24 -9t-24 -9q-2 0 -14 4v12q0 10 -4 10q0 6 19.5 33t23.5 27h2q0 3 3.5 14.5t13.5 25t24 13.5v6l2 5q28 64 70 89q4 20 16.5 37 t19.5 23t29 22q38 -9 57 -19.5t19 -31.5q0 -15 -10 -26.5t-22.5 -18.5t-24.5 -18.5t-15 -26.5z" />
<glyph unicode="(" horiz-adv-x="1314" d="M1315 1397q-15 -6 -25 -6q-14 0 -42 8t-44 8q-52 0 -98 -31q-6 -2 -12.5 -7t-10 -9t-4.5 -4h-6q-15 -3 -34 -14t-32 -21t-14 -10q-2 0 -6 1t-6 1q-3 0 -5.5 -2t-3.5 -4.5t-1.5 -5t-1.5 -3.5q-35 -28 -92 -65q-20 -18 -58 -60.5t-47 -52.5q-1 0 -8.5 -1t-11.5 -5 q-2 -2 -3 -9t-4 -9q-6 -7 -33 -35t-42 -45q-8 -9 -24.5 -29t-24.5 -29q-9 -12 -30 -31t-24 -22q-1 -2 -1.5 -9.5t-2.5 -10.5q-3 -4 -18 -17.5t-21 -21.5q-4 -5 -10 -16.5t-10 -16.5q-5 -6 -15 -14.5t-12 -10.5q-3 -6 -9.5 -20.5t-8.5 -19.5q-7 -10 -18 -26t-15.5 -22.5 t-12.5 -20t-16 -28t-18 -35.5q-3 -5 -13.5 -13t-13.5 -13q-50 -94 -78 -165t-51 -175q-2 -10 -8 -24t-6 -27v-35q0 -86 -6 -86v2q20 -108 73 -178q4 -5 24 -24t26 -36q35 -13 98 -46.5t86 -43.5q-11 -8 -25 -8q-24 0 -64.5 17.5t-62.5 17.5q-19 18 -68.5 58t-74.5 65 q-4 5 -10 17t-12.5 19.5t-16.5 10.5q-2 4 -8 24t-18 41q-1 1 -4 8t-5 11.5t-5 13.5t-5 20t-4 25.5t-3 34.5t-1 43q0 17 6.5 46.5t7.5 39.5q2 13 3 40.5t3 39.5q2 11 13.5 32t13.5 25q7 27 16 48.5t25.5 58t28.5 63.5q95 153 118 205q13 5 21.5 16.5t15.5 27.5t11 22 q1 2 19.5 21t33 41t18.5 42q40 29 144 152q4 4 8 12.5t8 11.5q72 96 221 211q6 5 24.5 21.5t37.5 29t45 21.5q2 1 8.5 10t7.5 10q3 1 12.5 1.5t14.5 2.5q5 3 14.5 11.5t32.5 15.5q3 1 20.5 10t27 13.5t26.5 9t32 4.5q4 0 17.5 -5t17.5 -5q3 0 8 2t8 2l7 -3q100 -30 100 -73 q0 -6 -4 -6z" />
<glyph unicode=")" horiz-adv-x="770" d="M66 1399h6q28 0 50.5 -9t65.5 -42q80 -50 146 -119q39 -39 127 -170q6 -9 15.5 -28t19 -33.5t20.5 -26.5v-10q0 -6 2 -12.5t5.5 -15t4.5 -11.5q60 -163 60 -291q0 -165 -78 -344q-1 -3 -8 -26.5t-16.5 -39.5t-24.5 -16v-6q0 -9 -7.5 -19.5t-7.5 -19.5v-4q-19 -21 -56 -74 t-62 -78q-6 -7 -30 -28.5t-34 -34.5q0 -1 -5.5 -9.5t-11.5 -16t-14.5 -16.5t-19.5 -14.5t-23 -5.5q-1 0 -6 -16.5t-20 -16.5q-2 -5 -2.5 -10t-2 -9.5t-7.5 -10.5q-14 -9 -39.5 -26.5t-36.5 -25.5q-2 -2 -5 -9.5t-5 -8.5q-5 -3 -14.5 -3.5t-12.5 -2.5q-17 -12 -50 -41 t-50 -41q-3 -2 -13 -3t-14 -3l-5.5 -5.5l-4.5 -4.5l-4 -4t-4.5 -3.5t-4 -2.5t-5 -2.5t-6 -1.5t-7 -1.5t-8.5 -1.5q-10 3 -10 10q28 41 32 41h13h4q55 58 137 125q1 1 13 16.5t24.5 25.5t25.5 10q35 68 86 94q7 23 23.5 42t39 38t32.5 32q7 9 19 34t20 36q5 7 16 20t17.5 23 t9.5 21q5 3 12 19.5t20 16.5q2 24 11.5 47t25 50.5t21.5 42.5q7 19 18.5 69.5t24.5 75.5v18q0 23 4 70.5t4 67.5q0 22 -2 30q6 0 6 7v2q-7 5 -10 29t-15 38q7 18 7 29q0 9 -2.5 18.5t-8.5 24t-8 22.5q-3 5 -8 31t-10 39q-1 2 -3 2t-4 0.5t-2 3.5q0 1 2.5 3.5t4.5 2.5h2 q-5 13 -27 43.5t-25 53.5q-33 26 -51 73q-18 17 -38.5 41t-49 50t-86.5 67q-3 2 -7 9t-7 9q-4 3 -23 11.5t-26 15.5q-49 34 -49 74z" />
<glyph unicode="*" horiz-adv-x="1368" d="M674 1102q7 4 11 11.5t7 19t6 16.5q16 10 24.5 28.5t11 34.5t10.5 28.5t22 12.5q31 0 52.5 -23.5t21.5 -58.5q0 -9 -28 -33t-32 -30q31 0 43 12q6 -4 21 -4q13 0 42 5t44 5q18 0 33 -6q-2 -12 -17.5 -25t-29.5 -21l-15 -7h-16q-9 0 -21 -6q-2 -1 -4.5 -6.5t-3.5 -5.5 q-8 -2 -17 -1t-17.5 -2.5t-10.5 -13.5q-12 4 -16 4q-13 0 -38.5 -9t-25.5 -15q0 -10 36 -57t73 -89v-2q0 -4 2 -9t2 -9v-2q18 -19 25 -28t16.5 -27.5t11.5 -38.5q-7 -5 -18 -5h-13q-12 0 -22 -2q0 13 -8 23t-20 20t-17 17q-3 4 -9 19t-10 22q-20 40 -69 100 q-17 -2 -31.5 -30.5t-29 -72t-17.5 -50.5q-7 0 -14 2t-14.5 5.5t-12.5 4.5v2q0 7 -9.5 10.5t-9.5 9.5q0 4 2 6q-20 -7 -30 -23.5t-19 -45.5q-13 -5 -25.5 -31.5t-31.5 -28.5q-16 3 -25.5 16.5t-9.5 29.5q0 30 29 43v4q0 25 20.5 46t32.5 21q9 20 38 56.5t38 60.5h-4 q-42 0 -148 -47q-3 -1 -20 -9.5t-27 -12.5t-26.5 -9.5t-32 -8.5t-31.5 -3t-32.5 17t-16.5 36t37 19q4 0 14 -5q54 29 129 41q26 19 97.5 33.5t97.5 30.5q-8 39 -41 59q-3 27 -20 47t-35 30.5t-33 30t-15 46.5q0 6 21 6q45 0 92 -47v-10q0 -11 13 -32t34 -49t29 -40z" />
<glyph unicode="+" horiz-adv-x="1296" d="M651 946q19 0 39 -15.5t39 -15.5h6q35 -28 35 -102q0 -65 -29 -121q24 -12 56 -12q27 0 83 11t83 11q31 0 51 -10q0 -14 -7 -22t-15 -10.5t-24.5 -6t-25.5 -6.5q-5 -2 -12 -10t-10 -8q-2 0 -81.5 -13t-129.5 -32q-7 -29 -25.5 -81.5t-26.5 -86.5q-2 -2 -2 -6v-7 q0 -2 -3 -11t-6.5 -25t-4.5 -33q0 -2 2 -13t2 -16q0 -7 -7.5 -17t-8.5 -18q-5 -10 -7 -20t-2.5 -14t-5 -6.5t-14.5 -2.5t-25 16t-28 17q-4 20 -4 31q0 78 14 147q3 14 11 34.5t13 38t5 36.5v10q-22 -6 -77 -15.5t-83 -15.5q-7 -2 -59 -17t-76 -15q-38 0 -65.5 27.5 t-28.5 76.5h10q11 0 35.5 1t38.5 1q9 0 16 -3t10 -3q1 0 17 5t26 5q14 0 17 -10q11 9 25.5 12.5t34.5 5t32 4.5q5 1 21.5 9t23.5 8q3 0 10.5 -2t11.5 -2q9 0 15 12q18 -6 28 -6q9 0 45 12q43 118 43 213q0 13 -5 35t-5 31q0 4 4 20z" />
<glyph unicode="," horiz-adv-x="638" d="M211 -8q0 -9 -9 -15t-9 -10q0 -2 1 -7t1 -7q-2 -2 -2 -4t-25 -28t-57.5 -52.5t-47.5 -26.5q-12 0 -12 15q0 14 21 69t45 70q2 29 21.5 64t23.5 55q1 4 6 10t6 10q33 -3 56.5 -27.5t23.5 -54.5q0 -42 -43 -61z" />
<glyph unicode="-" d="M1030 522q-16 -45 -63 -45h-21q-32 0 -117 -15.5t-143 -21.5q-35 -3 -144 -22t-163 -19h-17q-9 -1 -23 -7.5t-26 -6.5q-19 0 -37 25.5t-18 48.5q0 28 66 28q9 0 29 -1t30 -1q17 0 45 6.5t45 6.5h43q11 0 23.5 4t17.5 4t15 -1t14 -1q77 5 106 8q101 14 191 14h32 q11 0 35.5 4.5t38.5 4.5q18 0 41 -13z" />
<glyph unicode="." horiz-adv-x="632" d="M248 98q15 -30 39 -49q-2 -7 -5.5 -22.5t-6 -22.5t-11.5 -13.5t-24 -6.5h-4q-4 0 -9 -6.5t-8 -8.5q-20 4 -24 4q-3 0 -11 -1t-12 -1q-6 0 -20 15.5t-29 21.5q2 4 2 10q0 8 -8 11q3 5 6.5 27.5t15.5 25.5q10 -2 14 1.5t4 10t1 8.5q3 2 11 2t13.5 1t5.5 4v2q15 -3 60 -13z " />
<glyph unicode="/" horiz-adv-x="1202" d="M223 -119q-26 10 -26 25q0 17 14.5 46t38.5 52q10 22 32.5 72t32.5 71q31 64 69 134t85 154t72 130q6 12 99.5 169.5t125.5 240.5q17 5 30 32t19 33q8 8 16.5 23t19.5 38.5t15 31.5q5 10 18 26t17 23q45 92 55 110q5 7 21.5 20t21.5 23q7 10 14 30t11 28q6 7 21.5 20.5 t21.5 20.5q10 13 30.5 42t39 52t39.5 39q67 -25 84 -90q-7 -14 -29 -21.5t-29 -13.5q-23 -19 -43 -49q-4 -5 -4 -18t-4 -17q-48 -32 -68 -58q-3 -5 -4 -16.5t-4 -15.5q-2 -4 -12 -9.5t-12 -9.5q-4 -6 -17 -33.5t-26 -41.5q-5 0 -7 -6t-4 -17t-6 -18q-1 -2 -8.5 -4.5 t-7.5 -8.5q0 -2 1 -5.5t1 -4.5q0 4 -21 -28l-9 -15q-4 -7 -5 -8q-2 -4 -10 -6t-8 -6q0 -1 1 -5.5t1 -5.5q0 -4 -11.5 -14.5t-13.5 -13.5q-3 -4 -5 -16.5t-5 -16.5q-5 -9 -21.5 -23t-19.5 -18q-7 -10 -15 -31t-12 -29q-4 -18 -12 -18q-2 0 -6.5 1t-5.5 1q-3 -7 -3.5 -19 t-2.5 -16q-48 -63 -68 -100l-3 -3q-3 -4 -9.5 -12t-12 -16.5t-10 -18.5t-4.5 -18q0 -10 -2 -13t-8 -5t-10 -6q-4 -5 -8 -18.5t-9 -22.5q0 -2 -21 -46t-22 -44q-3 0 -7 2t-7 2q-1 0 -16.5 -23.5t-30.5 -53.5t-15 -44q0 -8 2 -10q0 -6 -4 -6l-4 3q-4 3 -8 3q-2 0 -4.5 -7 t-7.5 -20.5t-12 -23.5q-2 -3 -14 -18.5t-17 -23t-13 -22t-11.5 -29t-4.5 -30.5q-1 -13 -17.5 -18t-23.5 -17q-4 -21 -13.5 -40.5t-24.5 -42.5t-21 -34q-7 -11 -18 -34t-22 -39t-28 -27q-3 -16 -5 -23t-6.5 -18.5t-12 -17.5t-17.5 -7z" />
<glyph unicode="0" horiz-adv-x="1056" d="M874 948q-20 -8 -26 -8q-23 0 -43 37t-25 41q-36 4 -39 4q-7 0 -39 -4q-1 0 -1.5 -3t-2.5 -3h-10q-20 0 -58 -28.5t-55 -35.5q-11 -24 -52.5 -63t-61.5 -64q-3 -3 -3.5 -11t-2.5 -11q-4 -3 -10.5 -9t-9 -8.5l-7.5 -7.5t-7 -7.5t-6 -7t-6.5 -8t-5.5 -8.5l-6 -10 q-14 -7 -24 -41q-10 -10 -37 -58t-27 -56q-26 -57 -41 -117q-2 -9 -11 -35.5t-12 -45.5t-3 -48q0 -69 26 -106.5t76 -37.5q24 0 68 13q9 3 24.5 13.5t24.5 14.5q15 8 28 16.5t26.5 20.5t21 18.5t23 22.5t20.5 21h2h10q2 0 2 2v8v2q5 5 36 33.5t46 43.5t37 42.5t35 52.5 q2 4 19 24t17 37q0 7 27 27q-2 2 -2 8q0 12 12.5 44.5t12.5 35.5q0 1 -2.5 3.5t-2.5 4.5t6 8.5t7 12.5q0 38 -9.5 66t-21 41.5t-23.5 34.5t-16 46q12 4 21 4q37 0 67 -36t44 -81.5t14 -84.5q0 -114 -113 -279q-145 -184 -268 -246q-80 -61 -144 -61q-55 0 -98 16 q-18 2 -27 5t-12 5.5t-9.5 11t-13.5 15.5q-86 66 -86 156q0 20 1.5 39t2.5 30.5t5.5 28t5.5 21.5t7 23.5t7 21.5q10 36 28.5 81.5t28.5 53.5q8 23 27.5 57.5t34.5 34.5q1 3 1 18t5 19q2 2 15 14t18 21q62 104 203 225q52 45 75 56q34 16 78 16t84.5 -8.5t74.5 -35.5t34 -69 q0 -14 -9 -29z" />
<glyph unicode="1" horiz-adv-x="909" d="M803 1225q0 -28 -15.5 -60t-35.5 -32q-5 -29 -32 -76.5t-30 -83.5q-18 -18 -31 -41t-27.5 -60.5t-19.5 -48.5q-24 -54 -74.5 -175t-58.5 -140q-7 -16 -18.5 -51.5t-23.5 -60.5t-29 -42q0 -1 1 -5.5t1 -6.5q0 -15 -14 -38.5t-15 -27.5q-9 -18 -25 -69.5t-32 -83.5 q-3 -8 -13.5 -38t-18 -48.5t-24 -38t-37.5 -25.5q-18 24 -18 50q0 12 3 24.5t8 28t7 22.5q30 100 42 137.5t46 123t84 190.5v4q0 2 -1 6.5t-1 7.5q0 6 7.5 9t7.5 4q19 57 90 237q3 5 4.5 18t5.5 19q0 1 5 2.5t5 3.5q4 7 7 21.5t5.5 33.5t4.5 29q-15 -3 -24 -13.5 t-13.5 -23.5t-17 -31t-31.5 -32q-17 0 -29 2.5t-23 13t-14 13.5t-14 21.5t-12 20.5q13 21 46 50t46 49q3 3 8 14.5t8 13.5q1 1 12.5 5.5t14.5 9.5q4 5 7.5 13.5t8.5 14.5q0 -2 6 -2q5 0 30.5 22.5t25.5 29.5v10v4q1 0 4.5 -1t5.5 -1q6 0 7 9t3 11q7 7 20.5 14.5t34 30.5 t58.5 76q9 -4 28.5 -6.5t28.5 -7.5q7 -5 15.5 -24.5t19.5 -24.5z" />
<glyph unicode="2" horiz-adv-x="1193" d="M197 152q5 -5 18 -5q37 0 76 27q17 12 121 33q147 30 211 35q1 0 2.5 4t3.5 4q1 0 4 -1t4 -1l6 2q6 1 15.5 3t21 4t25.5 3.5t26 1.5q5 0 11 -1l6 -1q20 0 53.5 5t40.5 5q2 0 8.5 -5t13.5 -5q7 1 42 5.5t55 4.5l12 1q12 1 23.5 1t28 -1.5t29.5 -6t24 -14t14 -23.5 q-2 -17 -12.5 -21.5t-31 -4t-30.5 -2.5q-2 -2 -7.5 -8t-11 -8.5t-14.5 -2.5q-8 0 -25.5 2t-25.5 2q-3 0 -23 -4t-30 -4q-2 0 -9 1t-14 1q-57 0 -114.5 -9t-136 -27.5t-107.5 -24.5q-25 -13 -54.5 -24.5t-70.5 -25.5t-62 -22q2 -7 6.5 -15.5t4.5 -11.5q0 -24 -54 -24 q-56 0 -114 53t-58 129q14 57 33 92q14 24 35.5 46t57.5 52.5t46 39.5q8 8 22.5 24.5t22.5 24.5q10 8 57.5 43t71.5 59q23 22 71.5 67.5t80.5 77.5t55 60q1 1 10 2.5t9 7.5v10q0 5 2.5 10.5t8 12.5t10 12t12.5 13.5t10 11.5l8 8q8 9 10 11.5t10 11.5t11 13t10 13.5t10 15 t8 14.5t7 16t4 15.5t2 16.5q0 17 -28 29t-54 12q-2 0 -13 -5t-18 -5q-93 -10 -111 -13q-1 0 -35.5 -14t-56.5 -14q-2 0 -6 1t-6 1q-14 -17 -35 -17q-18 0 -55 13q5 28 16.5 41.5t36.5 29.5q7 4 23 5.5t24 5.5q8 2 17.5 12.5t15.5 11.5q12 3 42.5 4t47.5 8q4 3 9.5 7t7 5 t4.5 2.5t6 1.5t6.5 0.5t9.5 0.5q25 0 75 -6.5t72 -8.5q97 -67 97 -139q0 -53 -74.5 -149.5t-177.5 -194.5q-11 -10 -36.5 -38.5t-60 -60.5t-85.5 -71q-3 -4 -15.5 -6.5t-15.5 -5.5l-24 -32q-24 -32 -34 -32q-8 2 -10 2q-3 0 -6 -5t-7 -12.5t-7 -10.5q-7 -7 -28.5 -24.5 t-34.5 -30t-29.5 -32t-27 -42.5t-15.5 -49z" />
<glyph unicode="3" horiz-adv-x="1193" d="M752 588q26 -15 81.5 -16.5t69.5 -4.5q28 -5 63 -26t42 -41q1 -2 8.5 -10t11.5 -13t8 -14.5t4 -18.5q0 -27 -11 -56t-33 -58.5t-34 -43t-34 -36.5l-13 -8v-9q0 -7 -41 -28q-81 -70 -151 -107q-9 -6 -32.5 -15.5t-35.5 -16.5q-22 -16 -55.5 -28t-85 -26t-70.5 -20 q-12 -3 -32 -9.5t-29.5 -9t-26.5 -4.5t-37 -2q-72 0 -124 19q-26 9 -58 37q-49 45 -49 106q0 24 14 49q37 -10 53.5 -41t16.5 -71q40 -25 94 -25q209 0 508 203q15 6 21 14q14 8 35.5 26t49.5 46.5t47 66t19 72.5q0 27 -74 27h-57h-63h-41q-8 0 -12 -4.5t-5 -4.5q-4 0 -7 5 l-3 4q-13 -2 -51 -11.5t-55 -9.5q-4 0 -7.5 1.5t-5 3t-2.5 1.5q-3 -1 -4 -4t-1 -5.5t-1 -2.5q-41 -11 -137 -20q-14 4 -23 15.5t-17.5 29.5t-14.5 26q7 15 26 15h23q67 -2 209 86q9 6 27.5 13t27.5 13q3 1 9 9t9 10q80 66 107 96q14 3 44 21.5t40 41.5q4 3 12 13t21 26.5 t22 26.5q6 7 11.5 19t12 31t11.5 30q-29 20 -82 20q-23 0 -133 -14q-186 -18 -250 -45l-5.5 -5.5l-6 -6t-4.5 -2.5t-6 1t-5 1q-13 0 -33 -14.5t-28 -14.5q-28 0 -43.5 28t-15.5 58q4 1 47.5 15.5t56 18t52.5 15t65.5 16t65 10.5t77.5 9q0 -6 4 -6h2q14 16 94 16 q119 0 158 -29q6 -2 15.5 -2.5t11.5 -1.5q19 -16 37 -47t18 -43q0 -16 -29 -76q-18 -27 -46 -59t-47 -51t-25 -23q-10 -9 -43 -41.5t-65 -61t-62 -48.5z" />
<glyph unicode="4" horiz-adv-x="1296" d="M1315 1260q-2 -14 -12 -22.5t-25 -8.5q-1 0 -3.5 1t-4.5 1t-14 -9t-30 -31t-28 -48q-2 -2 -11.5 -9t-12.5 -12q0 -3 -1.5 -15.5t-3.5 -19.5q-2 -4 -10 -6t-8 -6q0 -2 1 -6.5t1 -7.5q0 -4 -3.5 -8.5t-9 -9t-7.5 -7.5q-28 -39 -75.5 -141.5t-70.5 -140.5 q-8 -16 -37.5 -89.5t-52.5 -121.5q8 -16 41.5 -24t42.5 -21l6 -2q4 0 13.5 9t19.5 9q33 0 57.5 -15t24.5 -44q0 -43 -45 -43q-19 0 -39 9.5t-25 10.5q-12 5 -34 12t-37.5 13t-28.5 14q-82 -148 -131 -399q-5 -33 -39.5 -118t-56.5 -85q-3 0 -8.5 1t-8.5 1q-10 0 -10 -10 q-10 3 -10 10q0 4 4.5 12t5.5 13q-2 0 -5 2.5t-3 3.5q14 11 16 47t6 49q50 157 74 238q4 17 15.5 56t17 61t11 54t5.5 58q0 17 -21 29t-60.5 17.5t-72.5 8t-84 4t-67 2.5q-6 0 -14.5 5.5t-14.5 5.5q-45 -5 -82 -5q-32 0 -93 8.5t-97 8.5q-6 0 -17 -1t-16 -1q-31 0 -49 10 q-3 11 -17 26t-14 31q0 29 66 29q37 21 138 66t161 82q66 24 115 73q26 9 44 20t37 26t35 24q1 0 49 37t60 37q26 0 50 -21.5t28 -52.5q-87 -50 -99 -57q-5 -3 -12 -4.5t-10 -4.5q-1 -1 -2.5 -4.5t-3 -6.5t-2.5 -3q-3 -2 -66 -35q-2 -2 -12 -10.5t-17 -13.5q-2 -1 -6.5 -1.5 t-7.5 -1t-4 -1.5q-10 -5 -10 -19q-5 -2 -21 -5t-22 -5q-5 -3 -12.5 -9t-13.5 -9t-13 -5q-5 -4 -21 -7.5t-20 -6.5q-53 -53 -184 -96q48 -18 146.5 -22t117.5 -7q46 -6 132.5 -22t127.5 -21q33 21 63 145q2 3 5 12q37 83 41 83q1 0 1 -2q6 12 11 53q64 116 96 180 q4 8 11 25.5t11 25.5l5 1q5 2 7.5 4t2.5 6v8q0 9 16 14q32 81 43 98q2 7 14.5 19t14.5 14q11 33 34.5 57.5t51.5 24.5q9 0 17.5 -3t14.5 -6.5t14.5 -12.5t12 -13t12.5 -15.5t11 -14.5z" />
<glyph unicode="5" horiz-adv-x="1292" d="M688 1110q19 3 52.5 10t63.5 12t60 9q0 -8 4 -8l2 2q14 20 224 20q17 0 26 -1t22 -4.5t19 -13.5t6 -26q0 -6 -2 -10q-45 -11 -184.5 -32t-214.5 -40q-9 -3 -31 -6.5t-35 -7.5q-4 -1 -22.5 -9t-30.5 -8q-9 -2 -14.5 -14t-11.5 -16q-1 -1 -5.5 -2.5t-5.5 -3.5 q-2 -4 -5.5 -14.5t-8.5 -16.5t-14 -6q-1 0 -22 -37.5t-50.5 -95t-48.5 -99.5q-3 -4 -13.5 -10.5t-13.5 -11.5q-2 -5 -4.5 -20.5t-5.5 -22.5q-1 -2 -6.5 -5t-7.5 -6q-17 -43 -35 -86q29 5 92.5 22t83.5 21h6q1 0 8 -1t13 -1q7 0 17.5 7t14.5 8q58 6 109 6q42 0 126.5 -23 t84.5 -45v-10q0 -2 2 -2h8q9 0 23 -44.5t14 -64.5q0 -35 -16 -63.5t-41.5 -58.5t-36.5 -52q-9 0 -26 -12.5t-47 -33.5t-62 -36q-33 -28 -41 -30q-10 -7 -85 -31t-118 -45q-8 -2 -24.5 -3t-24.5 -3q-3 0 -11 -5t-10 -5h-16q-12 0 -68 -7.5t-90 -7.5q-31 0 -43 2 q-14 1 -26 2.5t-37.5 10t-42.5 20.5t-31 37t-14 57q2 -2 8 -2q3 0 9.5 1t10.5 1q1 0 5 -5.5t13.5 -12.5t25 -14.5t45 -13t67.5 -5.5q46 0 103 13t90 25t114 42q125 47 191 98q36 20 86.5 71t50.5 97q0 25 -33 48.5t-80 23.5q-9 0 -35.5 -2t-36.5 -2h-32q-30 0 -72.5 -15.5 t-56.5 -15.5h-7q-11 -1 -28 -18h-19q-32 0 -92 -29l-7 -4q-7 -3 -19.5 -9.5t-26 -12.5t-26.5 -10.5t-21 -4.5q-11 0 -15 2t-6.5 9.5t-3.5 8.5q-4 3 -10 4t-9.5 3t-6 12.5t-2.5 32.5q0 17 6.5 23t7.5 11q25 101 102 252q9 18 32 56t37.5 65.5t14.5 40.5v8q16 2 25.5 26.5 t19.5 29.5q-4 4 -17 15.5t-18.5 18t-11.5 20t-6 30.5q0 15 5 21.5t24 6.5q5 0 16.5 -1t16.5 -1q27 0 43 13q5 19 15.5 32.5t32 32.5t25.5 23q59 -21 78 -68z" />
<glyph unicode="6" horiz-adv-x="1163" d="M821 1278q-10 -13 -39 -12t-39 -4q-231 -141 -442 -592q-2 -4 -16.5 -27.5t-16.5 -34.5q-11 -30 -18.5 -64.5t-15 -83.5t-11.5 -69q8 -4 10 -4q8 0 15 6t15 16.5t13 14.5q8 4 25 15.5t23 15.5q6 3 23.5 17.5t34 25t26.5 10.5q11 0 16 9l4 9q5 3 39 18.5t61 33.5 q3 1 27.5 9.5t40.5 16t20 14.5h2q1 0 5.5 -1t5.5 -1t12 6.5t16 6.5q3 0 9 -1t8 -1q15 4 35.5 12.5t39.5 13.5t46 6q55 0 96 -8q13 -3 22 -9t19 -15t20 -15q3 -2 13 -7.5t13.5 -7.5t11.5 -8t11 -11t7.5 -13t6 -17.5t1.5 -21.5q0 -9 -1 -17.5t-4 -17.5t-4.5 -15t-7.5 -16.5 t-7.5 -14t-10 -16t-10.5 -15t-12.5 -17t-12.5 -16.5q-16 -16 -18 -19q-2 0 -5.5 -9t-4.5 -9t-6 2t-7 2v-2v-8q0 -2 -10.5 -9.5t-37 -26.5t-54.5 -42q-15 -7 -34 -23.5t-24 -19.5q-7 -6 -20.5 -12t-22 -12.5t-12.5 -16.5q-33 0 -113.5 -36t-144.5 -36q-28 0 -51.5 4.5 t-33.5 8.5t-31 15.5t-27 14.5q-7 5 -22.5 11t-20.5 10q-8 6 -28 37.5t-40 34.5q4 6 4 14q0 10 -17 27t-18 20l3 13q2 13 2 18q-1 11 -6 43t-5 49q0 56 3 78.5t16 56.5q20 80 71 190t115 214q8 15 29.5 40.5t30.5 40.5q5 7 13 25t13 25q1 2 9 3t8 3v10q15 37 40 51 q4 3 17 22.5t20 26.5q1 2 10.5 6t10.5 7q5 4 6.5 14.5t5.5 15.5q4 3 9.5 4.5t10 6.5t11.5 20q27 30 62 53t63 23q39 0 69.5 -21t36.5 -61zM834 590q-41 -1 -102.5 -16t-72.5 -17q-5 -2 -14.5 -9.5t-15.5 -10.5q-4 -2 -12 -3.5t-11 -3.5q-72 -34 -124 -66.5t-102 -69.5 t-67 -48q-15 -9 -73 -37q4 -37 22.5 -63.5t50.5 -55.5q54 -4 70 -4q100 0 180 41q12 5 35 19t44.5 23.5t43.5 11.5q20 19 56 44.5t67 48t61.5 50.5t48 61.5t17.5 69.5v18q-52 17 -102 17z" />
<glyph unicode="7" horiz-adv-x="1302" d="M1130 1022q-5 -5 -25 -16.5t-28 -22.5q-16 -32 -66.5 -83.5t-66.5 -72.5q-10 -9 -27.5 -30.5t-52.5 -55.5q-15 -33 -30 -55q-2 -2 -10 -4.5t-11 -5.5q-1 -2 -1.5 -11t-2.5 -12q-2 -2 -10 -6.5t-14 -9t-9 -8.5q-4 -5 -8.5 -18.5t-9.5 -20.5q-3 -4 -22.5 -25.5t-24.5 -38.5 q21 3 79.5 9t90.5 12q8 2 31.5 8t39.5 9t33 3q30 0 49 -12q0 -6 -21 -27t-30 -26t-72 -19q-84 -26 -190 -32q-4 0 -8.5 -3.5t-7.5 -3.5q-1 0 -4 3.5t-7 3.5q-3 0 -11 -6.5t-11 -8.5q-17 -6 -28 -15t-16 -16t-15 -23.5t-17 -27.5q-4 -8 -31.5 -59.5t-46.5 -84t-24 -32.5 q0 -1 1 -5t1 -5q-3 -52 -47 -117q-4 -7 -19 -49t-32.5 -73t-35.5 -31q-32 0 -32 39q0 21 7.5 49.5t20 61t13.5 34.5q4 13 10.5 38t9.5 34q15 46 33 86.5t42 87.5t34 69q-6 9 -25 9q-18 0 -41 -9q-3 3 -19 15.5t-23 23t-7 23.5q0 11 8.5 18t23 9.5t29 3.5t32.5 2t28 2 q14 3 24 5.5t17.5 4t13.5 5.5t9.5 6t9 9t8 10.5t9.5 14l11 16.5q1 1 7 2.5t6 3.5q5 16 12.5 28.5t15.5 22t10 13.5q16 32 35 51h8q9 0 9 23q34 37 84.5 97t50.5 64v7q0 4 9 8.5t9 7.5q4 3 5.5 9.5t4.5 8.5q11 13 53.5 57t59.5 72q-9 8 -20 11t-26 4.5t-23 3.5q-4 1 -28 9.5 t-36 10.5q-5 0 -15.5 -3t-15.5 -3q-4 0 -24 7t-23 7q-5 0 -11.5 -4t-10.5 -4q-8 0 -24.5 4t-24.5 4q-14 0 -42.5 -8t-39.5 -8q-3 0 -10 1t-11 1q-77 -16 -156 -48.5t-79 -63.5q0 -7 9 -24t9 -26q0 -20 -14 -20q-7 0 -17.5 7.5t-13.5 8.5q-34 7 -57 27t-23 53q0 20 29.5 44.5 t29.5 25.5v10q0 4 26 14t62 22t48 17q5 0 13.5 6.5t14.5 6.5q2 0 8.5 -1.5t8.5 -1.5h6q13 3 48.5 12.5t64.5 15t61 7.5q4 0 15 -4t16 -4q7 0 23 1t24 1q36 0 107 -15t91 -18q5 -2 16 -6.5t19.5 -7t16.5 -2.5q19 0 36.5 9.5t27 20.5t19.5 25t13 17q3 -1 13.5 -3t13 -2.5 t11 -2.5t11 -3.5t9 -4t8.5 -5t5.5 -6.5t5 -8t2.5 -9.5t1 -11.5q0 -20 -26 -53.5t-28 -50.5z" />
<glyph unicode="8" horiz-adv-x="1140" d="M899 1055q24 2 59.5 24.5t53.5 22.5q6 0 14 -1.5t16.5 -8.5t8.5 -17q0 -23 -25 -46t-82.5 -58t-71.5 -45q-3 -2 -108 -68q-2 -2 -9.5 -10t-11.5 -10q-4 -3 -15.5 -7.5t-16.5 -7.5l-31 -21q-79 -62 -80 -93q0 -7 2 -15t6 -19.5t6 -19.5q-2 0 -4 -2.5t-2 -3.5 q13 -10 21 -59t8 -78q0 -11 1 -42t1 -50q0 -28 -3.5 -52.5t-7.5 -38t-13 -40t-13 -39.5q2 -6 2 -10q0 -9 -2 -11q-26 -52 -52.5 -82t-74.5 -61q-12 -7 -22.5 -10.5t-18 -5t-25 -4.5t-36.5 -7q-7 -1 -24.5 -6.5t-26.5 -5.5q-23 0 -78 27.5t-74 46.5q-4 3 -4.5 12.5t-3.5 13.5 q-1 3 -9.5 7.5t-9.5 5.5q-3 8 -8.5 33.5t-5.5 35.5q0 12 3 25.5t9 32t9 28.5q22 78 71.5 155t93 122.5t108 106t85.5 83.5q-18 44 -40 131.5t-28 106.5q-3 10 -17 52.5t-19 60.5t-11 51.5t-6 62.5q0 13 1 25t5 23t6.5 19t9.5 19l10.5 16.5t13 16.5t12.5 14.5t15.5 15.5 t14.5 15q73 27 125 27q28 0 52.5 -14t37.5 -17q35 -21 57 -44t30.5 -42t26.5 -46.5t42 -51.5q32 -72 53 -168zM737 946q7 4 28 14.5t32 17t22.5 18.5t14.5 24q0 10 -13.5 38t-17.5 42q0 41 -4 53q-29 77 -72 141t-88 64q-68 0 -111 -52t-43 -135q0 -16 10.5 -49.5 t12.5 -42.5q2 -8 8.5 -39.5t13.5 -61.5t15.5 -62t17 -52t15.5 -20q14 0 24.5 5t21.5 15t17 13q7 4 96 69zM440 600q-10 -8 -23.5 -28t-17.5 -25q-5 -6 -26 -29t-27 -33q-8 -16 -35.5 -57t-40.5 -45q-3 -36 -26 -77t-23 -56q0 -4 4 -10t4 -11q0 -9 -4 -17t-4 -11 q0 -31 27 -56.5t61 -25.5q43 0 83 20.5t58.5 39.5t30.5 36q1 2 9.5 6.5t11.5 7.5q2 5 6.5 21t5.5 20q37 57 37 154q0 26 -2 76t-2 73v35q-17 14 -17 27q0 6 7 27q-5 0 -10.5 3t-10.5 3q-66 -58 -76 -68z" />
<glyph unicode="9" horiz-adv-x="1191" d="M432 -147q-2 2 -14 10t-12 22q0 38 49 68q6 20 36.5 63t30.5 60q0 9 -8 12q7 17 22.5 20t22.5 11q1 7 3.5 22.5t5 24t7.5 19.5t14.5 16.5t24.5 7.5q4 4 4 10q0 4 -5 11t-5 12q0 8 6 14q130 200 226 446l-6 3q-12 0 -27 -13t-52 -41t-89 -55q-3 -2 -17.5 -2.5t-19.5 -3.5 q-5 -2 -11.5 -12.5t-11.5 -12.5q-36 -8 -168 -28l-4 -11q-88 3 -108 11q-43 11 -86 28q-29 29 -56.5 79t-27.5 77q0 43 10 78t22 47q8 8 14 20.5t13.5 33t11.5 30.5q11 1 19.5 8.5t18 19t16.5 17.5q1 1 10 3t12 7q13 11 27 26t23.5 23.5t42.5 24.5t89 37q5 2 23 18t29 21 q6 2 32 4.5t37 17.5q100 14 125 14q39 0 72 -7.5t54 -15.5t48.5 -29t38.5 -31t41 -39q-4 -8 -4 -15q0 -14 12.5 -37.5t14.5 -38.5q0 -18 -7.5 -60t-9.5 -58q-2 -13 -5.5 -45.5t-6 -45.5t-11 -31t-22.5 -30q-2 -27 -10 -49t-26 -53t-23 -41q-3 -6 -8 -25.5t-11.5 -30.5 t-17.5 -14q0 -15 -8 -34t-8 -35q-16 -2 -22.5 -13t-10 -29t-8.5 -26q-4 -7 -33.5 -50.5t-49 -78.5t-30.5 -68q-11 -1 -22.5 -10t-26 -30t-20 -29t-21.5 -35q-38 -65 -76 -107q-34 -73 -80 -77h-2zM719 1067q-119 -16 -221 -70q-22 -10 -60.5 -37.5t-58.5 -37.5 q-7 -19 -37.5 -44t-38.5 -38q-6 -9 -9 -29t-5 -25q-3 -6 -17 -17.5t-14 -18.5q2 -12 2 -29q0 -11 -10 -49q13 -17 21.5 -26.5t24 -18.5t32.5 -9h18h16q62 5 118.5 22t111 49t84.5 52.5t82 59.5q79 59 106 100q3 10 11 12t16.5 1.5t15 12t6.5 40.5q0 14 -2 25t-9 30.5 t-9 26.5q-43 22 -102 22q-22 0 -72 -4z" />
<glyph unicode=":" horiz-adv-x="1126" d="M485 721q5 -8 17.5 -22t18 -27t5.5 -33q0 -5 -7.5 -17t-14.5 -21l-8 -9q-12 0 -27 -3.5t-20 -4.5q-3 10 -39 39q-8 6 -7 6v10v29q0 10 8.5 15.5t8.5 8.5q0 2 -1 6.5t-1 6.5q0 4 10 6.5t10 5.5v4h47zM438 240q9 -23 29 -50q-1 -5 -3 -20.5t-4 -21.5t-8.5 -12.5t-17.5 -6.5 h-4q-3 0 -6 -6.5t-6 -7.5q-6 2 -19 2h-14q-8 0 -19 15t-22 20q2 4 2 10q0 7 -6 10q3 6 4.5 18.5t4 21.5t9.5 11q9 -1 11.5 9.5t3.5 11.5q5 4 9.5 2.5t7.5 -1t3 6.5q5 -1 45 -12z" />
<glyph unicode=";" horiz-adv-x="1126" d="M485 721q5 -8 17.5 -22t18 -27t5.5 -33q0 -5 -7.5 -17t-14.5 -21l-8 -9q-12 0 -27 -3.5t-20 -4.5q-3 10 -39 39q-8 6 -7 6v10v29q0 10 8.5 15.5t8.5 8.5q0 2 -1 6.5t-1 6.5q0 4 10 6.5t10 5.5v4h47zM432 164q0 -9 -9 -15t-9 -10v-12v-6q0 -2 -25.5 -28t-58 -52.5 t-47.5 -26.5q-13 0 -13 15q0 14 22 70t46 69q2 29 21.5 65t23.5 54q0 4 5 10t5 10q33 -3 57.5 -27.5t24.5 -54.5q0 -42 -43 -61z" />
<glyph unicode="&#x3c;" horiz-adv-x="1138" d="M1087 952q-2 -13 -21 -30.5t-57.5 -40.5t-66 -39t-80 -44l-67.5 -36q-48 -25 -133 -74q-9 -5 -25 -16.5t-25 -16.5q-11 -7 -23 -12.5t-29.5 -13t-33.5 -15.5q-5 -2 -10.5 -11.5t-20 -19t-44.5 -16.5q-4 -10 -33.5 -24.5t-65 -29.5t-74 -43.5t-57.5 -61.5 q6 -12 19.5 -19.5t24 -9.5t30.5 -4.5t27 -3.5q62 -21 221 -49h8h18q1 0 33.5 -10.5t52.5 -10.5q4 0 15 2t16 2q7 0 19 -5t20 -5q3 0 7 1t7 1q12 0 47 -19t35 -26l-4 -8q-16 4 -57 4q-22 0 -45.5 2t-52 5.5t-44.5 4.5q-16 -2 -34 -2q-67 0 -153.5 16.5t-151.5 42.5q3 -2 0 -1 q-24 0 -64 21q-57 30 -57 77q0 20 6.5 32.5t24.5 29.5t22 22q38 12 89 45.5t99 52.5q4 2 9.5 9t9.5 9q12 7 40 19.5t48.5 25t36.5 29.5q19 1 44 17t42 18q15 17 60.5 40.5t60.5 45.5q28 4 64.5 25t43.5 32h4q4 0 10 4t11 4h4q18 19 81.5 46.5t78.5 50.5q12 0 22 -9t18 -10z " />
<glyph unicode="=" horiz-adv-x="1499" d="M997 786q-9 -24 -22.5 -32.5t-36.5 -8.5h-25h-8q-117 -24 -235 -34q-25 -3 -132 -22t-161 -19h-15q-10 0 -22.5 -6.5t-22.5 -6.5q-19 0 -37 24.5t-18 45.5q0 27 64 27q9 0 27.5 -1t27.5 -1q19 0 44.5 6t41.5 6h39q14 0 26.5 4t16.5 4t13 -1t13 -1q70 4 103 8 q149 13 178 13h35q9 0 31.5 4t35.5 4q20 0 39 -13zM1018 526q-19 -41 -62 -41h-24h-8q-145 -25 -234 -34q-34 -3 -138 -21t-157 -18h-12q-9 -1 -23 -8t-24 -7q-18 0 -36.5 24.5t-18.5 45.5q0 16 21.5 22.5t41.5 6.5q9 0 28 -1t27 -1q19 0 45 6t41 6h41q13 0 24.5 4t16.5 4 t14 -2t13 -2q34 4 102 8q150 12 178 12h35q9 0 32 4.5t36 4.5q23 0 41 -13z" />
<glyph unicode="&#x3e;" horiz-adv-x="1181" d="M45 199q2 13 23 29t58.5 34.5t71.5 33.5t82.5 35.5t71.5 30.5q72 26 142 62q10 3 26.5 14.5t24.5 14.5t37.5 11.5t52.5 20.5q5 1 8.5 4.5t6.5 8.5t19.5 12.5t45.5 13.5q5 10 53 26t105 44.5t83 67.5q-4 13 -16 21.5t-22.5 12t-29.5 7.5t-26 6q-25 12 -56.5 22.5t-48 15 t-59.5 15.5t-53 14q-6 2 -18 2q-5 0 -36.5 15.5t-55.5 15.5q-4 0 -12.5 -1t-12.5 -1q-8 0 -21 7t-24 7h-10q-11 0 -45.5 21t-34.5 28t4 11q41 -9 119 -17q12 -2 39.5 -9t40.5 -9q37 1 134.5 -22t170.5 -48q5 -1 12 -8.5t14 -9.5q6 -3 22.5 -5t22.5 -5q17 -10 41.5 -42 t24.5 -51q0 -21 -8.5 -35t-28.5 -29t-25 -20q-36 -8 -90 -37t-106 -42q-2 -1 -8.5 -8.5t-12.5 -8.5q-14 -7 -41 -16t-49.5 -19t-38.5 -26q-20 0 -47 -14t-43 -15q-17 -15 -63.5 -34t-65.5 -40q-27 -1 -65 -19.5t-47 -27.5h-5q-3 0 -8.5 -3t-9.5 -3q-6 0 -8 2 q-20 -19 -84 -40t-82 -42q-12 0 -21.5 10t-17.5 11z" />
<glyph unicode="?" horiz-adv-x="1318" d="M473 352q-27 3 -37.5 29.5t-17 62.5t-19.5 50q8 49 30 96t52 76q4 4 16.5 19t25.5 28t24 20q2 2 20 8q9 5 29.5 24.5t30.5 27.5q8 6 35 18t48.5 25t26.5 28q2 -2 6 -2q9 0 17.5 6t11.5 6q6 0 10 -4v4q0 1 22 19t27 22q7 5 27.5 13t30.5 14q3 2 25 16t30 18.5t25 12.5 t32 12q19 22 71.5 51.5t114.5 70t103 89.5q79 65 113 107l31 49q2 5 2.5 25t9.5 28q-8 22 -29.5 47t-59 51.5t-101 44t-140.5 17.5q-24 0 -82.5 -8t-95.5 -8q-29 0 -43 6q-7 -3 -20.5 -11.5t-20.5 -11.5q-12 -4 -55 -10.5t-72 -19.5q-7 -4 -24.5 -5t-30.5 -6q-1 -1 -3.5 -4 l-5 -6t-4.5 -4q-58 -22 -86 -37q-6 -4 -21 -14.5t-27 -16.5t-25 -10q-5 -11 -28 -40.5t-23 -35.5q0 -13 8 -34.5t8 -30.5q0 -13 -4 -19q-7 6 -22 8t-21 7q-1 1 -6.5 16.5t-16.5 16.5q-2 12 -2 32q0 30 14.5 65.5t36.5 57.5q4 4 14 7.5t15 7.5q2 2 5 6t4.5 5.5t4.5 4t6 4 t7.5 4t11.5 4.5q1 1 11.5 3.5t13.5 4.5q4 1 6.5 5.5t3.5 9.5t2 6q26 11 46 17t30 9.5t24 12.5q3 1 8 6.5t7 5.5q8 4 27 5.5t26 4.5q8 2 18.5 10.5t14.5 10.5q88 26 161 26q6 0 15.5 -4t13.5 -4q17 0 39 9.5t37 9.5q10 0 30 -3.5t27 -3.5q6 0 22 2.5t29 2.5q12 0 32 -7.5 t30 -7.5q9 0 22 10q46 -24 76 -24q11 0 19 2q12 -20 51.5 -34t44.5 -17q3 -2 7 -10t7 -9q3 -3 11 -4t12 -4q1 -2 1.5 -9t2.5 -11q12 -5 15 -8.5t3 -8t4 -8.5q1 -2 9 -13.5t13 -20.5t10 -25.5t5 -32.5q0 -17 -11 -47t-11 -51q-20 -16 -53.5 -61.5t-63.5 -63.5q-2 0 -10 -8 l-20.5 -20.5t-22.5 -20.5q-2 -2 -12.5 -6.5t-12.5 -6.5q-4 -3 -7.5 -11t-6.5 -9q-8 -7 -24.5 -13.5t-20.5 -9.5q-2 -1 -8.5 -10.5t-12.5 -11.5q-5 -2 -13.5 -3t-12.5 -3q-1 -1 -2.5 -4t-2 -5t-2 -4t-2.5 -2h-10q-6 0 -6 -16q-21 -8 -53.5 -25.5t-40.5 -25.5 q-54 -41 -141 -92t-157 -89t-144.5 -91.5t-118.5 -104.5q-1 -2 -1.5 -9t-2.5 -12q-15 -7 -15 -10q0 -1 1 -5.5t1 -6.5q0 -5 -7 -8t-7 -13v-20q0 -15 -10 -19q1 -15 10.5 -51t9.5 -55t-2 -29zM270 -160h-16q-21 0 -42.5 11.5t-21.5 23.5q0 5 1.5 15t1.5 14q0 22 -9 28 q9 15 28 30t36 15q6 0 10 -2h4q6 0 25 -24.5t20 -34.5q0 -7 -8 -11t-8 -24v-14q0 -14 -11.5 -16.5t-11.5 -6.5q0 -1 1 -2t1 -2z" />
<glyph unicode="@" horiz-adv-x="1622" d="M422 829q0 -6 -6 -6q0 -10 4 -10q9 0 16.5 14.5t9.5 26.5h9q11 0 30 20.5t31 20.5q4 0 7 -5t5 -5q3 0 5 5t4 5h10q3 0 5.5 5t4.5 5q28 15 42.5 24t15.5 11t4 5.5t11 8t35 16.5t76 34q95 36 156 36q80 0 172 -45q6 -10 33 -40.5t39 -58t12 -67.5q0 -3 -1 -10.5t-1 -11.5 q0 -2 1 -12t1 -17q0 -45 -34.5 -131.5t-90.5 -144.5q-3 -3 -5.5 -11t-4.5 -10q-8 -10 -19.5 -20t-18.5 -15t-7 -6q0 -20 -60 -44.5t-100 -24.5q-27 0 -45 19.5t-31 19.5v6q0 7 -3.5 11t-10 6.5t-8.5 4.5q-3 16 -21 56q-13 -2 -26.5 -16.5t-22.5 -16.5q-7 -21 -24.5 -40.5 t-41 -41t-34.5 -35.5q-3 -3 -8.5 -13t-10.5 -14q-2 -3 -12.5 -6t-13.5 -6q-5 -4 -12 -9t-9 -6.5t-6.5 -3.5t-8.5 -2.5t-11 -0.5q-24 0 -45 12.5t-21 34.5q0 15 11.5 51t13.5 43l5 1q5 1 5 5v8q0 5 3 9t8.5 8.5t6.5 5.5q2 6 6.5 21.5t8.5 23.5q42 72 76 106q77 76 176 76 q27 0 59.5 -6.5t42.5 -15.5q3 0 20.5 -15t35.5 -40t18 -44q0 -2 -6 -8q-31 2 -43 39q-35 18 -46 35q-9 1 -22 4t-22 4.5t-17 1.5q-30 0 -57.5 -13.5t-59.5 -38.5t-43 -32q-10 -30 -35 -39q-6 -24 -33.5 -63.5t-31.5 -69.5q2 -4 8 -4q14 -1 31.5 10.5t29.5 24t31 35t27 30.5 q17 17 60.5 71.5t74.5 72.5q53 -24 53 -37q0 -3 -5.5 -9.5t-6.5 -9.5q0 -2 3 -7t3 -7t-3 -9.5t-3 -15.5q0 -50 6.5 -74t30.5 -24q8 0 16 1.5t15.5 3.5t14.5 4.5t12.5 5.5t9.5 5t6 4l2 1q5 3 12 4t12 1t6 1q31 18 71.5 75.5t47.5 65.5q12 4 12 6v9l3 7q3 8 8.5 20.5t11.5 25 t12.5 23.5t10.5 14q0 55 16 71q-1 13 -3 37t-3.5 38t-6.5 32.5t-14 32.5q0 2 -5 4t-5 4v8q0 4 -3 5.5t-7.5 1.5t-5.5 1q0 2 -1 6t-8.5 14t-20.5 17.5t-42.5 14t-69.5 6.5q-15 0 -30 -4t-34 -10.5t-34 -10.5q-5 -2 -19.5 -3t-19.5 -3q-9 -2 -25 -9.5t-22 -9.5q-3 -2 -32 -12 t-58 -25.5t-39 -31.5q-27 0 -31 -4q-4 -8 -13 -14t-23.5 -12t-22.5 -11q-2 -4 -29.5 -23.5t-66 -48.5t-60.5 -51q-32 -27 -80.5 -83t-62.5 -71v-6v-4h-8q-3 0 -11.5 -15.5t-17.5 -15.5q2 -2 2 -8q0 -5 -7.5 -12t-8.5 -10q-12 -23 -22.5 -37.5t-19 -23.5t-12.5 -15 q-2 -3 -3 -11.5t-3 -11.5q-1 -2 -12.5 -21.5t-11.5 -27.5v-10q0 -2 -2 -2h-6q-4 0 -8 -11t-6 -23l-1 -11q0 -2 1 -5.5t1 -4.5q-19 -29 -37 -80q0 -1 3.5 -4t3.5 -7v-2q-29 -54 -29 -122q0 -80 45 -143.5t129 -63.5q5 0 10.5 2t9.5 2q1 0 24.5 -5t31.5 -5q60 2 126 22.5 t108.5 41.5t103.5 56q6 3 23 15t31 22t15 10q2 0 6.5 -1t6.5 -1t9 5t19 14t19 14l10 4v0v11q0 2 8 5t18.5 7.5t14.5 7.5q49 37 100 78q8 7 25.5 22t29 25t15.5 10q1 0 7 -2t11 -2q16 0 46.5 29.5t33.5 29.5q6 0 8 -4q3 4 5.5 13.5t5.5 13.5q8 4 33 24t44 23q2 16 15 33.5 t36 40t33 35.5q32 12 62.5 31t30.5 36v4h6q12 0 52 41.5t66 53.5q-11 -24 -55.5 -67t-62.5 -65q-46 -33 -78 -65q-2 -1 -7.5 -10t-11.5 -11q-2 -3 -9 -5t-11 -5q-5 -6 -10 -15.5t-12 -16.5t-23 -15q-13 -10 -49 -44t-54 -48q-74 -58 -114 -96q-30 -18 -33 -21 q-2 -1 -4.5 -6.5t-5.5 -7.5q-28 -14 -55 -33t-57 -43t-48 -37q-3 -2 -10 -11t-10 -11q-11 -4 -75.5 -42.5t-144.5 -70.5q-29 -16 -42 -21.5t-42 -9.5q-57 -34 -182 -34q-105 0 -183 59t-99 160q0 8 4.5 17.5t5.5 14.5q4 18 5.5 58.5t6.5 60.5q0 2 19.5 50t19.5 59v12 q0 9 6.5 25t19 38.5t22.5 39t26.5 43t21.5 34.5q3 6 20 28.5t17 27.5t7 9l7 3q2 3 6.5 15.5t11 21t17.5 8.5q0 13 10.5 22.5t10.5 20.5q11 7 33 28t38 39l17 17v6q0 2 2 2h6q2 0 2 2v10q4 3 14 8t19 13q2 2 16 14.5t26 23t26 20t20 9.5z" />
<glyph unicode="A" horiz-adv-x="2674" d="M1575 819q-53 5 -53 68q0 30 8.5 58t24 60.5t20.5 47.5q16 53 31 86q69 197 69 329q0 134 -49 253.5t-151 176.5q-7 5 -19.5 6t-17.5 5q-69 35 -115 39q-11 0 -19 -5.5t-10 -5.5q-5 0 -11.5 2.5t-11 5.5t-5.5 3q-106 -8 -299 -105q-4 -2 -7.5 -2.5t-4.5 -1l-3 -1.5t-6 -5 q-3 -3 -20 -7t-25 -9q-5 -4 -23 -25t-24 -27q-135 -87 -236 -194q-39 -41 -108 -131.5t-80 -104.5q-2 -3 -5.5 -4t-6 -1t-4.5 -2t-2 -5q0 -2 1 -6.5t1 -7.5t-6 -6.5t-14.5 -7.5t-10.5 -5q-3 -5 -3.5 -18.5t-4.5 -18.5q-2 -3 -14 -12.5t-15 -17.5l-12 -21q-11 -20 -24.5 -43 t-33 -51t-34.5 -45q-11 -13 -27 -48t-27 -54q-10 -17 -46.5 -77t-55 -91t-45 -80.5t-43.5 -89.5q-2 -3 -4.5 -18t-5.5 -21t-21 -38t-24 -54q-8 -24 -22 -74t-29 -93.5t-33 -78.5q2 -8 2 -27q0 -18 -11 -52.5t-12 -51.5q0 -3 5 -14t5 -17q0 -12 -6 -34t-6 -40 q0 -91 51.5 -190.5t118.5 -118.5q59 -16 160 -16q146 0 356 135l30 13q30 13 46 24q3 2 9 9t9 9q47 23 101 59.5t90 64.5t97.5 78t86.5 70q142 117 170 144q21 18 58 55t69 65t64 46q16 18 84.5 84.5t83.5 87.5q5 6 12.5 22t13.5 23q11 12 38 36t38 40q21 20 41.5 46 t44.5 60t37 51q1 5 9 12.5t9 8.5q19 39 74 102q4 4 5.5 14.5t4.5 14.5q1 2 9.5 4t9.5 4q6 11 13.5 37t14.5 39q6 13 26.5 43t29.5 53q1 3 3 16t7 19q2 5 11 8t9 8q0 2 -1 6.5t-1 6.5q0 7 21 28q4 12 5.5 61.5t18.5 69.5q40 -6 50.5 -20t15.5 -56q0 -18 -11.5 -46t-33 -69 t-31.5 -63q-92 -186 -151 -336q-7 -16 -15 -49t-12 -45q-58 -155 -101.5 -332.5t-43.5 -287.5q0 -17 2.5 -43t10.5 -72t29.5 -86.5t53.5 -60.5q116 3 205 92q17 8 34.5 18t37 26t33 26.5t36.5 32.5t31 30l33.5 33.5l29.5 29.5q7 7 95 87t124 120q2 2 16 10t19 13 q17 21 45.5 46t38.5 25q1 0 4.5 -1t5.5 -1q7 0 19 21q8 13 30 29t40 27l18 11q6 15 10.5 18.5t26.5 10.5q-4 -43 -15 -60t-33.5 -29.5t-37.5 -31.5q-5 -6 -9.5 -10.5t-7.5 -8t-8 -7t-7 -5t-9 -5.5t-9.5 -5t-13 -6.5t-14.5 -7.5q-8 -15 -33 -45.5t-35 -46.5q-5 -7 -35 -30.5 t-41 -39.5q-71 -68 -145 -131q-118 -114 -197 -172q-4 -3 -29 -22t-34 -24.5t-32 -20.5t-37.5 -20.5t-37 -14.5t-44.5 -12t-46 -3q-13 0 -41 4q-53 9 -99 106t-46 181q0 22 4.5 62.5t5.5 58.5q16 212 84 489l-2 5q-12 0 -27 -15t-40.5 -50t-40.5 -52q-6 -6 -15 -23t-16 -24 q-27 -30 -87.5 -85.5t-70.5 -64.5q-5 -5 -18 -22.5t-21 -24.5q-6 -6 -22.5 -14t-22.5 -15q-9 -6 -21 -24t-18 -23q-5 -4 -22 -12t-25 -16q-8 -6 -19 -23t-16 -22t-16.5 -6.5t-13.5 -2.5q-7 -5 -32.5 -34.5t-43.5 -40.5q-3 -3 -13.5 -5.5t-13.5 -5.5q-4 -3 -9 -14.5t-9 -13.5 q-8 -6 -31 -21.5t-35 -25.5q-8 -6 -29.5 -27t-37.5 -29q-2 -2 -13 -4t-14 -4q-4 -4 -9.5 -16t-8.5 -15q-62 -41 -68 -45q-11 -15 -27.5 -25t-36.5 -18.5t-28 -13.5q-5 -3 -11.5 -15.5t-11.5 -15.5q-3 -2 -12 -3.5t-12 -4.5q-11 -7 -47.5 -29.5t-52 -31.5t-49 -28 t-56.5 -29.5t-55.5 -25t-65.5 -25t-69 -19.5q-9 -2 -17 -10.5t-12 -8.5q-23 -6 -84.5 -7t-75.5 -3q-9 0 -20 2t-18.5 4.5t-19.5 7t-18 6.5q-123 33 -195.5 124.5t-72.5 246.5q0 99 31 223q1 6 10.5 20t9.5 25q0 5 -1 15t-1 14q0 33 19.5 81.5t46.5 70.5q-4 12 -4 16 q0 11 16 29t16 22q0 3 -5 8.5t-5 8.5q0 7 8.5 11.5t10.5 8.5l-2 -2q-2 0 -5.5 3.5t-3.5 6.5h2q9 8 22 45t26 60q2 7 12.5 20.5t13.5 18.5q12 21 32 67t36 74q124 216 205 328q1 1 3.5 11.5t8.5 14.5q0 3 8.5 6.5t9.5 4.5q3 6 8 22.5t11 24.5q5 10 41.5 51t50.5 61 q3 4 4.5 14.5t5.5 14.5q2 2 10.5 5t10.5 5q3 6 8 23t8 22q3 3 14.5 5t14.5 5q4 4 5.5 15t4.5 14q10 11 41.5 46t62 66.5t56.5 55.5q6 6 17.5 22t23 25.5t26.5 9.5h8q12 32 48.5 60.5t92 57t64.5 34.5q2 1 5 8.5t5 7.5q66 35 96 49.5t102 35t140 20.5q16 0 86 -8q24 -4 53 -4 t49 -3.5t42 -15.5q24 -13 74 -50.5t75 -51.5q5 -24 13 -36t18 -19.5t21.5 -20t28.5 -48t34 -93.5q18 -77 18 -179q0 -104 -18 -190q-2 -4 -2 -8t1 -13.5t1 -13.5q0 -11 -10.5 -22.5t-12.5 -18.5q-40 -143 -63 -205q-4 -9 -15 -28.5t-14 -28.5q-3 -12 -6 -35.5t-5.5 -38 t-14 -29t-31.5 -18.5z" />
<glyph unicode="B" horiz-adv-x="2473" d="M1677 977q63 -17 146 -43q21 -8 69.5 -39t61.5 -31t18.5 -3t6.5 -7.5t5 -11t13 -11.5q51 -38 55 -43q1 -1 1.5 -5t1 -7.5t1.5 -3.5q15 -10 41.5 -51.5t26.5 -52.5v-2q10 -25 10 -64q0 -68 -39 -149t-83.5 -132t-67.5 -51q-17 -21 -43.5 -42.5t-43.5 -32t-59.5 -33.5 t-52.5 -29q-1 -1 -4 -5.5t-5.5 -7.5t-4.5 -3t-6.5 1t-6.5 1q-5 0 -13.5 -6.5t-18 -15t-13.5 -11.5q-24 -7 -140.5 -45t-184.5 -55q-36 -9 -139 -29.5t-160 -36.5q-90 -31 -359 -43q-38 0 -62 0.5t-73.5 3.5t-84 8.5t-80 17t-76 28t-57.5 42t-38 58.5q0 3 -5 7t-5 11 q-4 32 -4 53q-1 10 8 56q10 41 55 101.5t72 60.5h4q0 20 21 20q49 0 49 -22q0 -23 -15 -40.5t-40.5 -35.5t-34.5 -29q-3 -28 -16 -76.5t-13 -72.5q0 -46 30 -77.5t87 -46.5t117.5 -20.5t142.5 -5.5q81 0 227 23q6 0 17 -1t16 -1q10 0 14 2q11 -2 19 -2q10 0 14.5 8t9.5 8 t15.5 -1t15.5 -1q23 0 48.5 8.5t31.5 22.5q12 -2 37 -2q74 0 155 45q10 -2 27 -2q86 0 139 71q107 23 234 101q4 3 15.5 4.5t16.5 5.5q2 1 18.5 13.5t32 24.5t15.5 11q0 1 -1 3t-1 3q0 5 7.5 7t17.5 3.5t14 3.5q5 4 18 17.5t26 22.5t27 12q0 19 23.5 35t26.5 20q12 12 24 53 q70 117 70 199q0 101 -92 169t-246 87q-63 10 -80 10q-19 0 -38.5 -11t-52 -37.5t-44.5 -35.5q-295 -219 -586 -287q-6 -2 -21 -11t-22 -9q-3 0 -11.5 1t-12.5 1q-2 0 -6 -1t-5 -1q-9 -2 -56 -12.5t-69.5 -14.5t-64 -9t-78.5 -5q-180 0 -260 80q-18 -12 -32.5 -49.5 t-30 -102.5t-21.5 -86q1 0 3.5 -4t2.5 -6q-16 -13 -39.5 -101t-49 -175.5t-48.5 -100.5q-23 7 -25 29t-22 29q3 25 19.5 70t19.5 57q0 3 -4 6.5t-4 5.5t1.5 3t3 1.5t4 2.5t3.5 5q3 8 13.5 50t21 70t24.5 44q0 3 -1 10.5t-1 11.5q0 16 8 52q42 186 103 331q2 6 11 20.5 t9 22.5q0 3 -1 13t-1 14q0 11 25.5 68t27.5 65q5 6 6.5 20.5t2.5 18.5q5 11 18.5 33t21 42.5t7.5 45.5q21 27 35.5 57.5t32.5 82t24 67.5q23 55 68 157t65 148q1 2 9.5 10.5t15.5 24.5q1 2 43.5 99.5t68.5 146.5q-8 2 -24 2q-12 1 -35 -5.5t-29 -7.5q-168 -20 -256 -41 q-1 -1 -7.5 -6.5t-8.5 -5.5h-2q-53 -5 -62 -8q-14 -2 -40.5 -11t-39.5 -12q-308 -82 -462 -135q-64 -23 -106 -40t-103 -47.5t-117 -67.5q-2 -3 -12.5 -7.5t-12.5 -7.5q-39 -55 -71 -55q-35 0 -35 33q0 20 16 40.5t46 39t53.5 31t57 27.5t38.5 17q4 2 12 12.5t14 10.5h7 q9 0 27 15.5t28 15.5q2 0 5 -1.5t5 -1.5q14 1 39 14t37 17q54 19 174 55t199 64q39 14 122.5 30.5t118.5 26.5q4 2 9 6t8 6.5t6 2.5q4 0 13 -2t13 -2q27 0 100 19t101 24q29 5 70.5 9t68 7t52.5 8.5t38.5 17t12.5 29.5v15q26 39 59 39q9 0 31 -11t22 -26q0 -5 -5 -12t-5 -9 q0 -16 129 -16q20 0 59 1t58 1q38 0 111.5 -10.5t105.5 -10.5q13 0 33 4q4 9 6 9q1 0 2 -1t2 -1q2 -4 14 -7t31.5 -6.5t30.5 -7.5q1 -1 5 -7t7 -9q55 0 103 -11q2 -1 37 -17t56 -27t58.5 -34.5t61.5 -45t47.5 -53t33.5 -64.5q1 -5 14 -28t15 -30q4 -18 4 -57 q0 -170 -92 -340q-5 -16 -17 -30t-14 -21q-3 -5 -16 -30t-36 -54.5t-77 -89.5zM408 729q20 14 63 29q73 49 180 88q404 135 899 135q178 139 277 416q4 8 4 14q0 5 -2 20t-2 23q0 16 10.5 44t11.5 38q-12 28 -12 82v16q-14 6 -21 17.5t-12.5 31.5t-7.5 25q-29 22 -74 53 q-2 0 -3.5 7.5t-2.5 7.5q-52 32 -149 57.5t-170 32.5q-5 0 -11 5.5t-12 6.5q-150 14 -274 14q-142 0 -256 -24q-295 -578 -502 -1157q9 -6 18 -6q12 0 24 12t24 12zM1141 874q-68 -12 -141 -29t-164.5 -41t-124.5 -32q-1 0 -6 -8t-7 -8t-5.5 3t-4.5 3q-2 0 -5.5 -7t-6.5 -7 q-2 0 -6 1t-6 1q-3 0 -10 -7.5t-9 -7.5h-10l-42 -18l-11 -4q-1 0 -5 -5.5t-6 -5.5q-51 -27 -83.5 -47t-63 -48t-31.5 -50q48 -41 133 -41q28 0 121 10q120 14 137 25q21 6 65.5 18t76.5 22t55 21q6 3 21 11.5t24 11.5q6 3 24 7.5t27 8.5q82 39 254 137q127 73 127 103 q0 8 -86 8q-60 0 -231 -25z" />
<glyph unicode="C" horiz-adv-x="1945" d="M1309 969q9 12 18 12q4 0 19.5 -6t29.5 -6q9 14 29 32t33.5 37t17.5 43q7 0 16.5 4.5t16.5 4.5q0 71 61 104q-4 16 -4 20q0 25 29 81.5t53 70.5q8 39 26.5 109.5t28 121t9.5 95.5q0 82 -43 163.5t-99 118.5q-2 1 -18.5 1.5t-24.5 6.5q-3 2 -9 14.5t-9 12.5t-12 -2t-15 -2 q-11 0 -21.5 4.5t-18.5 10t-9 5.5q-31 7 -96 7q-67 0 -137 -23q-2 -1 -54 -8q-8 -3 -21.5 -13.5t-21.5 -13.5q-11 -4 -31.5 -5t-29.5 -5q-12 -4 -34 -18.5t-25 -16.5q-6 -3 -20.5 -7t-22.5 -9.5t-11 -16.5q-13 -1 -24.5 -3.5t-23 -7.5t-19 -8.5t-19.5 -11.5t-16.5 -11.5 l-18 -14t-16.5 -12.5q-81 -58 -120.5 -88t-100.5 -83t-109 -106q-3 -4 -4 -13.5t-4 -12.5t-13 -4.5t-13 -3.5q-2 -3 -4.5 -13.5t-4.5 -13.5q-5 -6 -24.5 -23t-28.5 -28q-1 -2 -4.5 -13.5t-7 -21.5t-6.5 -10l-5 1q-5 1 -8 1q-4 0 -4 -4v-13q0 -5 -7.5 -8t-8.5 -4 q-6 -6 -33 -42t-45 -42q-5 -39 -42 -86.5t-44 -79.5q-20 -12 -33 -26.5t-17.5 -24t-10.5 -28.5t-9 -25q-2 -2 -4 -16t-4 -19q-2 -3 -13 -8t-13 -8q-2 -4 -8 -29.5t-18.5 -48t-35.5 -35.5l-2 -4q0 -6 6 -15t6 -10q0 -4 -15.5 -19t-18.5 -22q-3 -68 -35 -88q4 -12 4 -16 q0 -13 -11 -29.5t-12 -21.5q-1 -3 -1.5 -17.5t-5.5 -21t-19 -6.5q2 -6 2 -21q0 -19 -11.5 -54.5t-11.5 -56.5q0 -20 4 -32q-24 -21 -24 -97v-45q0 -11 -5 -34.5t-5 -36.5q0 -7 13 -30.5t13 -41.5q0 -4 -1 -12.5t-1 -12.5q0 -19 53 -114q10 -13 43.5 -38t42.5 -48 q75 -9 123 -54h13q10 0 25.5 5t23.5 6q13 -23 49 -23q15 0 48 6t48 6h70q23 0 44 4t48 12t39 11q7 1 28.5 2.5t32 6.5t15.5 18q13 -10 24 -10q14 0 31.5 14t23.5 14q20 0 33 -10q30 21 47.5 31.5t48 22.5t62.5 16q9 9 16 26q9 -6 17 -6q6 0 13 3.5t16.5 10.5t13.5 9 q8 3 29.5 9t36.5 13.5t22 20.5q12 6 18 6q2 0 12 -3t23 -3q7 1 11.5 7t7.5 15t6 12q46 15 128 60.5t132 60.5q14 26 60.5 49.5t60.5 38.5q7 0 15.5 -5t14.5 -5q3 0 10.5 11t16.5 24t12 16q19 0 43 18.5t45 18.5h8q13 5 17 35q4 -4 10 -4q10 0 26.5 11t26.5 11q7 0 17.5 -2 t13.5 -2q6 0 10 2q10 -7 10 -8q0 -5 -9 -12l-9 -6q-3 -4 -5 -12t-5 -13h-6q-9 0 -21 -5t-20 -5q-9 0 -13 2q-18 -3 -18 -27v-10h-18q-31 0 -42.5 -10.5t-14.5 -26.5t-11 -22q-2 0 -5 1t-5 1q-14 0 -25.5 -14.5t-23.5 -14.5q-9 0 -11 2q-6 -7 -29.5 -23t-29.5 -30 q-3 0 -7.5 1t-6.5 1q-9 0 -23.5 -6t-24.5 -6q-1 0 -4.5 1t-5.5 1q-4 -5 -24.5 -25t-26.5 -37h-8q-27 0 -59 -24.5t-50 -24.5q-11 0 -20 6q-10 -4 -22.5 -21.5t-22.5 -21.5q-35 -5 -94 -43.5t-97 -38.5q-4 0 -13.5 2t-14.5 2q-9 0 -12 -16.5t-11 -17.5q-152 -55 -209 -89h-10 q-15 0 -33 11q-12 -1 -29 -15.5t-30 -19.5v0v0h-1h-1h-1h-1h-1h-10q-11 0 -12.5 -4t-5.5 -4q-3 0 -4.5 4t-5.5 4q-5 0 -16.5 -7.5t-18.5 -8.5q-15 -4 -48.5 -6t-47.5 -5q-13 -2 -41.5 -9t-42.5 -7q-7 0 -22.5 3.5t-22.5 4.5q-12 0 -37.5 -2t-40.5 -2t-28 3t-32 10t-28 10 q-8 2 -29 3.5t-31 4.5q-22 4 -64 27.5t-65 23.5q-2 15 -12 22.5t-26.5 12.5t-22.5 8q-1 1 -3 10.5t-7 9.5q-6 0 -8 -2q-5 7 -14.5 27.5t-19.5 33t-26 17.5q0 2 1 6t1 6q0 22 -21.5 54.5t-25.5 44.5q-16 66 -16 139q0 74 22.5 204.5t46.5 135.5q-8 8 -8 25v8q4 3 12.5 22.5 t22.5 20.5q0 2 1 5t1 5q0 7 -5 15t-5 14q0 -3 4 3q1 3 7 13q27 54 40 57q0 2 -1 5.5t-1 5.5q0 10 6 23.5t6 23.5q0 2 -1 6t-1 6q22 0 37.5 34t15.5 56v15q8 6 25 30t35 29v12q0 33 22 33h4q-4 4 -4 16q0 13 7.5 26.5t20.5 31t19 30.5q1 1 4 11.5t5 13.5q3 4 13.5 9t12.5 9 q3 5 4 16.5t4 16.5q1 2 8 10.5t9 16.5q9 24 52 75t52 64q4 5 9.5 17.5t9.5 17.5q57 76 78 78q4 5 8 21t8 22q13 1 25 18t26 17h10q2 15 28 38.5t26 32.5q0 2 -1 7t-1 6q0 2 4 2q1 0 5 -1t5 -1q4 0 11.5 11.5t15.5 25t12 16.5q12 11 38 24t46 27.5t28 36.5q25 1 63 30t103 78 t136 82q9 4 33.5 8.5t35.5 8.5q12 4 48.5 19.5t65 25.5t79 19t104.5 9q88 0 162 -22t156 -84q37 -24 62 -51.5t50 -71.5q3 -3 9 -7.5t8 -7.5t2 -8q0 -3 -1 -8t-1 -8q0 -8 13.5 -18.5t14.5 -12.5q3 -10 12 -62t23 -83q-12 -18 -12 -41q0 -8 2 -25.5t2 -25.5 q0 -10 -10.5 -32.5t-10.5 -31.5q0 -4 1 -13.5t1 -14.5q0 -12 -11.5 -25.5t-14.5 -26.5q0 -1 2 -12t2 -18t-16.5 -29.5t-30.5 -34.5q-3 -38 -34 -88t-36 -86h-6q-11 0 -20 -12t-17 -14q0 -2 1 -7.5t1 -7.5q0 -10 -4.5 -24.5t-5.5 -20.5q-15 -10 -26.5 -35t-24.5 -43t-37 -18 v-4q0 -22 -19 -44.5t-22 -37.5q-21 -6 -39 -6q-40 0 -68 22.5t-32 61.5zM2019 614h4q9 0 9 -4q0 -6 -18 -23.5t-29 -25.5q-8 -5 -25 -8t-21 -8q-8 -5 -31.5 -29.5t-43.5 -30.5q-13 -4 -23.5 -25.5t-25.5 -21.5q-10 0 -25 5t-23 6q4 5 10.5 21.5t15 25t24.5 8.5q1 0 4.5 -1 t5.5 -1l2.5 5l2 4t1.5 3.5t2.5 4l3.5 3.5t5 4t7 5t9 6.5t12 7.5q5 3 8.5 4t7.5 4q0 5 5 7.5t11 3.5t14.5 2t12.5 3q4 3 10 15t9 14q6 2 33 3t36 13z" />
<glyph unicode="D" horiz-adv-x="2117" d="M590 1880q0 -22 -9.5 -48t-11.5 -34q150 -7 251 -13.5t238.5 -23.5t238 -41t206 -66t185.5 -98q40 -28 63 -51q3 -3 4.5 -11.5t3.5 -10.5q3 -2 12 -3t11 -3q17 -22 54 -74t65 -88q2 -4 2.5 -20.5t3.5 -24.5q2 -4 11 -11t11 -12q7 -16 19 -88.5t12 -134.5q0 -31 -7.5 -89 t-17.5 -91q2 -9 -1.5 -14.5t-11 -10t-9.5 -6.5q-2 -6 -2.5 -21t-3.5 -22q-2 -2 -5.5 -6t-6.5 -7t-3 -5v-15q0 -4 -4 -10.5t-10 -14t-8 -10.5q-34 -65 -70.5 -115.5t-99.5 -119.5q-7 -8 -20.5 -28t-22.5 -29q-3 -3 -8.5 -7t-12.5 -9t-10 -7q-11 -14 -23.5 -26.5t-31 -29 t-28.5 -25t-36 -30t-34 -28.5q-17 -15 -81.5 -49.5t-88.5 -61.5q-27 -6 -53.5 -18.5t-64 -34.5t-50.5 -29q-111 -51 -361 -133q-13 -4 -43.5 -15.5t-49 -18t-46.5 -12t-53 -5.5q-7 -10 -19.5 -15.5t-24 -7t-32.5 -3t-35 -3.5q-3 -1 -12.5 -7t-16.5 -7q-7 -2 -73.5 -17 t-86.5 -19t-78 -15.5t-90 -15.5t-78.5 -8.5t-84.5 -4.5q-36 0 -76 6q-3 1 -9.5 4.5t-10.5 3.5q-14 -2 -45 -2q-95 0 -182 48.5t-120 144.5q-1 5 -7 16t-7 15q0 4 4 22.5t4 28.5q0 8 -4 21t-4 20q0 5 9.5 16t9.5 17q0 3 -11 14q2 9 18 17t17 18q9 3 15.5 21t19.5 18h4 q-1 -9 -9.5 -24.5t-8.5 -25.5q0 -8 6 -24t6 -25q0 -12 -5 -40t-5 -44q0 -10 7 -23.5t9 -23.5q2 -8 2.5 -25.5t3.5 -25.5q20 -38 53 -62t78.5 -34.5t82.5 -13.5t89 -3q191 0 477 68q41 11 135.5 33.5t146.5 36t134 41t158 59.5q3 1 20.5 11.5t24.5 10.5q2 0 7 -1t7 -1 q7 0 29 11q2 0 4 6.5t4 7.5q4 2 16 2.5t21 3.5q53 28 86 45q43 21 93.5 51t77.5 47t88.5 58.5t72.5 48.5q6 6 20.5 24.5t24.5 26.5q3 4 14 8.5t15 8.5q67 55 139 161q5 8 17 21.5t20 25.5t14 27q1 1 5.5 12t13.5 27t20 27q7 8 14 23.5t14.5 39t12.5 40t13 48t11 41.5t12 30 t11 28q6 47 6 100q0 80 -14.5 137t-50.5 131q-35 71 -68 109q-2 4 -14 11t-15 11q-4 5 -7 16t-7 13q-4 4 -21 11.5t-22 10.5q-4 2 -6 9l-2 8q-4 2 -17 2.5t-20 3.5q-5 3 -12 11.5t-11 10.5q-21 11 -63.5 24.5t-60.5 21.5q-2 0 -4.5 6.5t-4.5 7.5q-6 3 -27 3t-30 3 q-6 3 -6 16q-8 2 -30 3.5t-32 3.5q-6 2 -32 12t-39 10q-4 0 -13.5 -1t-13.5 -1q-11 0 -20 8t-17 8q-6 0 -20 -4t-19 -4q-24 0 -50 11t-32 12q-6 0 -17.5 -3t-16.5 -3q-32 0 -90.5 10t-79.5 12q-5 -8 -11 -8q-61 12 -141 12q-98 0 -180 -20q-14 -28 -24 -58.5t-21 -77.5 t-15 -61q-1 -4 -59 -201q-6 -23 -21 -95.5t-29.5 -119t-31.5 -63.5q0 -7 5 -13t5 -8q0 -18 -20.5 -59.5t-24.5 -58.5q-1 -4 -19 -55.5t-18 -75.5v-19q0 -4 -7 -10.5t-7 -9.5q-5 -18 -11 -55.5t-11 -55.5q-2 -7 -11.5 -21t-11.5 -22t-4 -26t-4 -25q-2 -11 -14 -63.5t-16 -71 t-13 -64t-12.5 -72.5t-7 -64t-3.5 -69q0 -33 1.5 -47.5t4 -21.5t10 -32t15.5 -62q-18 0 -39.5 14t-40.5 14q-6 0 -19.5 55t-13.5 76q0 10 2.5 17.5t4.5 11t2 4.5q0 3 -2 4.5t-4 1.5h-3q1 7 5 16.5t4 14.5t-4.5 10t-4.5 10q0 4 8.5 15t8.5 12q0 6 -2 14t-2 13q0 4 2.5 11 t5.5 12l2 5q0 3 -1.5 4.5t-2.5 1.5h-2q10 88 14 105q1 7 7 19t7 16q2 6 7 59q8 33 30 97.5t31 95.5q3 15 9.5 53t12 62t9.5 24q6 -2 10 -2q2 0 2 2q-2 12 -2 22q0 12 3.5 25.5t11 32.5t10.5 28q3 11 3.5 32.5t2.5 29.5q3 7 11 20t11 23q14 37 25 73t19.5 68t30 110t44.5 161 q0 3 2 25.5t4 31.5q1 8 9 16.5t8 12.5q0 2 -1 8t-1 8q0 6 7 17t7 12q6 20 15.5 66.5t15.5 66.5q-30 6 -64 6q-21 0 -43.5 -2t-50.5 -5.5t-41 -4.5q-26 -3 -78 -18t-78 -15q-14 0 -20 2q-15 -12 -33 -18.5t-43.5 -11t-34.5 -7.5q-207 -53 -530 -205q-20 -10 -66 -30.5 t-75.5 -35t-64 -36t-53 -45.5t-20.5 -51q-19 1 -34 10t-23 18.5t-20.5 26.5t-18.5 24q31 42 102 88h4h11q2 0 2 3v10q0 4 17 13.5t47 23.5t38 18q3 1 24.5 15.5t35.5 19.5q6 4 22 5.5t21 4.5q5 1 11 10t11 11q12 5 37 10t37 10q69 31 198 82q152 60 361 102q12 3 35.5 10 t44 12t43.5 9q57 8 229 21q8 1 28.5 5.5t31.5 4.5h14q14 15 21.5 65.5t23.5 65.5q27 0 41.5 -7.5t38.5 -29.5z" />
<glyph unicode="E" horiz-adv-x="1845" d="M1309 1186q0 36 37 45q7 12 25.5 38.5t29.5 47.5q2 2 4 11t4 11q1 2 8 5t8 4q7 11 22 46.5t32.5 99.5t17.5 114q0 62 -27 135t-69 115q-2 5 -3 15.5t-3 14.5q-135 152 -398 152q-28 0 -80.5 -8.5t-72.5 -10.5q-7 -1 -34.5 -3t-43.5 -7q-5 0 -16.5 -6.5t-14.5 -7.5 q-75 -21 -98 -31q-109 -50 -180 -92q-4 -3 -15.5 -8t-15.5 -8q-1 -1 -3.5 -8.5t-4.5 -8.5q-3 -1 -10.5 -2t-10.5 -3.5t-8 -8.5q-22 -24 -103 -90.5t-122 -118.5q-15 -17 -47 -70q-47 -66 -70.5 -132t-23.5 -154q0 -111 32 -179q1 -3 4.5 -8.5t8 -11.5t8.5 -11.5t7 -9t3 -2.5 v-8q0 -5 8 -7.5t8 -6.5q0 -1 -1 -4.5t-1 -5.5t8.5 -5t8.5 -4q0 -4 39.5 -45.5t101.5 -86t107 -44.5q20 0 28 6q8 2 49 17t76.5 26.5t92.5 22t110 10.5q119 0 209 -37q29 -9 95 -50t69 -64q-12 6 -47 26.5t-53.5 29t-53.5 21.5t-76 18t-92 5q-55 0 -109 -12.5t-113 -33.5 t-77 -26q6 -12 19 -17.5t35 -8t30 -4.5q137 -33 195 -39q14 -2 82.5 -15.5t111.5 -13.5q42 0 77.5 11t54.5 22.5t22 11.5q6 0 6 -10q0 -29 -65 -52.5t-142 -23.5h-25q-10 0 -31.5 -1t-31.5 -1q-27 0 -64.5 12.5t-48.5 14.5q-15 2 -50.5 2.5t-49.5 3.5q-4 2 -16 9t-15 7 t-8.5 -1t-9.5 -1q-9 0 -23 11.5t-20 13.5q0 -2 -6.5 -5t-10.5 -3q-5 0 -31.5 12t-45.5 12q-15 0 -31.5 -6.5t-36.5 -20.5t-36.5 -26.5t-40 -36l-37 -37t-39.5 -40t-35 -36.5q-4 -4 -16.5 -24t-22.5 -29q-32 -29 -76 -108q-2 -2 -4 -11t-4 -12q-50 -63 -56 -78 q-24 -60 -24 -149q0 -45 24 -82q3 -4 13 -9.5t12 -7.5q2 -4 3 -15.5t3 -16.5q1 0 8 -2.5t14 -5.5t11 -7q62 -62 137.5 -86t173.5 -24q79 0 135 10q16 2 45 11t41 11q23 6 78 17.5t93.5 22t68.5 24.5q14 3 37.5 19t32.5 20q15 5 42.5 13t45 13.5t38.5 17t35 25.5q3 1 26 5.5 t26 5.5q29 12 58.5 27t66 36t55.5 32t62.5 38t50.5 31q5 2 37 12.5t40 17.5q25 20 56 51q5 3 56 29.5t56 30.5q27 40 88.5 83t87.5 75q11 9 20.5 19.5t14 16t6.5 5.5q7 0 7 -17q0 -10 -4 -19.5t-13 -21t-17 -19.5t-23.5 -22.5t-24.5 -23.5q-2 -1 -10.5 -6t-10.5 -9 q2 5 -25.5 -20t-75.5 -66t-83 -63q-3 -2 -24.5 -22t-24.5 -21q-6 -4 -20 -10t-17 -9q-34 -18 -102.5 -67.5t-116.5 -71.5q-7 -4 -23.5 -8t-23.5 -8q-9 -5 -30.5 -22.5t-41 -30.5t-31.5 -13q-2 0 -2 2t-1.5 4t-4.5 2q-4 -1 -8 -7.5t-8 -8.5q-35 -14 -123 -53q-5 -2 -24 -11.5 t-27.5 -13t-27 -12t-29 -13t-27 -11.5t-27.5 -10.5t-23.5 -7.5t-22.5 -5.5t-18 -1.5h-18q-4 0 -10.5 -6.5t-9.5 -8.5q-11 -3 -59 -18t-80.5 -22t-59.5 -7q-5 0 -15.5 5.5t-15.5 5.5q-9 0 -16.5 -8.5t-24.5 -8.5t-48 -2t-46 -2q-117 0 -193 33q-8 4 -16 4q-19 0 -33 11.5 t-26 15.5q-6 4 -27 11.5t-29 12.5q-5 3 -11 15.5t-11 15.5q-5 4 -16.5 8t-14.5 8q-18 13 -35.5 33.5t-37 72.5t-19.5 117q0 41 4 66.5t8 33t14 18t13 14.5q12 47 40 98.5t48 79.5t65 86q32 41 66.5 76.5t91 86.5t74.5 68q-39 27 -100 62q-30 17 -59.5 40t-67 64t-65.5 87.5 t-47 114t-19 140.5q0 46 32 188q1 3 8.5 8t8.5 9q0 2 -1 7t-1 7q0 7 2.5 9.5t7.5 3.5t8 4q11 28 41.5 71t34.5 53q5 10 28.5 29t32.5 33q2 1 4 10t4 10q5 6 21.5 14.5t19.5 10.5q8 7 26.5 33t33.5 37q4 3 11.5 4t10.5 4q26 18 40 32t20 21.5t35 27t86 52.5q50 24 186 92 q5 2 21 3.5t24 4.5q148 43 295 43q86 0 178 -20q2 0 33.5 -12.5t48.5 -12.5q12 0 16 2q20 -17 79 -49.5t102 -75.5q2 -3 2.5 -12t3.5 -12q59 -64 92 -146q43 -74 43 -137q0 -12 -2 -35t-2 -37q0 -10 2 -23t2 -20q0 -22 -12 -57q-4 -22 -11.5 -42.5t-12.5 -32t-18.5 -36 t-19.5 -36.5q-76 -154 -141 -154q-29 0 -51 31z" />
<glyph unicode="F" horiz-adv-x="1478" d="M786 1851v-4q0 -14 -22.5 -18.5t-22.5 -20.5v-4q-10 -7 -15.5 -34t-8.5 -33q56 2 183 4.5t203 5t183 10.5t193 21h6q5 0 16 -1t15 -1q16 0 31 7t26 7h29q42 6 43 6q2 -6 8 -6q35 9 153 29q46 6 91.5 16.5t74 19.5t77 26t75.5 26q3 1 19 9.5t24 8.5q11 0 20 -12 q0 -23 -11.5 -32t-33.5 -13q-5 -16 -20.5 -25.5t-32 -13.5t-34.5 -12t-27 -21q-44 -26 -252 -59q-400 -66 -609 -74q-29 -1 -210.5 -5.5t-274.5 -15.5q-13 -8 -28 -39.5t-15 -52.5v-10q0 -6 -7 -9l-7 -3q-19 -53 -37 -135q-67 -238 -119 -447q-3 -13 -15.5 -42.5 t-17.5 -45.5q-3 -10 -5.5 -36t-6.5 -40q-32 -103 -59 -194q88 1 171 13t208.5 41t150.5 34q32 16 47 18q9 3 27 4.5t24 3.5q14 4 42 16t51.5 18.5t48.5 6.5q16 0 31.5 -7.5t15.5 -24.5q0 -12 -9.5 -22.5t-29 -19.5t-36 -14.5t-43.5 -13.5t-38 -12q-3 0 -9 -7.5t-9 -7.5l-6 1 q-6 1 -9 1q-4 0 -10.5 -7t-9.5 -7q-25 -9 -63.5 -18t-88.5 -19.5t-80 -17.5q-28 -5 -83.5 -21t-82.5 -20q-28 -3 -75.5 -5.5t-84.5 -7t-67 -14.5q-9 -12 -16.5 -29.5t-11.5 -30.5t-9 -35t-8 -32q-77 -307 -96 -405q-2 -12 -2 -39t-5 -46t-22 -32q-17 0 -31 12t-14 35 q0 3 3 18t3 31q0 10 -2 23t-2 18q0 63 20.5 151t49.5 187t39 150q-4 15 -33 27.5t-33 31.5q13 42 92 53q30 79 68 235t55 214q2 7 14.5 43t24 75.5t19.5 75.5q0 -2 -2 -2q-5 0 -5 6v5q9 6 13 18.5t7 35t5 32.5l14 14q2 7 19 80.5t26 107.5q5 17 19 60t20 67q-21 15 -53 15 q-16 0 -51 -3.5t-53 -3.5h-78q-37 0 -139 -12q-32 -4 -94 -10t-101 -10.5t-83.5 -15t-70.5 -25.5q-18 -8 -68.5 -23.5t-74.5 -29.5q-17 -11 -26.5 -22.5t-14.5 -28.5t-6.5 -30t-3.5 -42h-4q-5 0 -23 13.5t-37.5 44.5t-19.5 67q0 12 3 21t7.5 14t15.5 16q21 24 56.5 42 t61 26.5t96.5 27t104 27.5q6 1 18.5 6t18.5 6q5 0 18 -4t19 -4q5 0 13.5 6.5t14.5 7.5q143 12 156 14v-2q0 -6 4 -6h2q83 16 229 19.5t195 9.5q12 5 16 14.5t5.5 28t5.5 31.5q1 1 4.5 1t6 1.5t3.5 5.5q4 22 16 67t17 45h6q1 6 20 15q2 -1 18.5 -8t22 -10t18.5 -11 t18.5 -14.5t10.5 -17t5 -21.5q0 -6 -5 -21z" />
<glyph unicode="G" horiz-adv-x="2435" d="M2470 565h4q8 0 8 -4q0 -6 -18 -23.5t-29 -25.5q-8 -5 -24.5 -8t-20.5 -8q-6 -4 -30.5 -30t-45.5 -32q-11 -3 -21.5 -21t-15.5 -22q-6 -2 -33 -12.5t-44 -16.5q-2 -4 -4.5 -11t-4.5 -11h-6q-9 0 -21 -5t-20 -5t-12 2q-18 -3 -18 -27v-10h-19q-15 0 -27.5 -5t-18 -9.5 t-5.5 -6.5t1 -5t1 -5q0 -3 -8 -14q-3 0 -7 1t-6 1q-12 0 -18 -10.5t-16 -10.5q-9 0 -13 2q-7 -7 -20.5 -13.5t-20.5 -20.5q-5 0 -17.5 10t-16.5 10v-2q0 -5 2 -17l2 -12q0 -4 -7.5 -10t-20 -12.5t-23.5 -11.5t-21.5 -9.5t-11.5 -5.5l-37 -22q2 2 2 4h-2q-6 0 -28.5 -10 t-24.5 -13l-60 -28l-2 -37q-9 -5 -10.5 -32t-11.5 -28q-7 -36 -15.5 -58t-31.5 -50v-17q0 -32 -15 -63t-37 -41q0 -7 3 -17.5t3 -17.5q0 5 -6 -5q-18 -31 -24 -32q-1 0 -3 1t-3 1q-2 -16 -14.5 -41.5t-12.5 -35.5v-3q0 -10 -3.5 -15t-11 -8.5t-10.5 -6.5q-3 -7 -6 -20 t-4 -17q-34 -34 -43 -49q-4 -7 -13 -30.5t-16 -31.5q-35 -35 -40 -47q-5 -10 -9.5 -33.5t-19 -42.5t-53.5 -38q-2 -2 -8.5 -3.5t-8.5 -3.5q-20 -19 -64 -64.5t-67 -68.5q-11 -10 -36.5 -27t-35.5 -26q-5 -6 -18.5 -13t-24.5 -17.5t-16 -30.5q-2 -1 -17.5 -3t-21.5 -8 l-102 -61q-13 -7 -45.5 -20t-53.5 -26t-38 -32q-19 -5 -65.5 -21t-85 -25t-75.5 -9q-18 0 -54 7t-56 7q-28 16 -57 55t-29 54q0 8 6 23t8 22q1 6 1.5 26t2.5 31q2 5 12.5 11.5t10.5 9.5t-2 7.5t-2 6.5q0 6 8 7t10 3q3 7 3.5 20t2.5 17q2 1 12.5 5t12.5 7q7 47 32 62l97 121 l14 16q13 17 25 24l16 25q1 2 7.5 3.5t6.5 4.5l-2 8v3q119 119 154 131q2 2 15 14t22 18l41 41l45 33q18 24 67 45q3 8 7 8q1 0 8 -4t14 -4h6q62 68 133 94q15 17 51 38t50 38q-30 -9 -77 -40.5t-73 -41.5q10 4 18 10.5t16.5 17t14.5 15.5q3 2 17.5 4.5t19.5 5.5q3 3 7.5 14 t6.5 13l25 2l37 31q7 5 29 12.5t32 13.5q33 38 232 132q8 4 10 4h4q14 11 31 18l-2 2q22 14 33 22t17.5 19.5t7.5 16.5t3 26.5t4 34.5v12v21q2 10 9.5 18.5t7.5 15.5q0 6 -4 14t-4 13q0 6 9 60.5t9 76.5q0 16 -12.5 50t-14.5 42q-2 7 -5 23t-6.5 29.5t-8.5 23.5 q-25 -8 -36 -46t-15.5 -92t-10.5 -73q-3 -6 -15 -22t-23.5 -28.5t-12.5 -12.5q-26 7 -41.5 42t-15.5 85q0 71 29 170q-6 0 -17.5 1t-17.5 1q-56 0 -164 -37t-139 -43q-14 -14 -15 -14q-18 -9 -53.5 -21t-48.5 -18q-16 -6 -46 -24t-46 -25q-8 -3 -23.5 -8t-25 -8t-20.5 -11 t-17 -19q-58 -4 -185 -81l-47 -21q-6 -3 -24 -7.5t-27 -8.5q-12 -5 -40 -21t-46 -24q-12 -7 -42 -18.5t-46 -22.5q-4 0 -6 -6l-2 -7l-123 -55q-48 -14 -51 -16q-10 -5 -36.5 -24t-41.5 -23q-12 -4 -46.5 -8.5t-51.5 -12.5q-70 -29 -127 -29q-110 0 -189 89v10q0 28 -6 48.5 t-6 22.5l12 33q0 2 -2 2t-4 1.5t-2 4.5q0 12 13.5 28t13.5 24v22v6l14 23q10 52 16 63q8 21 28 55.5t26 47.5q7 13 22 43.5t23 45.5t20.5 37t23.5 38.5t23 29.5q8 35 30 66.5t50 64.5t41 60q0 1 6 4t6 4q9 22 33.5 48.5t32.5 39.5l41 47q15 18 60 80t80.5 100t78.5 68 q2 5 4 12.5t4 13t6 7.5q27 27 60 65q14 15 47 39.5t53.5 45.5t20.5 40q23 7 71.5 46.5t48.5 47.5q0 1 -4 8t-4 13q0 8 2 10q8 0 16 -4t11 -4q4 0 12 8q32 29 89 62t103.5 66t73.5 75q4 2 11 2q6 0 11 -11.5t9 -13.5q9 13 28 30.5t25 29.5q4 -2 9 -2q3 0 9 7t19 7 q5 0 16.5 -3t16.5 -3q3 0 5 1.5t3 3.5t1.5 4t0.5 4v1q6 5 16 5.5t15 6.5q3 2 6 8.5t8 6.5h19q2 0 5 7l3 7q8 5 19 7.5t29 4.5t28 4q13 2 35.5 13t35.5 12q64 8 93 8q3 0 17.5 -9t23.5 -9q3 0 9 2t11 2q62 0 138 -77t79 -167q-2 -2 -2 -6t9.5 -7t11.5 -9q16 -122 16 -219 q0 -196 -43.5 -380t-120.5 -401q7 -22 22 -38t31.5 -27.5t32 -27.5t25.5 -47.5t10 -78.5q0 -6 -2 -22t-2 -25v-8q0 -5 -1 -15t-1 -14q0 -11 4 -31t4 -24q0 -9 -4 -22t-4 -29q0 -1 1 -22.5t1 -29.5q0 -5 -6 -23.5t-6 -23.5q3 3 25.5 14t27.5 13q6 -2 12 -2h2l-2 2q0 9 57 29 l24 11q24 12 55 31t46 35q7 0 16 -4t15 -4q3 0 8.5 7.5t12 16.5t8.5 11q19 0 43 18.5t45 18.5h8q12 5 16 33q4 -2 11 -2q10 0 26.5 11t26.5 11q64 60 102 60h6l2.5 5l2 4t1.5 3.5t2.5 4l3.5 3.5t5 4t7 5t9 6.5t12 7.5q4 3 8.5 3.5t8.5 4.5q0 4 5 6.5t11 3.5t14.5 2.5 t12.5 3.5q4 3 9.5 14.5t8.5 12.5q7 4 34 5.5t36 12.5zM1452 721h2h12q6 -1 26.5 55.5t44 132t26.5 82.5q3 8 14.5 32.5t11.5 35.5q0 4 -2 10t-2 10q0 9 13.5 37t13.5 45q0 11 -2 19q4 7 13.5 22t17.5 29.5t12 30.5q0 59 6 92q0 3 7 39.5t7 54.5q0 2 -10 47v10.5t0.5 6t1.5 4 t3.5 5t4.5 9.5q-14 36 -23 103t-18 91l-10 20q-11 19 -20.5 35.5t-22 32t-20.5 15.5h-17q-3 0 -3.5 2.5t0 6t-0.5 5.5q-13 7 -68.5 15t-80.5 8q-7 0 -28 -15.5t-26 -15.5t-15 1t-15 1q-13 0 -45.5 -9t-42.5 -11q-8 -3 -58 -32.5t-80 -29.5q-2 -1 -16.5 -10.5t-18.5 -12 t-17 -10t-20.5 -11t-20 -8.5t-24 -8t-24.5 -5v-5q0 -6 -26.5 -28t-67 -45.5t-70.5 -28.5q-10 -19 -28.5 -39t-32 -31t-40.5 -30.5t-34 -24.5q-3 -3 -4 -11t-4 -9q-3 -4 -13.5 -7.5t-13.5 -7.5q-156 -137 -270 -270q-87 -91 -147.5 -165t-110.5 -161q-3 -6 -13 -6h-16 q-12 0 -12 -12q-47 -62 -92.5 -132.5t-63.5 -109.5q-4 -6 -16.5 -14t-14.5 -12q-5 -19 -38 -82q-52 -99 -77.5 -167t-25.5 -136q0 -44 10 -80q76 -41 123 -41q59 0 132.5 26t115.5 58q69 22 182 79.5t172 77.5q31 19 108.5 54t106.5 59q16 7 49.5 18t45.5 17q13 6 73 35 t80 38.5t71 33t81.5 35t73 27.5t81.5 27q52 6 56 7q8 3 24 13.5t23 12.5q11 3 59 12t72 21q4 35 6 37zM1454 -57l-6 -4q-29 -25 -45 -25h-6q-10 -8 -31 -12q-65 -48 -113 -66q-7 -4 -18.5 -16.5t-15.5 -12.5q-2 0 -7 1.5t-8 1.5l-2 -3q-18 -12 -63 -45.5t-66 -44.5 q-36 -26 -131 -90q0 3 -16 -15q-6 -7 -4 -7q-23 -18 -60 -43.5t-64.5 -46t-52.5 -43.5q-2 -2 -16.5 -19t-28.5 -24q-2 -2 -12.5 -9.5t-19 -14.5t-13.5 -13q-7 -8 -14.5 -22.5t-11.5 -20.5q-10 -12 -29.5 -31t-24.5 -27q-122 -122 -176 -249v-3q0 -5 7.5 -7.5t7.5 -8.5 q0 -4 -2 -10q-39 -59 -39 -139q24 -4 41 -4q68 0 160.5 28.5t123.5 59.5q9 3 33.5 10.5t40 13.5t27.5 14q178 117 286 220q8 3 15.5 11t12 14.5t5.5 6.5h6q6 0 6 17q54 52 117 131q167 215 287 559q0 4 6 23t6 22v2l-18 -10q-11 -11 -37 -25.5t-31 -19.5zM1305 -80l30 10 h-10q-15 0 -20 -10zM1559 57l-11 -6h2q1 1 4.5 3t4.5 3z" />
<glyph unicode="H" horiz-adv-x="2199" d="M1165 1958q-11 -59 -37.5 -122t-69.5 -147.5t-61 -125.5q-30 -55 -59 -118t-63 -144.5t-52 -120.5q-192 -442 -323 -791q31 -8 67 -8q26 0 72.5 5.5t65.5 6.5q193 21 278 21q6 0 17.5 -1t17.5 -1q153 12 182 12q11 0 37 -4t39 -4q9 0 25.5 3.5t23.5 4.5q31 -2 113 -11 t129 -10q14 42 44.5 133t54 159.5t48.5 131.5q55 107 78 168q23 63 74 168t78 168q8 18 40.5 84t45.5 101q21 66 61 126q2 9 2.5 27t1.5 28t8 18.5t21 8.5q19 0 35 -10t23.5 -20t19.5 -29q-6 -18 -15.5 -37t-23 -42.5t-19.5 -35.5q-174 -336 -307 -655q-6 -20 -30.5 -67 t-34.5 -76q-3 -11 -8.5 -40t-10.5 -42q-2 -6 -11 -18t-11 -15q-16 -23 -41 -117q-4 -9 -15 -31t-16.5 -37t-5.5 -28q0 -5 1 -15.5t1 -15.5q0 -14 -4.5 -25t-14.5 -25t-14 -21q-46 -156 -88 -398q-1 -9 -3 -31.5t-4 -37t-9.5 -31t-20.5 -25.5q-43 2 -43 58q0 19 2 39t6 42.5 t7 36.5t9.5 40t8.5 36q0 3 -2 13t-2 16v4q11 65 38.5 161t28.5 101q-77 14 -168 14q-301 -3 -532 -24q-277 -23 -393 -45q-12 -30 -37 -103q-40 -96 -84.5 -212.5t-59.5 -151.5q-3 -8 -6 -28t-6 -29q-3 -7 -11 -22t-11 -24q0 -1 -7 -19.5t-10.5 -25t-13.5 -16t-23 -10.5 q-24 5 -24 26t15 48.5t18 35.5q1 9 2 28t2 26q10 17 17 34.5t10 27t9 34t9 33.5q14 14 14 16q3 4 4 15.5t4 15.5q1 8 11 19.5t12 17.5q8 23 19.5 70.5t19.5 70.5q2 4 7.5 9.5t6.5 12.5q5 11 15.5 44.5t19.5 52.5q-46 0 -184.5 -13.5t-190.5 -13.5q-27 0 -51 19 q-3 1 -10.5 15t-14 27.5t-6.5 12.5q0 14 49 14q8 0 26.5 -1t27.5 -1q54 0 114.5 2.5t141.5 7t122 6.5q9 10 15.5 25t12.5 35t9 27q5 13 18.5 33.5t16.5 29.5q7 17 18.5 58.5t18.5 62.5q2 5 12.5 18t12.5 19q13 26 18.5 55.5t7.5 36.5q6 20 17 43.5t26 53.5t23 48 q3 6 21.5 56.5t33.5 74.5q8 13 23 59.5t22 61.5q6 17 22.5 46t22.5 46q9 21 172 389q3 6 16.5 32t18.5 38t13.5 34t12 41t3.5 38h-4q-17 0 -36 -19l-18 -18q1 1 -13.5 -7.5t-44 -26.5t-65.5 -40q-10 -6 -31.5 -15.5t-31.5 -15.5q-11 -6 -33.5 -23.5t-38.5 -25.5 q-20 0 -21.5 -9t-2.5 -9q-7 4 -11 4q-14 0 -69 -35t-62 -45q-15 0 -37 -10.5t-51.5 -28t-38.5 -22.5q-31 -20 -96 -54.5t-111.5 -59t-46.5 -26.5q0 -1 1.5 -4t1.5 -4q-1 -2 -29.5 -10.5t-28.5 -22.5q0 -5 -25.5 -11t-25.5 -25q-24 0 -42.5 -18.5t-33.5 -37t-28 -18.5 q-1 0 -4.5 1t-4.5 1q-3 0 -6 -11.5t-6 -13.5q-1 -1 -9 -1.5t-11 -2.5q-35 -39 -48 -59q2 -14 15 -23.5t27.5 -14t26 -14.5t11.5 -26t-20 -16q-9 0 -26.5 5.5t-20.5 6.5q-11 -2 -21 -2q-21 0 -53.5 26t-32.5 60q0 14 6 30.5t22 41.5t53.5 57.5t92.5 66.5q3 3 10.5 4t10.5 3 q1 0 8 5.5t15 10t14 4.5t10 -4q5 3 22.5 23t26.5 20q2 0 5.5 -1t4.5 -1v4v6l2 2q2 0 6 -1t5 -1h2q8 5 23 17t27 18t27 6q37 34 126.5 76t142.5 80q2 -2 8 -2q5 0 11 4t11 4q7 0 9 -2q12 14 51 31q8 5 33 22t37.5 25t35 18t43.5 14q4 6 9.5 11.5t10 9.5t12.5 9t12 7t14 7.5 t14 7.5q59 27 129.5 77.5t130.5 83.5q6 3 18.5 17t22.5 14q8 0 10 -2q8 27 32 49.5t48 22.5q30 0 47 -39z" />
<glyph unicode="I" horiz-adv-x="937" d="M922 1980q2 -2 2 -6q0 3 -12 -13q-41 -52 -40 -52h-8q-6 0 -6 -6q0 -2 3 -4.5t3 -4.5q0 -4 -5.5 -10t-6.5 -8q-51 -119 -90 -238q-7 -14 -23 -52.5t-16 -47.5v-12q0 -16 -13 -49.5t-14 -36.5q-64 -173 -186 -541q-1 -2 -6.5 -5.5t-5.5 -4.5q-3 -8 -8 -34.5t-12.5 -48.5 t-18.5 -30q-7 -9 -18.5 -55t-32.5 -64q2 -6 2 -18q0 -15 -13 -42t-14 -30q-3 -8 -6 -23t-8 -27t-17 -23q-4 -4 -7.5 -14t-6.5 -19.5t-8 -28t-8 -29.5q-9 -25 -37 -101t-46.5 -129.5t-33.5 -106.5q0 -2 -7 -26.5t-12 -44.5t-11.5 -50t-10 -59.5t-4.5 -55.5q0 -3 4 -7.5 t4 -6.5t-3 -5.5t-3 -5.5q1 -1 3 -2t6.5 -4.5t8.5 -6.5t8.5 -6t6.5 -5l2 -2q-12 -15 -29 -15q-38 0 -57 18.5t-19 49.5q0 9 2 27t2 26q0 9 -4 29q11 11 15 25.5t4 32.5t2 26q2 4 9 13.5t9 15.5q2 7 6.5 33t10 43.5t14.5 31.5q13 19 18.5 58.5t7.5 46.5q3 10 15.5 27.5 t15.5 23.5q5 18 14 61q4 9 14.5 27t14.5 27q2 3 2.5 15t3.5 17q1 3 8 12t9 13t3 16t3 17q1 10 9 26.5t11 28.5q4 16 27.5 65t23.5 74v8q18 13 31 61t39 60q-6 9 -6 19t5 21.5t12 24t10 19.5q2 5 4.5 20t5.5 23q1 5 6.5 11.5t5.5 11.5q0 2 -1 4.5t-1 3.5q0 16 9 39t23 50.5 t19 39.5q1 5 4.5 20.5t6.5 24.5q11 36 44 138t52 165q1 2 6.5 9t5.5 12q0 3 -1 10t-1 10q0 7 17.5 33.5t17.5 44.5q0 2 -1 5.5t-1 4.5q0 5 7 8t7 4q6 36 6 58q0 2 -4 10q31 48 31 113q0 10 -4 10q-15 0 -38.5 -19t-29.5 -36q-17 -6 -35 -15t-31.5 -16.5t-32.5 -19.5 t-29 -18.5t-30.5 -20.5t-27.5 -19q-4 -2 -13.5 -12.5t-13.5 -12.5q-72 -37 -98 -67q-94 -34 -168 -92q-3 -2 -21.5 -16.5t-31 -25t-32 -29.5t-31 -35t-20.5 -37.5t-9 -41.5q0 -17 14.5 -33t29.5 -27t15 -15v-4q67 0 160.5 -18t93.5 -40v-6q-36 1 -70.5 3.5t-74 10t-59.5 11 t-68.5 15t-59.5 13.5q-6 8 -20.5 24t-22 25.5t-14 26t-6.5 33.5q0 29 20 71q5 9 30 28.5t25 35.5q18 3 36 25.5t26 27.5q3 3 12.5 5t13.5 3q5 2 24 19t30 22q127 63 327 201q4 3 14 4.5t13 3.5q1 1 5 8.5t7 8.5q9 7 40 23.5t40 25.5q8 8 33 24t45.5 28.5t20.5 14.5v9 q0 3 3.5 4t8 1.5t6.5 2.5q4 3 19 19t30 22q14 96 88 96q43 0 62 -25z" />
<glyph unicode="J" horiz-adv-x="2281" d="M1509 188q-4 -3 -8.5 -16t-11.5 -14q4 -8 4 -15q0 -8 -13.5 -26t-13.5 -31h2q5 0 5 6q4 -4 4 -10q0 -11 -9 -24.5t-18 -16.5v-12q0 -16 -14 -71.5t-29 -55.5l-6 2q-1 0 1 -2t4.5 -5t2.5 -6q0 -10 -23.5 -61t-23.5 -92q-15 -10 -24 -50t-27 -48v-11q0 -21 -16.5 -47.5 t-16.5 -38.5q0 -10 2 -14q-11 -3 -18 -16.5t-7 -28.5q0 -10 2 -12q-6 0 -11.5 -9.5t-12.5 -9.5q-2 2 -4 2q10 -7 10 -14q0 -6 -12.5 -16.5t-14.5 -14.5q-2 -7 -2.5 -27.5t-3.5 -31.5q-2 -6 -16 -24.5t-14 -31.5q0 -8 2 -10q-16 -5 -28 -29.5t-17 -29.5q-10 -10 -33 -52 t-49.5 -73t-55.5 -31q-8 0 -10 2v-10q0 -13 -7 -30.5t-9 -26.5q-6 12 -11 12l-6 -19q-6 -18 -16 -18q-1 0 -4.5 1t-5.5 1t-3.5 -6t-4.5 -14t-7 -11q-4 2 -8 2q-5 0 -12 -4t-12 -4h-5q-11 -6 -22 -19.5t-16 -17.5q-3 -3 -8.5 -4.5t-10 -1.5t-7.5 -4t-3 -12h-6q-12 0 -33 -8 t-37 -8q-172 0 -172 270q0 15 4 55q1 6 8 19t7 18v25q0 13 1.5 26t3 22.5t7 24.5t8 22t10.5 25.5t10.5 23.5l13.5 27t13 27q2 6 6 25t8 26q0 2 3.5 3.5l7 3t4.5 2.5q26 63 82 141q4 5 14 14.5t14 14.5q5 6 12 18.5t11 17.5q5 7 22 21.5t23 24.5q7 15 24 33.5t29 19.5 q2 -2 6 -2q6 19 39.5 52t64 57t34.5 24h10q11 24 32.5 44t58.5 45t50 36q3 3 14.5 13.5t16.5 14t16.5 9t26.5 8.5q18 25 70 52.5t63 35.5q14 10 35.5 39.5t38.5 42.5l-2 8l-11 -6q-4 0 -4 6q0 3 6.5 11.5t8.5 8.5q4 -2 10 -6q-10 10 -10 21q0 10 5.5 27t17 45t16.5 40 q0 -2 -2 -2t-4.5 3t-2.5 6q0 2 2 2h13q3 0 5 29.5t11 29.5v14q0 6 6 13t8 16q-2 6 -2 16q0 27 13 50q7 14 18 16q-4 8 -4 20q0 37 20 39q2 28 9 60.5t18.5 73t15.5 59.5l7.5 30t9.5 37t14 43q3 12 9.5 50.5t16 71.5t25.5 57q0 2 -1 9t-1 11q1 25 19 85.5t20 70.5 q25 112 25 133q0 10 -2 16q20 23 20 39q0 7 -4.5 16t-9.5 9q-6 0 -16.5 -14.5t-16.5 -14.5q-1 0 -5.5 1t-6.5 1q-6 0 -12.5 -6.5t-8.5 -7.5q-1 -1 -21 -10.5t-22 -20.5q-2 2 -6 2t-10.5 -5t-9.5 -5q-2 0 -4 8q-8 -5 -29 -22t-39 -23v2q0 6 -4 6q-2 0 -2 -2v-10 q0 -3 -9.5 -4.5t-21 -2.5t-14.5 -3q-4 -1 -17.5 -13t-23.5 -12q-2 0 -10 4q-6 -10 -16 -16t-18 -8.5t-25 -6.5t-29 -8q-5 -1 -11 -7.5t-10 -6.5q-3 0 -8 1t-8 1q-13 0 -31 -13.5t-27 -13.5q-6 0 -10 2l-37 -22q-37 0 -45 8q-4 -3 -9 -15.5t-13 -15.5q-64 -4 -88 -28 q-36 0 -67 -17.5t-68 -17.5l2 4q0 2 -5.5 2t-10 2t-1.5 10q0 -22 -16 -22q-14 0 -29 22q-2 -8 -2 -16q0 -9 12 -18q-31 -20 -63 -32.5t-91.5 -30t-88.5 -26.5q-22 -7 -47.5 -17t-58 -22.5t-50.5 -19.5q-8 -3 -37 -13.5t-49 -19t-45 -22t-39 -27.5q-6 -3 -22.5 -4t-22.5 -4 q-8 -3 -22 -14.5t-23 -14.5q-7 -4 -28.5 -7t-30.5 -7q-142 -71 -250 -150q-2 -1 -17.5 -9t-21.5 -13q-10 -8 -41 -39t-53 -41q-4 -13 -25 -42t-21 -50q0 -3 3.5 -6.5t3.5 -5.5l-7 -34v-5q0 -6 3.5 -16t3.5 -15q0 -2 -7 -12q12 -8 22 -20.5t22 -33.5t16 -26q3 -9 29 -33.5 t28 -42.5q12 -6 54.5 -28t59.5 -30.5t56.5 -24.5t67.5 -23t69 -13t82 -6q36 0 56 2q3 0 8 -1t8 -1q6 0 9.5 7t4.5 7q5 0 16.5 -3t16.5 -3q11 0 32 11t23 12q11 3 32 3.5t28 2.5q41 14 110 51.5t97 75.5q40 20 84.5 57.5t70.5 81.5q11 20 39.5 56.5t48.5 64.5t37 74.5 t17 95.5v23q0 59 20 59q8 0 12 -12.5t7 -12.5h10l2 -4q0 -3 -2 -5.5t-4 -3.5l-2 -1q0 -6 4 -6q1 0 3 1t3 1q14 0 14 -51q0 -85 -40 -182t-79 -97q-3 -30 -36 -70t-68 -47q-72 -102 -178 -133q-6 -5 -14 -16.5t-9 -13.5q-4 2 -12 2q-14 0 -32 -16.5t-29 -16.5q-2 0 -6.5 5 t-6.5 5q-8 0 -16.5 -11t-11.5 -11q-8 0 -11 6q-8 -2 -16.5 -14t-13.5 -15q-99 -24 -207 -24q-101 0 -193 24q-8 2 -24.5 12t-18.5 11q-7 2 -31 7t-36.5 8.5t-29.5 9.5t-24.5 13t-7.5 15q2 2 2 4q-2 0 -3.5 -1t-2.5 -1q-7 0 -15.5 5t-15.5 5h-8q-13 34 -94 90q-8 4 -22.5 27 t-28.5 31q-4 22 -26.5 68t-22.5 95q0 16 7.5 53t18.5 58q2 3 11 7t12 7q23 46 65 84.5t111 85.5q9 5 28.5 19t42 28t48.5 27q10 5 33 13.5t40 17.5q7 3 21 15.5t22 12.5q3 0 9.5 -1t9.5 -1q5 0 10.5 8t9.5 11q13 6 50.5 25.5t54.5 25.5q8 3 29.5 6.5t36 10t22.5 20.5 q4 -2 10 -2q7 0 18.5 4t18.5 4h10q3 6 36.5 25.5t43.5 19.5q3 0 9 -1t10 -1q9 0 33 14t32 17q19 8 60.5 19t75.5 24t57 33q21 1 42.5 6.5t34 11.5t33.5 17t31 16q6 -4 20 -4q16 0 41 13t35 13h23q12 0 32.5 10.5t34.5 10.5h4q0 -6 -7 -11.5t-7 -11.5v-6q20 9 23 37 q7 -14 16 -14q6 0 6 12v10q6 -2 14 -2q31 0 54 31q2 -2 10 -2q6 0 13.5 4t8.5 4q8 0 11 -6q3 1 11 8.5t13 7.5q2 0 6 -1t7 -1q5 0 19 11.5t24 11.5t16 -8q0 7 10 13.5t20.5 10.5t25.5 8.5t18 5.5q4 0 5 2t1.5 6.5t1.5 6.5q4 -2 10 -2q10 0 21.5 7t15.5 7q6 0 12 -6 q8 11 23 22q24 -3 28 -14q7 0 7 4q0 2 -3.5 8t-3.5 9t7 10q8 -4 10 -4q6 0 8.5 8t3.5 8q7 5 62.5 27t70.5 49q12 -12 15 -12q19 0 39 26.5t36 26.5q9 0 21 -4v37q15 0 31 40.5t16 55.5q0 10 -2 14q34 34 37 96q6 12 22.5 46t23.5 48t23.5 43.5t27.5 44.5t30 37.5t36 36 t40.5 27t48.5 21.5h8q17 0 29 -18.5t28 -18.5q-4 -4 -4 -9q0 -1 3 -7.5t3 -12.5q0 -7 -10.5 -15.5t-11.5 -15.5q10 -21 10 -35q0 -8 -4 -8h-12q-5 0 -5 -16q0 -4 0.5 -9.5t1.5 -9t1 -4.5q-1 -2 -8 -3.5t-7 -4.5q0 -1 1 -4.5t1 -5.5t-8 -5t-8 -5q-1 -3 -6.5 -17.5t-11 -26 t-17 -25t-25.5 -19.5v-9q0 -12 -19.5 -39.5t-31.5 -27.5v-6q0 -6 -4 -13.5t-4 -13.5v-2h-6q-6 0 -11 -9t-12 -9q-4 0 -8 2q-2 -9 -3.5 -14t-4.5 -12t-6 -17q-11 0 -20.5 -14.5t-14.5 -14.5q-4 0 -10 6q0 -2 1 -5.5t1 -4.5q0 -12 -29.5 -58.5t-38.5 -80.5q-3 -8 -4 -28 t-4 -30q0 -2 -11 -24.5t-11 -40.5v-17h-5q-8 0 -8 -12v-14q0 -11 -2 -11h-12h-4v-20q0 -40 -13 -104t-30 -111q-1 -3 -4.5 -8.5t-7 -9.5t-3.5 -5q-5 -21 -5 -55t-3 -49q-2 -7 -15 -30.5t-13 -47.5q0 -2 1 -6.5t1 -5.5q0 -8 -9.5 -11.5t-9.5 -7.5q0 -3 4 -5.5t4 -4.5 q9 -10 -10.5 -48.5t-19.5 -47.5q0 -4 1 -13.5t1 -13.5q0 -13 -14.5 -34t-16.5 -27q-4 -13 -5.5 -37t-6 -40.5t-17.5 -25.5q0 -63 -30 -75q8 -8 8 -45q-14 -6 -17 -22t-14 -21q4 -6 4 -15q0 -10 -13 -33t-13 -26t3 -12t3 -15q0 -15 -19 -18q0 -7 2 -15t2 -10q0 -8 -4 -12 q20 1 69.5 26t53.5 27q55 18 55 23q0 2 -2 5.5t-2 4.5t1 3.5t4 4.5t8 2t20.5 -11t20.5 -11q8 0 8 10q0 5 -4 16t-4 15l14 7q15 7 39.5 15t44.5 8q5 0 8 -8t8 -8q8 0 8 6q0 2 -3 9t-3 10q0 2 4 2q6 0 15.5 -9.5t15.5 -9.5q11 0 17.5 7t9 15.5t15.5 15.5t36 7h29q18 0 18 2 q0 11 10 19t21 10.5t26 4.5t17 3q101 31 176 31q27 0 27 -8q-16 -13 -30.5 -21.5t-23.5 -12t-23.5 -8t-21.5 -7.5q-68 -29 -188 -64t-131 -39q-174 -57 -402 -203zM2005 1939q6 -6 6 -14q0 -5 -7 -17.5t-7 -25.5q0 -12 14 -12q10 0 15 7.5t6.5 19t3.5 14.5q1 3 15.5 18.5 t14.5 26.5q0 1 -1 3t-1 3q49 36 60 98h-6q-18 0 -52 -43.5t-38 -77.5h-23zM1399 92q2 5 15 6.5t13 7.5q-5 3 -15 5t-19 10q-8 -2 -24 -15.5t-23 -13.5q-3 0 -8.5 1t-8.5 1q-4 0 -4 -4v-12q0 -4 -8 -5.5t-17.5 -1.5t-11.5 -1t-4 -8t-4 -7q-5 -3 -14.5 -4t-14.5 -4 q-1 -1 -3.5 -7t-4.5 -7q-2 0 -7 4t-7 4q2 0 -3 -7.5t-11.5 -15.5t-8.5 -8q-9 -2 -13 -4.5t-5 -4.5t-3.5 -5.5t-6.5 -7.5q-3 -2 -11.5 -3t-11.5 -3q-14 -10 -34.5 -34.5t-30.5 -33.5q-2 -2 -11.5 -3.5t-11.5 -4.5q-3 -1 -9 -12t-9 -11q-7 2 -11 2q-45 -45 -47 -45 q-10 -7 -24 -26t-21 -25q-1 -2 -10.5 -4.5t-9.5 -5.5v-10q0 -9 -21.5 -24t-23.5 -24q-23 -6 -39 -27.5t-28.5 -48t-20.5 -34.5q-3 -3 -4.5 -11.5t-4.5 -11.5q-4 -5 -17 -16t-13 -18q0 -2 1 -7.5t1 -7.5q0 -3 -7 -8.5t-8 -7.5q-12 -18 -18.5 -33.5t-20.5 -34.5 q-6 -13 -25.5 -65t-39.5 -82q2 -8 2 -21q0 -20 -12 -68.5t-13 -74.5q0 -4 4 -10t5 -11q2 -20 2 -53q0 -149 125 -149q20 0 54 23.5t54 29.5q1 3 7.5 13.5t8.5 14t8.5 11t11.5 10.5t13.5 6.5t18.5 3.5v4q0 11 -8 19q19 0 30 15t15.5 29.5t7.5 14.5q2 0 5 -1t5 -1q6 0 6 6 q0 1 -1 4.5t-1 4.5q0 3 5 6t11 6t7 4q2 3 2.5 11.5t3.5 10.5q2 3 12 5t10 10q0 1 -1 3t-1 3q0 7 19.5 31.5t19.5 44.5q19 7 29.5 29t19.5 45t25 30q2 29 19.5 63t17.5 56v14q11 -8 18 -8t13 4.5t6 7.5q0 7 -9 7q-2 0 -12 -5q0 14 14.5 23t14.5 20q0 6 -8.5 11t-8.5 12 q0 13 18.5 23.5t18.5 15.5q0 3 -6 6q0 -2 -4 -2t-4 2q2 9 11.5 19t10.5 12q-4 4 -4 8q0 1 4 29q5 0 10 -4t7 -5q-4 6 -4 19q0 11 11 36t11 38q0 4 -4 12h4q9 0 21 34t12 48v14q16 19 31 29q-6 3 -6 6t1 8t1 8q0 11 -4 15q3 1 7 8.5t11 7.5h2q1 29 15.5 63t15.5 70z" />
<glyph unicode="K" horiz-adv-x="2025" d="M1032 2099q-7 -21 -41.5 -41t-42.5 -28q-7 -6 -13.5 -16.5t-14.5 -25t-11 -20.5q-49 -73 -86 -162q-2 -4 -2.5 -18t-3.5 -21q-2 -7 -12 -16.5t-12 -13.5q-32 -111 -84 -256q-36 -98 -102.5 -306t-90.5 -280q22 0 63 15t46 16q537 185 864 340q42 20 146 77.5t200 106.5 q4 3 16.5 14t22.5 17q60 33 100 63q3 2 11.5 3t11.5 3q5 4 18.5 19t20.5 22q3 2 10.5 16t18.5 24.5t26 10.5q14 0 32.5 -16.5t18.5 -32.5q0 -26 -28 -82q-9 -12 -23.5 -22.5t-35 -22t-27.5 -16.5q-3 -2 -5.5 -8t-5.5 -6h-10q-3 0 -13.5 -8t-13.5 -9q-40 -22 -92.5 -48.5 t-122.5 -61.5t-114 -58q-9 -4 -24 -15.5t-23 -14.5q-8 -4 -27 -8.5t-27 -8.5q-2 -1 -3.5 -4.5t-2.5 -6.5t-2 -3q-6 -4 -19 -4.5t-20 -3.5q-4 -2 -20.5 -11t-24.5 -12q-27 -13 -54 -25t-58 -25t-53.5 -22.5t-59.5 -24t-54 -21t-60 -22.5t-55 -20.5t-60 -22t-56 -20.5 q-7 -2 -23.5 -10t-23.5 -10q-11 -4 -38 -10.5t-46 -14.5q-5 -2 -12 -8t-12 -8q-86 -31 -101 -39q-7 -4 -79 -24.5t-89 -43.5q0 -12 2.5 -23.5t8.5 -24t10 -20t12.5 -21.5t11.5 -19q16 -28 41.5 -76.5t36.5 -68.5q1 -4 11.5 -9.5t11.5 -9.5q3 -6 4.5 -16.5t3.5 -14.5 q5 -8 18.5 -26.5t22 -33.5t12.5 -32q35 -26 86 -75t99.5 -87.5t101.5 -60.5q4 -13 13.5 -21t26 -14.5t21.5 -9.5q63 -43 170 -92q10 -4 34.5 -10.5t41.5 -14.5q6 -2 16 -11t15 -11q25 -9 76.5 -22.5t76.5 -22.5q11 -4 34.5 -17t37.5 -16q179 -47 453 -47q33 0 92 6t78 6 q25 0 47 -12q-10 -31 -59.5 -49.5t-104.5 -18.5q-1 0 -9 3t-12 3q-14 0 -74.5 -4t-97.5 -4q-24 0 -46.5 2.5t-58 8.5t-46.5 8q-12 1 -34.5 1t-40.5 1t-34 4q-12 2 -50 16t-58 14q-3 0 -11.5 -1t-11.5 -1q-8 0 -12.5 8t-11.5 9q-7 3 -26 5t-26 5q-4 0 -10.5 6t-13.5 8 q-57 14 -162 62q-15 7 -52 22.5t-60 25.5t-51.5 24.5t-45.5 27.5l-8 11q-9 10 -14 12q-12 7 -36.5 15.5t-33.5 14.5q-2 2 -4 9.5t-6 7.5h-12h-3q0 2 1.5 5.5t1.5 4.5q0 6 -5 6q-2 0 -5.5 -1t-4.5 -1q-3 0 -8.5 11t-9.5 14q-2 2 -10 3.5t-11 4.5q-5 2 -9.5 11t-6.5 11 q-3 2 -12 4t-13 5q-73 59 -161 161q-37 43 -70.5 98t-69.5 122.5t-59 103.5q-9 -8 -15.5 -17.5t-11.5 -22.5t-7.5 -21.5t-6.5 -25t-6 -22.5q-9 -28 -40.5 -127.5t-55.5 -182.5t-44 -167l2 -5q1 -5 1 -9q0 -11 -19 -72q-1 -5 -6.5 -11t-7.5 -11q-3 -16 -9 -57t-14.5 -78 t-23.5 -72q-3 -9 -7.5 -53.5t-14 -77.5t-25.5 -33q-35 0 -47.5 14t-12.5 41q0 20 11 56t12 43q2 16 9 71t13 82q5 26 20.5 73.5t20.5 67.5q24 111 51 216q2 5 6.5 12.5t7.5 13.5t3 12q0 3 -1 11t-1 12t2 8q18 65 65.5 198t65.5 204q3 12 4 35t4 34q5 21 23 60.5t24 56.5 q189 579 199 608q4 11 8 34.5t8 33.5q1 4 7.5 11.5t7.5 12.5q8 20 23.5 72.5t23.5 75.5q-13 0 -25 -6.5t-25.5 -18t-19.5 -14.5q-2 -2 -11 -4t-12 -4q-2 -1 -4 -7.5t-4 -7.5q-16 -11 -50 -32t-50 -31q-6 -4 -29.5 -14.5t-32.5 -22.5q-19 -9 -37 -19.5t-44 -27.5t-50 -31 q-5 -3 -19 -14.5t-27 -18t-29 -6.5q-13 -34 -56 -47q-12 0 -15 -19.5t-15 -19.5h-4q-9 0 -16 -13.5t-11 -16.5q-4 -2 -16 -3.5t-15 -3.5q-2 -2 -5 -9t-7 -7h-8q-9 0 -27 -12t-39 -28t-31 -21q-8 -5 -35 -17t-40 -22q-2 -1 -3.5 -4.5l-3 -7t-2.5 -3.5q-1 -1 -17.5 -8.5 t-26 -12.5t-27 -14t-28.5 -16.5t-22.5 -16t-17.5 -17t-6 -15.5q0 -28 38.5 -54t84.5 -42.5t84.5 -40t38.5 -47.5q0 -4 -29 -4q-68 0 -141 34q-3 1 -6.5 9t-16.5 8q-15 0 -25.5 8t-23 22t-22.5 21q-4 4 -15.5 8t-15.5 6q-16 16 -28.5 45t-12.5 58q0 36 10 61q9 14 31 27 t57 30t53 27q14 8 70 42.5t84 49.5q93 50 123 70q14 10 52.5 38.5t66 45.5t51.5 24l-2 -2l8 -4q4 0 14.5 7.5t23 17t17.5 12.5q3 2 12 4t13 4q1 1 2.5 8.5t3.5 8.5q6 3 19.5 7t19.5 7q12 7 42 26.5t53.5 35.5t25.5 16q1 0 5.5 -1t6.5 -1q8 0 19.5 8.5t25.5 21t23 17.5 q2 2 10.5 4t11.5 4q2 1 4 8t4 9q4 3 18.5 6.5t20.5 7.5q3 2 20.5 15.5t39 26.5t41.5 19q11 26 53 101q4 8 15 32t20.5 40.5t19.5 27.5q6 7 16.5 16.5t38 26t48.5 16.5q46 0 65 -51z" />
<glyph unicode="L" horiz-adv-x="2500" d="M1460 1020q-8 -2 -20 -2q-25 0 -41 25t-21.5 57t-15 67.5t-23.5 49.5q-11 12 -25 58t-32 62q-2 2 -13 26t-20 32q-3 3 -8 14.5t-11.5 26.5t-10.5 22q-14 18 -35.5 46.5t-37.5 47.5t-42 45q-24 47 -41 56q-3 5 -16.5 10t-16.5 8q-3 2 -7 11t-7 12q-5 5 -59.5 44.5 t-77.5 69.5q-21 3 -65 22.5t-90.5 40t-131 37.5t-180.5 17q-134 0 -199 -37q-16 -7 -43.5 -29.5t-44.5 -29.5v-6q0 -15 -12 -15h-4q-11 -60 -11 -92q0 -139 121 -379q7 -22 19 -29t14 -12q4 -3 14.5 -25t23 -52t19.5 -43q2 -2 6.5 -3.5t8.5 -2.5t4 -3t-1 -6t-1 -6q0 -4 6 -4 h8q2 0 2 -4v-12q0 -3 24.5 -22.5t24.5 -27.5v-14q0 -3 8 -7.5t18.5 -11t14.5 -14.5q44 -74 176 -180q13 -11 44.5 -38t47.5 -39t49.5 -34.5t64.5 -36t79.5 -30.5t105.5 -31q152 -41 273 -41q89 0 248 31q23 7 48.5 28t38 34.5t40.5 46.5q5 4 17 11t17 11q3 4 10.5 19.5 t13 24t18.5 18t30 12.5q8 23 23 42.5t40.5 44t34.5 34.5q15 17 52 61t70 81t79 83q3 4 4.5 14t5.5 13q4 6 28.5 28t33.5 35q6 7 10 19.5t6 15.5q9 8 42 34.5t50 45.5q2 1 8 16.5t9 15.5h8q6 0 6 5q0 1 -1 4.5t-1 5.5q0 1 11.5 8t22.5 16t11 13q0 1 -1 5t-1 5q0 2 2 2 q1 0 4.5 -1t5.5 -1q3 0 27.5 27t57 60t82 60t95.5 27q38 0 64 -26.5t27 -80.5q0 -24 -9.5 -74t-23.5 -81q-5 -10 -26.5 -40.5t-29.5 -45.5q-2 -4 -11 -5t-9 -5q0 -3 2 -9.5t2 -9.5q0 -5 -4.5 -10.5t-12.5 -11t-10 -7.5q-3 -5 -15 -24.5t-19 -29.5t-19 -26t-24.5 -28.5 t-26.5 -22.5q-9 -7 -26 -34t-29 -37q-5 -5 -23.5 -20t-19.5 -15q-2 0 -6 1t-7 1q-4 0 -4 -4q2 -6 2 -10q0 -3 -3 -4.5t-6.5 -2t-8 -1.5t-6.5 -3q-14 -12 -37.5 -37t-26.5 -28q-4 -4 -14.5 -5t-11.5 -1q-5 -4 -49 -48.5t-74 -56.5q-11 -6 -29 -13t-32.5 -15t-26.5 -23 q-9 -8 -29 -17t-27 -14q-27 -19 -56.5 -33.5t-77.5 -34t-76 -32.5q-42 -11 -84.5 -33.5t-66 -40.5t-69.5 -55q-5 -4 -32 -22t-33 -25q-45 -49 -170 -129q-1 -1 -6.5 -12.5t-10.5 -14.5q-16 -7 -63 -42.5t-98 -67.5q-87 -59 -234 -131q-4 -2 -13 -13.5t-13 -13.5 q-6 -2 -28.5 -5t-37 -10t-20.5 -22q9 -8 19.5 -14.5t25.5 -12t22.5 -8t27.5 -8t25 -6.5q294 -100 563.5 -159t553.5 -66h50t50.5 -1t48.5 -8t45 -20q-6 -16 -46.5 -23.5t-72.5 -7.5q-5 0 -14.5 4t-15.5 4q-17 -8 -29 -8q-7 0 -16 4t-17 4q-99 -6 -129 -6q-190 0 -428 58 q-374 78 -663 184q-18 7 -45 19.5t-46 20t-32 7.5q-9 -1 -21 -4.5t-28 -9t-25 -8.5q-85 -31 -184 -60q-13 -2 -44.5 -6.5t-59.5 -10t-52 -12.5q-36 -18 -76 -18q-6 0 -18 4t-19 4q-20 -2 -57 -2q-72 0 -154 23t-120 43q-2 2 -33 19.5t-53 35t-37 37.5q-2 2 -3.5 9t-7.5 7 q-4 -2 -6 -2l-2 6q0 4 1 11t1 10q2 4 -2 4h-12q-2 0 -2 4q0 2 1 6.5t1 5.5v4q-3 6 -12 18t-13.5 20t-9 27t-4.5 44q0 22 14.5 48t42.5 52.5t81 44t120 17.5q47 0 94 -15q1 0 3 1t3 1q7 0 18 -8t17 -8q8 0 8 4q0 2 -2 2q15 -3 29.5 -11.5t22.5 -10.5t34 -6t43 -11.5t27 -23.5 q18 0 36.5 -5.5t40 -15.5t32.5 -14q20 0 48 -17.5t40 -21.5q9 -4 31.5 -11.5t31.5 -11.5q11 -5 49 -23t62 -28.5t56.5 -24.5t54.5 -21t34 -7q44 0 84 33q1 0 13.5 1t19.5 5q10 5 26.5 18.5t22.5 16.5q11 5 31 11.5t26 8.5q3 2 20.5 15t29.5 18q4 3 14 4t14 4q6 3 11.5 13 t7.5 12q10 6 29 13t28 13q15 8 39 27.5t47 34.5q5 4 18 5t17 5q1 0 2 3t2.5 6.5t3.5 4.5q13 10 81 61t110.5 87.5t74.5 73.5q-7 10 -28 10q-16 0 -57.5 -4t-80.5 -4q-45 0 -92 6q-124 22 -226.5 56.5t-192.5 87t-164 110t-164 141.5q-12 16 -35 44.5t-29 35.5t-30.5 33 t-34.5 43q-124 176 -203 362q-3 9 -23.5 63.5t-27.5 78t-16 72t-9 93.5q0 76 62 131q4 5 20 13t21 12q25 18 38.5 23t29.5 5.5t30 4.5q10 2 33.5 15t50.5 13q16 0 36.5 -1t22.5 -1h43q133 0 266 -34q15 -6 65 -21.5t73 -28.5q2 -1 4.5 -8t3.5 -8q5 -2 45 -12.5t82.5 -35 t91.5 -73.5q13 0 15.5 -14.5t9.5 -18.5q5 -4 20 -7t21 -7q19 -19 52 -62t60 -69q2 -3 9.5 -5.5t7.5 -4.5v-10v-5q51 -65 71 -106q20 -19 24.5 -35t8.5 -20q2 -5 13 -11.5t14 -11.5q3 -9 3.5 -20t2.5 -15q0 -1 7 -3.5t7 -8.5q0 -3 -1 -7.5t-1 -6.5q0 -3 9 -7.5t9 -7.5 q2 -5 5.5 -20.5t9.5 -27t18 -15.5q2 -42 23.5 -98t21.5 -86q0 -9 -4 -29zM2472 1516q-1 0 -5 1t-5 1t-5 -6t-12.5 -16.5t-21.5 -18.5q-4 -4 -30.5 -39t-54.5 -61.5t-59 -39.5q-8 -2 -18 -20t-14 -21q-6 -5 -18 -12t-20.5 -13.5t-10.5 -13.5q-10 -7 -15.5 -16t-9 -22 t-6.5 -19q-19 -27 -66 -75t-65 -78q-37 -16 -56.5 -38t-23.5 -59q-3 -2 -14.5 -8.5t-22 -13t-22 -13.5t-18.5 -13.5t-7 -10.5q0 -1 1 -4.5t1 -5.5q0 -7 -6 -7q-1 0 -4 1.5t-4 1.5q-2 0 -3 -6t-2.5 -12.5t-3.5 -8.5q-3 -3 -10.5 -3t-12.5 -2t-5 -11q0 -2 1 -6t1 -5 q0 -10 -8 -10q-20 -7 -38 -24.5t-25 -28.5t-25 -39h10q14 0 34.5 15.5t26.5 17.5q14 4 32 9t26 7q6 1 10 8l4 8q81 43 139 82q150 100 257.5 195t197.5 217q37 52 59 87.5t42 90t20 105.5v18q-17 -1 -34.5 -8.5t-27 -14t-28.5 -22t-25 -20.5zM27 219q-1 0 -4.5 1t-4.5 1 l-4 -2q-8 0 -20 10q-18 9 -80 24q-46 11 -76 11q-23 0 -135 -35q-25 -17 -35 -20q-1 -5 -6.5 -35.5t-5.5 -46.5q0 -19 6.5 -34.5t13 -24t21 -22.5t20.5 -21q8 -9 12 -18t10.5 -13.5t29.5 -16.5q12 -11 50.5 -32.5t51.5 -24.5q77 -18 188 -18q24 0 51 2t46.5 4t48.5 6.5t42 7 t43.5 8.5t37.5 7q10 2 52 10t63 13t48 16.5t39 25.5q-20 9 -91.5 41.5t-108.5 49.5t-97.5 43.5t-110.5 46.5t-95 36z" />
<glyph unicode="M" horiz-adv-x="2729" d="M291 475h6q8 0 20.5 16.5t30 45t27.5 41.5q1 1 8 9.5t9 10.5t9 10t9.5 11.5t8.5 11.5t9 12.5t7.5 12t7.5 13.5l6.5 13t5.5 14q3 4 16 16.5t22 27.5t9 32q15 6 23.5 18t16.5 32.5t13 29.5l7 2q7 2 7 6v10q0 3 10 10t22 14.5t15 10.5q49 38 119 148q46 34 86 77 q6 6 17.5 26.5t35.5 45.5q3 2 6 8.5t5 6.5h10h4q16 16 46.5 54.5t59 67.5t58.5 43q1 12 8 24t13 18t22 18t20 16q57 62 107 80q12 6 27.5 29t27.5 32q5 4 24 15t33.5 21t14.5 14q0 2 -1 5.5t-1 4.5q0 5 63 43q8 5 37.5 27t56 32.5t64.5 10.5q93 0 125 -58l-1 -5q-1 -5 -1 -9 t5.5 -7t11 -15t5.5 -38q0 -28 -4.5 -54t-14 -58t-11.5 -39q-3 -13 -7.5 -43t-7.5 -43t-16 -38t-16 -40q-3 -13 -7.5 -41t-7.5 -41q-5 -15 -15.5 -40.5t-14.5 -39.5q-81 -242 -125 -399q-8 -28 -28 -80t-28 -76q-2 -9 -40 -137t-46 -199q34 5 78 39q2 2 3.5 6t3 7.5t3.5 3.5 t5.5 -1t5.5 -1q5 0 11.5 10t12.5 22.5t10 16.5t19 14t20 17q7 8 17.5 25t15.5 24q4 4 18 12.5t19 15.5q7 8 17.5 25t13.5 22q2 2 11.5 6.5t12.5 10.5q2 3 2.5 11t3.5 11q11 12 39 37.5t41 42.5q2 3 13.5 24t45 67t97.5 124q2 4 11 9t11 8q1 3 3.5 12t5.5 12q8 9 24.5 29 t20.5 24q8 8 24 32t28.5 43.5t14.5 19.5h11q-1 0 25 45t56.5 90t38.5 45h13q4 0 4 2q0 1 -1 4t-1 4q0 2 2 4q92 134 185 232.5t204 165.5q14 -6 38 -11t38 -9t25 -21t11 -48q0 -46 -12 -97t-25.5 -85t-38.5 -93t-36 -87q-4 -8 -9.5 -26.5t-9.5 -26.5q-1 -2 -7.5 -6.5 t-6.5 -8.5v-8q0 -5 -7.5 -14.5t-8.5 -11.5q-4 -9 -8.5 -31.5t-8.5 -32.5q-1 -3 -6.5 -9.5t-7.5 -10.5q-92 -232 -117 -297q-26 -66 -82.5 -206t-95.5 -244.5t-74 -215.5q-7 -24 -12.5 -71t-7.5 -60q-3 -14 -9.5 -40t-10 -46.5t-3.5 -38.5q0 -84 21 -141.5t71 -100.5 q48 3 90 20t85.5 41t76.5 34q12 3 23 21.5t22 23.5q30 2 78 29.5t66 27.5q12 0 12 -6l-45 -60q-3 -2 -19 -5.5t-22 -6.5q-5 -4 -12.5 -17t-11.5 -16q-7 -5 -29.5 -14.5t-41 -18.5t-20.5 -14q-6 -4 -32 -39h-7q-18 0 -61.5 -23.5t-50.5 -23.5q-3 0 -9.5 1t-9.5 1 q-13 0 -30 -7t-25 -7q-50 0 -96 31q-1 1 -3.5 7t-4.5 7q-40 16 -75.5 83t-35.5 142q0 62 16 164q3 14 4.5 39.5t4.5 38.5q3 17 19 46.5t20 45.5q16 83 69.5 245.5t116.5 270.5q17 29 45 106.5t41 104.5q4 7 16.5 26.5t14.5 28.5q3 15 3.5 38.5t2.5 31.5q3 6 17 25t18 30 q5 17 16 70q9 4 14 13t9.5 22t7.5 18q1 3 7.5 5t6.5 6q0 2 -1 5.5t-1 4.5l21 39q22 38 22 61q0 3 -1 11t-1 12q0 8 7 17.5t7 10.5q2 7 4.5 20.5t4.5 20.5q4 14 21 56.5t29 81.5t15 73q-6 2 -12 2q-12 0 -23.5 -7t-25 -19.5t-19.5 -16.5q-122 -94 -305 -364q-1 -6 -11 -11 t-12 -8q-7 -9 -16.5 -28t-13.5 -25q-5 -7 -19.5 -19t-19.5 -22q-9 -11 -23 -37t-24 -39q-2 -2 -6 -3.5t-7.5 -2.5t-3.5 -2q-5 -13 -15 -30t-28 -41l-30 -40t-38.5 -48.5t-35.5 -43.5q-2 -3 -6.5 -14t-9.5 -16q-2 -2 -17 -14.5t-22 -26.5q-24 -40 -75.5 -102.5t-90.5 -100.5 q-3 -3 -8 -14.5t-9.5 -21t-7.5 -9.5h-8q-9 0 -17 -23.5t-12 -23.5h-10q-4 0 -11.5 -6.5t-17.5 -17.5t-19 -21.5t-19.5 -23t-14.5 -17.5q-9 -9 -29.5 -32.5t-34 -37t-33.5 -30.5t-40.5 -25t-42.5 -8t-33.5 4.5t-29 22t-23.5 22.5q0 58 8.5 101t32.5 122q-2 0 -6 2.5t-4 3.5v2 q8 7 14 23t11 40.5t7 30.5q4 15 19 44t20 44q4 14 9.5 54t13.5 59q2 6 9 14t9 13q8 20 20.5 72.5t16.5 66.5q2 8 9 16.5t8 14.5q44 170 83 266q4 6 9 40t24 44q0 3 -1.5 5.5t-2.5 3.5l-2 1q2 9 37 129q5 19 15.5 53.5t16.5 56t11.5 52.5t5.5 59v8.5v9.5v9t-1 9t-2 8t-3 7.5 t-4.5 5.5t-6 5t-8 3t-10.5 1q-14 0 -26 -1.5t-26 -7t-21.5 -8t-24.5 -14.5t-23.5 -16.5t-30.5 -23t-34 -25.5q-35 -24 -101.5 -74.5t-101.5 -75.5q-1 -1 -3 -7.5t-7 -6.5h-10q-6 0 -14 -8.5t-16 -19t-11 -13.5q-21 -7 -37 -21.5t-33.5 -36t-32.5 -34.5l-14 -6 q-16 -32 -60 -79.5t-61 -47.5h-4q-5 -24 -21 -43.5t-39.5 -40t-33.5 -33.5q-9 -11 -43 -53.5t-55 -70t-53 -70t-60.5 -84.5t-54.5 -83q-9 -13 -22.5 -44.5t-22.5 -47.5q-2 -3 -12.5 -7t-12.5 -7q-2 -4 -4 -12.5t-4 -12.5t-19.5 -23.5t-31 -39.5t-13.5 -35q0 -2 1 -6t1 -6 q0 -3 -5 -10t-13 -17t-12 -18q-1 -3 -6.5 -14.5t-10.5 -16.5q-35 -50 -78.5 -132t-68.5 -140q-5 -12 -11 -35.5t-14 -36.5q-1 -2 -7.5 -4t-6.5 -4q-1 -2 -4 -10.5t-7.5 -13.5t-13.5 -7t-13.5 -8.5t-5.5 -13t-10 -12t-26 -5.5q-36 0 -61 20t-25 44q0 19 4.5 39.5t9.5 34.5 t15 38t14 35q23 74 53 147q0 2 7.5 8t7.5 7q19 54 33.5 109.5t21.5 72.5q2 8 18 28.5t21 33.5q5 12 14.5 49.5t16.5 58.5q11 33 53 145.5t63 176.5q5 15 11 50.5t12 55.5q54 161 91.5 365.5t37.5 361.5q0 33 -4.5 65t-15 67.5t-33 57t-54.5 21.5q-57 0 -108.5 -18.5 t-114 -56.5t-70.5 -42q-19 -10 -31 -20t-24 -22.5t-24 -22.5q-83 -40 -180.5 -138.5t-178.5 -211.5q-7 -10 -7 -25t-7 -29q-1 -2 -9 -4t-8 -4q-5 -8 -17 -24.5t-22 -31.5t-16 -30q0 -19 12 -31t26.5 -17t27.5 -16.5t14 -29.5q-18 -6 -35 -6q-44 0 -98.5 39.5t-54.5 77.5 q0 19 13 46.5t27.5 48.5t30 41t15.5 21q2 3 7 14t9 15q2 3 14.5 7.5t16.5 8.5q4 5 7.5 16.5t6.5 14.5q7 8 21.5 21t19.5 18q10 10 44 51t62 69.5t41 28.5q1 0 4 -1t5 -1q9 22 26.5 40t48.5 41.5t39 29.5q5 4 16 16t17 15q5 3 19.5 7t19.5 7q9 8 26.5 29t28.5 28 q-1 0 25.5 12t64.5 30t58 28q2 1 7.5 7.5t6.5 6.5q17 5 49 9t45 8q3 1 7 6.5t6 5.5t4 -4h20q121 0 158 -64q2 -2 10 -5t8 -7q0 -1 -1 -4.5t-1 -5.5v-2q24 -30 34.5 -46t23 -64.5t12.5 -116.5q0 -92 -16 -204t-34.5 -192t-51 -210.5t-46.5 -194.5q-6 -35 -33 -113.5 t-30 -87.5q-10 -34 -32 -107t-36.5 -126.5t-23.5 -104.5z" />
<glyph unicode="N" horiz-adv-x="2215" d="M2062 -457q0 -16 -22 -16q-7 0 -47 8q-10 2 -37.5 3.5t-38.5 4.5q-10 2 -26.5 13t-24.5 14q-5 2 -14.5 4t-14.5 4q-6 4 -32 23.5t-45 29.5t-36 11q-3 16 -11.5 28.5t-23 27t-20.5 21.5q-115 142 -115 344q0 7 4.5 13t4.5 10q-2 18 -2 51q-1 50 5 102t22.5 115.5t25 95 t33.5 107t28 86.5t24.5 66.5t31.5 91.5q3 8 7 26.5t7 26.5t10.5 22.5t9.5 20.5q15 37 50.5 133.5t62 165t31.5 68.5q7 0 8.5 5.5t2 17t3.5 20.5q11 30 31 90t33 94q2 7 11 32.5t14 42.5t12 42.5t10.5 49.5t3.5 46v7v8t-0.5 7.5t-1.5 7.5t-3 5.5t-5.5 4t-8.5 1.5 q-12 0 -12 -8q0 -1 1 -5.5t1 -5.5q0 -3 -33 -19.5l-77 -38.5t-62 -36q-5 -3 -21.5 -23t-33.5 -20q-13 -4 -26 -26t-25 -29q-2 -2 -9.5 -3.5t-9.5 -4.5q-21 -15 -47.5 -41t-40.5 -37q-1 -1 -3 -6.5t-5 -5.5h-8q-2 0 -3.5 -3t-3 -8t-2.5 -6q-1 0 -5.5 1t-6.5 1q-3 -8 -9 -20 t-22.5 -31.5t-31.5 -19.5q-1 0 -3.5 1t-4.5 1q-3 0 -3 -4v-11q0 -3 -9 -9t-20 -12t-14 -9q-11 -9 -35.5 -40t-39.5 -44q-1 0 -11 -2t-12 -4q-37 -40 -65 -66q-5 -5 -25.5 -29t-38.5 -32q-6 -1 -9.5 -15.5t-10.5 -15.5q-18 -12 -47 -43.5t-37 -38.5q-46 -43 -78 -80 q-5 -6 -16 -16t-19.5 -19.5t-13.5 -19.5q-6 -10 -15.5 -18.5t-22 -17t-18.5 -13.5t-16 -18t-20 -22t-23 -12q-7 -13 -14.5 -25t-20 -26.5t-18 -21t-23.5 -24.5t-20 -21q-3 -2 -12.5 -4t-10.5 -3q-2 -3 -3 -10.5t-3 -9.5q-4 -5 -19.5 -16.5t-21.5 -20.5q-36 -53 -128 -140.5 t-120 -119.5q-10 -11 -25.5 -35t-31.5 -42.5t-35 -28.5q-9 -4 -18.5 -16.5t-21 -30.5t-17.5 -25q-16 -19 -83 -96t-114 -136q0 -3 -6 -14t-20 -23t-31 -12q-30 0 -58 34.5t-28 59.5q0 77 45 187q25 73 91.5 236.5t98.5 258.5q1 2 7.5 7t7.5 6q7 19 20 62t21 65q2 6 10 20.5 t10 24.5q32 81 70 225q32 93 61 236t29 249q0 79 -56 131t-149 52q-73 0 -180 -47q-9 -4 -30.5 -11t-35 -12t-33 -16.5t-36.5 -26.5q-1 0 -1.5 -2.5t-1.5 -5.5t-3 -4q-7 -4 -21.5 -8.5t-19.5 -6.5q-60 -31 -115 -77q-56 -48 -79.5 -68.5t-63.5 -62t-68 -82.5q0 -1 -1 -4 t-1 -5q0 -11 12 -23t12 -26q0 -10 -18 -15t-33 -5q-32 0 -58 37t-26 63q1 12 9 26t17 23.5t28.5 28.5t29.5 29q3 2 15.5 19t27.5 37.5t21 27.5q3 3 7 4.5t8 1.5t6.5 1.5t2.5 4.5q0 2 -4 10q33 3 69 36.5t60 39.5q21 22 55 45t56 35.5t72 38.5q52 28 86.5 44.5t88 31 t105.5 14.5q103 0 207 -68q16 -8 20 -10.5t6.5 -12t8.5 -20.5l3 -3q4 -3 8 -7l10 -10t12.5 -13t12 -14t11 -14.5t8.5 -14.5q21 -46 21 -145q0 -107 -29 -281q-1 -6 -7 -17.5t-10.5 -28t-4.5 -40.5v-18q-17 -34 -32 -77.5t-33 -101.5t-28 -87q-7 -19 -18.5 -57t-20.5 -67 t-20.5 -59t-23 -47t-21.5 -18q2 -6 2 -16q0 -12 -10.5 -32.5t-11.5 -21.5q-6 -16 -14 -42t-9 -31q-8 -23 -28.5 -64.5t-28.5 -60.5q-5 -13 -10.5 -36.5t-10.5 -35.5q-51 -126 -69 -205q2 -2 4 -2q7 0 44.5 40t99.5 109.5t85 94.5q12 13 39 39.5t51 53t43 54.5 q26 33 77.5 80.5t95 94t67.5 94.5q2 -2 4.5 -3.5t3.5 -2.5t2 -1q-2 0 15 17.5t35 33.5t18 13v10q0 4 8.5 9.5t20 12t14.5 9.5q1 1 4 9.5t9 15t15 6.5q2 0 7.5 -1t7.5 -1q8 5 8 16v8q0 6 4 10q14 25 26.5 34t22 12.5t16.5 11.5q-4 0 -4 6q0 2 4 6l5 -2l-5 -4q2 -2 9 -2 q15 0 24.5 14.5t19 38.5t17.5 35q4 4 26 21.5t31 27.5q7 7 7 14q1 0 4.5 -1t5.5 -1q4 0 13.5 10t22.5 27t17 21q10 12 16 17.5t8.5 5.5t7.5 0.5t11 4.5q5 3 12.5 19t14.5 22q3 2 29.5 21t39 35t15.5 36q12 0 22.5 7.5t20.5 7.5q23 53 86 112q4 5 18.5 15.5t26.5 20t12 12.5 q0 1 -1 4t-1 4q0 2 2 2h10q2 0 10.5 8t16.5 8q6 0 10 -2q14 32 50 69.5t63 37.5q-2 4 -2 8q0 13 94 90q3 3 41.5 32t58 42.5t53.5 35t59 31.5t44 10q24 0 43.5 -12t24 -18.5t14.5 -22.5q2 -1 7.5 -3.5t9.5 -5t5 -5.5q5 -7 12 -42.5t7 -49.5q0 -42 -15.5 -102t-27.5 -93.5 t-39 -101.5q-12 -11 -12 -13q-5 -16 -14.5 -53.5t-14.5 -52.5q-2 -5 -12.5 -18.5t-10.5 -20.5q0 -3 1 -8.5t1 -7.5q0 -9 -7 -12t-9 -5q-1 -2 -15 -34t-23 -56.5t-9 -32.5q0 -2 2 -8t2 -10q0 1 -12 -22.5t-28 -55.5t-23 -49q-73 -171 -183 -500q-6 -18 -10.5 -42t-6.5 -41.5 t-5.5 -48.5t-5.5 -46q-1 -5 -8 -10.5t-7 -15.5q8 -7 8 -13q1 -12 -7.5 -67.5t-8.5 -81.5q-1 -54 9.5 -108.5t36 -116t79.5 -112.5t131 -79q13 -5 34 -17t28 -14q12 -3 31.5 -4t33.5 -4t23 -12q1 -1 15.5 -5.5t16.5 -15.5z" />
<glyph unicode="O" horiz-adv-x="2150" d="M1520 1825q14 0 38.5 1t36.5 1q62 0 134 -19q95 -25 194 -104q2 -2 19 -13t25 -17.5t23 -23.5t29 -38q1 -1 4.5 -2t6 -3t2.5 -5v-9q0 -4 28 -32q15 -18 43 -121q2 -7 8 -29.5t11 -44t8 -39.5q-6 0 -6 -4q0 -3 3.5 -13t4.5 -16h-2q-6 0 -6 -6t2 -19t2 -22q0 -12 -4 -45 t-4 -53q0 -4 1 -13t1 -12q0 -7 -8.5 -14t-8.5 -14q0 -5 2 -15.5t2 -15.5q0 -9 -7 -16.5t-7 -10.5q-2 -6 -9.5 -30t-10.5 -33l-10 -30t-12 -33t-12 -29t-14.5 -31.5t-15.5 -28.5q-2 -4 -9 -21t-14 -29t-16 -21q-1 -2 -6.5 -5t-5.5 -4q-3 -4 -6 -15.5t-6 -16.5 q-14 -24 -93 -129q-184 -246 -512 -496q-7 -5 -22 -20t-25 -21q-3 -3 -10 -4t-10 -4q-14 -14 -71 -55t-64 -41q-2 0 -7.5 1t-7.5 1q-5 0 -27 -17t-28 -20q-7 -3 -25.5 -9t-27.5 -12q-1 -1 -2.5 -7t-3.5 -7t-12.5 -1.5t-18.5 -2t-8 -4.5v-10q0 -2 -9.5 -4.5t-21.5 -6 t-16 -4.5q-17 -8 -59 -23.5t-73.5 -26.5t-31.5 -13q-5 0 -8 3l-4 3h-2q-12 -3 -49 -12.5t-51 -12.5t-41.5 -6.5t-53.5 -3.5q-70 0 -154 16t-133 45q6 0 -6 6q-4 2 -17 9q-39 18 -53 28q-63 47 -129 132.5t-96 173.5q-2 5 -7.5 16t-9 23t-3.5 28v6q0 -4 -3 3q-16 50 -20 100 q0 4 1.5 7.5t3 5.5t1.5 3q0 10 -1 45t-1 51q0 81 14.5 174.5t34.5 157.5v4q0 2 -1 7t-1 6q0 3 7.5 6t7.5 4q3 9 6 27.5t6 25.5q0 10 10 24t10 21q0 3 -1 10.5t-1 10.5t4.5 11.5t11.5 21.5t11 22q3 15 43.5 77t48.5 113q28 24 43 56q0 -1 1 1l4.5 9t9.5 16.5t15.5 25 t21.5 33.5t29.5 43t37.5 52q1 2 6.5 4.5t5.5 5.5v8q0 3 7 6l6 3q9 19 25.5 40t47 53.5t39.5 43.5v2q0 1 -1 3.5t-1 4.5q0 4 4 4l6 -2q4 0 12.5 11.5t21 27t24.5 22.5q5 3 20.5 19t45.5 43t65 53q26 22 94.5 65t95.5 72q17 4 48 18.5t54 27.5l23 12h13h4q123 45 200 45 q108 0 192.5 -47t162.5 -123zM1393 1864q-52 32 -92.5 47.5t-96.5 15.5q-9 0 -31.5 -6.5t-27.5 -9.5q-4 0 -8.5 4t-8.5 4q-7 0 -21 -10t-22 -11q-10 -3 -30 -4t-29 -4q-5 -2 -43.5 -22.5t-56.5 -20.5h-13q5 0 -15 -15q-43 -32 -54 -32h-10q-3 0 -4 -6t-5 -8q-5 -3 -21.5 -9 t-23.5 -12q-35 -34 -93.5 -79.5t-78.5 -63.5q-5 -5 -19.5 -13.5t-19.5 -13.5q-1 -1 -2.5 -9.5t-3.5 -10.5q-4 -6 -19 -15t-27.5 -17t-12.5 -11v-10q0 -7 -23 -32.5t-55.5 -59.5t-46.5 -52v-2v-10q0 -3 -6 -5t-6 -5v-10q0 -1 -21 -15l-40 -55q-13 -19 -13 -23q0 -2 1 -5.5 t1 -4.5q0 -4 -12.5 -13t-12.5 -18q0 -2 4 -10q-78 -85 -147 -262q-50 -108 -84.5 -250t-34.5 -287q0 -25 5 -72.5t5 -70.5q0 -4 -1 -11t-1 -11q10 -22 30.5 -72.5t30.5 -73t31 -61.5t39.5 -61t47.5 -47t63 -42l3.5 -7t4.5 -8.5t4 -4.5q99 -41 174 -51q12 -2 30.5 -2.5t32 -1 t19.5 -3.5q1 0 2 -1t2 -1q136 0 334 90q5 2 29.5 13t40.5 15.5t31 4.5h6q0 1 -1 3t-1 3q0 5 26 21t66 38t55 31q2 1 21.5 15t31.5 14h7q21 35 73 55q7 18 31.5 39.5t66 51t60.5 45.5q4 4 16.5 7t16.5 7q2 1 4 9t4 9q1 3 5.5 7.5t4.5 7.5q24 10 54.5 44t52.5 44q9 19 27 39 t32 31t18 12q6 2 34 32.5t28 38.5v4q18 0 25 7q2 39 59 79q3 3 4 11.5t4 9.5q1 3 11 4t10 8q0 2 -1 6.5t-1 6.5q0 5 5.5 7t6.5 3q20 43 70.5 126t87 160t49.5 152q2 10 2.5 34.5t3.5 39.5q1 11 9 33t9 34q0 5 -3 19t-3 20q-3 28 -5.5 67t-4 60t-8.5 45t-21 41 q-27 53 -84 126t-78 73h-14q-23 22 -62.5 34.5t-65.5 15t-79 4t-61 1.5q1 -22 28 -60t27 -57v-18q0 -2 8 -15t8 -18q0 -2 -1 -7t-1 -7q0 -5 7.5 -11.5t7.5 -19.5q0 -5 -2 -13.5t-2 -12.5q0 -12 12 -21q-8 -15 -12 -54t-6 -73.5t-15.5 -62t-40.5 -27.5q-12 0 -17.5 7t-6 13 t-0.5 19q0 20 9 70.5t9 78.5q0 86 -29.5 173.5t-52.5 87.5q-38 0 -117 -23q-75 -23 -99 -38.5t-28 -16.5q-84 -31 -199.5 -105.5t-181.5 -140.5q-25 -22 -50.5 -44t-33.5 -28.5t-26 -24t-37 -38t-57 -62.5q-4 -4 -7.5 -14t-5.5 -14q-10 -9 -15.5 -15t-7 -8t-4.5 -8l-5 -10 q-2 -1 -10.5 -6t-10.5 -7q-3 -4 -7 -14t-7 -14q-1 -2 -8.5 -6t-10.5 -7q-4 -4 -7 -13.5t-7 -14.5q-1 -3 -10.5 -8t-9.5 -9q0 -2 1 -6.5t1 -7.5q-45 -26 -45 -51v-10q0 -6 -13 -19.5t-14 -15.5q-68 -106 -115 -250q-35 -93 -35 -184q0 -8 5 -70q2 -10 15 -43t13 -51v-4 q33 -44 33 -74q0 -14 -4 -20q-43 14 -82 72t-43 120q4 0 4 4q0 1 -4.5 4t-9 8.5t-4.5 10.5v30q0 17 -1 46t-1 42q0 23 7 55t15 56t15.5 44.5t7.5 21.5l11 15q11 15 11 26q0 1 -0.5 2.5l-1.5 4.5t-2 5q23 16 61.5 96t51.5 98q3 7 11.5 15.5t12.5 13.5q3 2 3.5 10t2.5 11 q1 1 7 1.5t10 2t4 4.5v14q0 5 13 17.5t14 13.5q8 17 16.5 28.5t20.5 23.5t20 22q4 5 53 75q3 4 14 8t13 7q3 3 3.5 13.5t8.5 10.5q15 16 41.5 40.5t45.5 41.5l20 16q0 1 -1.5 5t-1.5 6q0 1 3 1.5t6.5 2t5.5 4.5q23 24 51 47.5t64.5 51.5t56.5 44q12 9 36 31.5t36 30.5 q7 4 27.5 13t32.5 17t15 17q2 0 7 -1t6 -1q6 0 13 7.5t14.5 17t10.5 12.5t20.5 10t41.5 16.5t37 16.5q6 3 21 13t24 13q7 2 23 3t24 3q4 2 16 11t19 10q6 3 29 8t40 11t17 12q0 5 -3.5 10.5t-10.5 11t-12.5 9.5t-13 8.5t-9.5 5.5z" />
<glyph unicode="P" horiz-adv-x="1531" d="M229 748q-23 -83 -60 -251t-50 -221q-41 -158 -53 -241q-3 -22 -9.5 -58.5t-11 -64t-4.5 -41.5q0 -5 1 -16.5t1 -16.5q0 -15 -9 -27t-30 -12q-4 0 -7 3t-5 8.5t-3 11.5t-1 15v15.5v16.5v14q-1 69 9.5 151t19 125t28.5 132q3 12 6.5 36t9 41t15.5 31q0 1 -3 8t-3 13 q5 37 36 100q5 15 12 63t11 66q4 15 14.5 44t14.5 44q-8 8 -23 8h-41q-34 0 -79 4.5t-102.5 16.5t-95.5 38t-38 62q0 8 6 17q26 0 49 -29.5t45 -36.5q21 -9 55.5 -13t59 -4.5t68.5 0.5t55 1q33 0 49 2q16 33 31.5 96.5t19.5 75.5q7 25 33 110t39 138q13 72 14 77l18 41 q33 90 33 144v20q0 17 7 35t8 25q1 5 2 26t3 35t10.5 26.5t23.5 12.5q13 0 30 -17t27 -20q-11 -104 -31 -162q-2 -4 -7 -9t-7 -9q-4 -12 -8 -40.5t-9 -43.5q-2 -9 -10 -25.5t-10 -23.5q6 0 6 -4q0 4 -3 -5t-13 -48q-26 -104 -41 -148q-2 -8 -10.5 -24t-10.5 -25 q-3 -8 -5 -26t-5 -27q-7 -29 -27.5 -94t-27.5 -101h6q16 0 44 10.5t44 10.5h39q17 0 46.5 10t39.5 10q5 0 13.5 -4t13.5 -4q45 0 145 29.5t115 31.5q24 3 65 14.5t53 14.5q6 1 21 1t22 1q35 10 97 26t96.5 25.5t82.5 26t89 35.5q4 2 20.5 11.5t29.5 16t20 6.5q2 0 6 -2t6 -2 q3 0 26.5 14.5t26.5 14.5h14q4 0 9 4t11.5 11t10.5 10q5 3 37.5 23t51.5 32.5t50.5 34t55.5 41.5q8 7 28.5 20t28.5 21q5 5 13 19.5t14 21.5q2 3 9.5 6.5t8.5 5.5q3 3 4.5 12.5t3.5 11.5q4 5 16 21t18.5 25.5t15 26t12.5 34.5t4 39q0 97 -84 162q-27 11 -37 18q-2 2 -3 5 t-1.5 5t-1.5 2h-8q-92 68 -270 116t-359 48q-9 0 -16.5 -4t-10.5 -4q-100 8 -127 8q-49 0 -97 -3.5t-81.5 -7t-83 -13.5t-73 -15t-82.5 -19.5t-82 -19.5q-118 -29 -168 -47q-222 -82 -398 -184l-38 -19q-108 -60 -222 -161q-18 -14 -38 -41t-31 -33q1 -9 5.5 -25t4.5 -24 q0 -10 -6 -25q-36 3 -59 25.5t-23 58.5q0 23 14.5 46t29 36.5t40.5 34.5l28 28q28 28 50 45t34 17q10 0 14.5 5.5t6.5 6.5q10 8 48.5 30.5t57.5 35.5q1 1 3 3.5t3.5 4.5t2.5 2h8q9 0 23.5 8.5t32 21.5t20.5 15q123 59 344 152q3 1 13.5 1.5t16.5 2.5q3 1 9 5t10 5 q37 11 108 27t88 20q8 1 22.5 8t20.5 9q19 4 55 8t50 6q3 0 58 9.5t114.5 17.5t85.5 8h41h24q198 0 304 -13q14 -2 44 -9t54 -11t43 -4h16q11 0 21 -6.5t14 -7.5q10 -2 34 -4.5t34 -6.5q6 -1 16.5 -9.5t13.5 -10.5q1 0 15.5 -2t21.5 -4q5 -3 19 -12.5t26.5 -16t20.5 -6.5 q2 0 5.5 1t4.5 1q10 0 49 -27.5t60 -27.5v-4q0 -7 5.5 -11t13.5 -6t11 -4q2 -2 7 -12.5t11 -18.5t11 -8h8q5 0 6 -8.5t2 -9.5q2 -2 9.5 -3t9.5 -3q7 -5 13 -23t13 -29q45 -68 45 -118q0 -120 -124 -244q-8 -9 -27 -23.5t-27 -23.5q-22 -24 -56 -49.5t-60 -30.5v-4 q0 -9 -7.5 -13t-18.5 -6.5t-15 -5.5q-1 -1 -3 -6t-4 -6q-7 -9 -106 -57q-232 -106 -444 -158q-9 -2 -30.5 -5.5t-36.5 -8t-28 -13.5q-59 0 -92 -8q-3 0 -30.5 -9t-99 -25.5t-169.5 -30.5q-21 -2 -127 -22.5t-162 -20.5z" />
<glyph unicode="Q" horiz-adv-x="2113" d="M2071 1518q12 -35 12 -101v-33q0 -2 4 -21t4 -28q0 -19 -9 -58t-9 -60t2 -31q-16 -13 -21.5 -46t-19.5 -46q-8 -39 -15.5 -64t-12.5 -38t-20 -47.5t-28 -65.5q-6 -8 -36 -70t-54 -94q0 -5 -12 -28.5t-35 -55.5t-47 -51q-1 -17 -21 -36t-20 -28q0 -2 1 -5.5t1 -4.5 q0 -4 -19.5 -13t-19.5 -18v-10q0 -5 -9 -9t-10 -5q-8 -5 -21 -23t-31.5 -48t-25.5 -40l-55 -58q-23 -22 -28 -22q-10 0 -18.5 -14t-12.5 -17q-3 -5 -15 -12.5t-16 -11.5q-11 -8 -26 -25t-21 -22q-20 -14 -117 -92q-29 -24 -85.5 -62.5t-63.5 -38.5q-6 0 -11 -2.5t-8 -6 t-8 -9.5t-10 -10q-78 -43 -209 -107q48 -120 211 -192q75 -33 268 -33q100 0 258 65q3 0 4.5 -2t1.5 -4t2 -2q4 0 9 6t12 8q146 65 248 138q11 8 42 30t46 32.5t40 23t46 18.5q-7 -8 -16.5 -28.5t-16.5 -28.5q-13 -4 -25.5 -23t-31.5 -20q-1 -12 -21.5 -26t-21.5 -28 q-3 -2 -16 -7.5t-22 -11t-9 -9.5v-6q0 -5 -70 -39q-17 -19 -35.5 -30t-48 -21t-43.5 -17q-5 -3 -25 -14.5t-31 -17t-30.5 -11.5t-38.5 -6h-12q-15 0 -38 -12.5t-38 -12.5q-8 0 -21 1t-16 1q-11 0 -16 -4l-6 -4q-19 -1 -57.5 -5.5t-63.5 -4.5q-20 0 -41.5 2t-34 4.5t-39 7.5 t-37.5 7h-4q-8 0 -23.5 10t-23.5 10q-2 0 -8 -3t-8 -3q-1 1 -10.5 13t-16.5 18q-3 1 -9.5 1t-11 1t-8.5 4q-4 0 -26.5 17t-54 42t-44.5 35q-8 10 -21.5 34.5t-27.5 41.5t-33 24q-3 -1 -38.5 -12t-41 -12.5t-37 -11t-41 -11.5t-38 -9t-42.5 -9t-39.5 -6.5t-44.5 -6t-43 -3 t-48 -1.5q-40 0 -80 9q-3 1 -8.5 4.5t-11 5.5t-11.5 2h-18q-13 0 -34.5 10.5t-49 27.5t-39.5 23q-38 10 -82 54q-8 8 -20 19t-16.5 16t-12 14.5t-14 21.5t-15.5 31q-40 55 -53.5 105.5t-13.5 117.5q0 10 1 32t1 32v12q0 15 1 31.5t2.5 37.5t2.5 33q2 29 17.5 81t15.5 63 q0 7 -2.5 23t-2.5 24q0 11 8.5 26.5t10.5 24.5q5 11 33 115q18 39 47.5 126t54.5 138l6 6t6 8q0 17 6 31t17.5 30t15.5 25q3 5 6.5 20t6.5 19q2 7 13 15t13 10q4 32 20.5 64.5t49 77.5t43.5 63v2q0 1 -1 4t-1 4q2 2 6 2q6 0 9 5t6.5 15.5t8.5 18.5q19 29 44.5 62t58.5 73.5 t49 60.5q3 3 12 11t14.5 13.5t11.5 15.5t7 20q27 13 71 59.5t79 65.5q1 2 4.5 4t8.5 4.5l7 3.5q2 3 4 10.5t4 9.5q37 37 126 87t161 69q4 1 20.5 1.5t24.5 2.5q6 1 18 6t19 6q7 0 22 -1t23 -1q4 0 11 1t11 1h18.5h19.5t17.5 -0.5t19 -1t18.5 -2t21.5 -3.5t20.5 -5t24.5 -7 t25.5 -9q22 0 56 -19t90 -59t77 -53q25 4 74 4q107 0 178 -39q2 -2 4 -2l2 2q5 0 25 -11t50 -34t60 -53.5t58 -76.5t41 -95zM2015 1534v2l-6 4q-15 69 -74 132.5t-116 74.5q-1 1 -3 4.5t-4 6.5t-4 3q-51 17 -75 17q-76 0 -99 -6q40 -47 70.5 -157t30.5 -188q0 -61 -35 -61 q-3 0 -9.5 2t-9.5 2q-4 0 -12 -4q-2 23 -5.5 83t-7.5 95t-13 83t-27 82t-45 56q-112 -31 -203 -77.5t-192 -114.5q-25 -17 -71.5 -53.5t-70.5 -51.5q-3 -2 -7 -11t-7 -9q-8 -11 -53 -45q-3 -3 -8 -9.5t-11.5 -12t-19.5 -13.5q-9 -5 -24.5 -27t-31.5 -22q-1 0 -34.5 -44 t-38.5 -52q-31 -48 -58 -60q-18 -24 -56.5 -75t-62 -84t-52.5 -79t-46 -85q-5 -13 -18 -41.5t-19 -44t-6 -21.5q-37 -109 -37 -123q0 -8 2.5 -27t2.5 -28q0 -36 -25 -51q-21 33 -21 80q0 29 10.5 82t10.5 73q3 6 11 23t11.5 26.5t7 25t3.5 30.5q26 20 37 65q84 123 84 140v8 q0 4 4.5 7.5t12.5 7.5t11 7q21 47 71 110t92.5 108t113.5 116q68 70 178 156q17 17 40 31.5t32 21.5q-5 -1 -2 4q13 19 52 40q23 13 38 13q12 0 12.5 7.5t1.5 7.5q16 16 58.5 30t52.5 19q5 1 7 8t3 8q21 12 73.5 23.5t77.5 29.5q-29 35 -98 66q-15 2 -23.5 6.5t-10.5 8 t-3 3.5q-19 3 -79.5 17t-96.5 14q-70 0 -141.5 -21.5t-128.5 -53t-119 -80t-105 -90t-94 -95.5q-4 -4 -14 -9t-14 -9q-27 -32 -40.5 -51.5t-22 -35t-11.5 -20.5q-132 -141 -260 -411q-51 -84 -62 -115q-14 -48 -20 -62q-43 -110 -60.5 -158.5t-46.5 -144.5t-41 -182.5 t-12 -179.5q0 -175 68 -266q30 -41 56 -62.5t60 -40.5q2 -1 13.5 -7.5t17.5 -9.5t18 -9.5t21 -10t20.5 -7t22.5 -5.5t21 -2q3 0 9.5 1t10.5 1q12 0 23 -6t18 -6q96 0 208 24t206 66q-4 10 -9 19t-12.5 17.5t-12 13.5t-15 15t-13.5 13q11 0 17 6q-19 15 -62.5 59.5 t-71.5 63.5q-10 6 -23 14.5t-17.5 11.5t-12 7t-11 5t-8 2t-9.5 1q-4 0 -11.5 -3t-11.5 -3q-6 0 -12 5.5t-6 14.5q0 29 19 43t42 14q35 0 80 -20q10 -1 11 -15t11 -14q27 -11 52.5 -34.5t58 -66t37.5 -48.5q6 6 6 8q5 -12 12 -32t13 -35t14 -29q23 5 63 29t56 24q3 0 8 -1 t8 -1q0 -3 22.5 10t68 43.5t65 43.5t61.5 42q5 3 19 16t20 13t8 -2q7 31 21 39q5 0 10.5 1t10.5 3.5t8.5 4.5t9 7t8 7.5t8.5 9t7.5 9t8 10t7.5 9.5h4q10 0 18.5 7t16.5 18.5t10 13.5q40 24 86 66.5t65 68.5q4 5 10 14.5t9.5 15t9.5 12t12 11.5q16 5 19 16.5t4 12.5 q3 3 9.5 6t8.5 6q22 44 79 115.5t75 102.5q2 2 2 8q0 8 1 11.5t6.5 10.5t13.5 16t24.5 33.5t36.5 57.5q3 6 5 21.5t5 21.5q2 2 10 3.5t8 8.5q0 3 -1 8t-1 8q0 5 13.5 18t13.5 23q0 1 -1 4t-1 5v2q0 1 4.5 2.5t5.5 3.5q19 44 62 180q6 16 15 78t24 90q-4 32 -4 45q0 11 2 34 t2 36q0 19 -10.5 48.5t-10.5 39.5q0 4 4 12z" />
<glyph unicode="R" horiz-adv-x="1714" d="M-223 1399q-43 26 -51 43q-2 6 -2 12q0 4 4 16q-2 7 -7 7q-1 0 -3.5 -2t-4.5 -2t-5 2.5t-7 10t-4 17.5q-8 19 -8 45q0 55 34.5 110t90.5 99.5t112.5 78.5t114.5 58q7 3 20.5 5t18.5 4q4 2 18.5 13.5t27.5 19.5t21 8q1 0 7 -2.5t10 -2.5q12 0 24 13l13 14q6 -2 14 -2 q16 0 30 6t30.5 15.5t27.5 13.5q7 3 24.5 3.5t32.5 4.5q4 2 10 9t13 7h18q10 0 17 8.5t16 8.5q5 0 16.5 -1t16.5 -1q14 1 63 15t76 18q16 2 57.5 3.5t63.5 4.5q6 2 23 8.5t26 7.5q79 10 209 10q57 0 160 -9t147 -9q2 0 5.5 1t5.5 1q28 0 96 -10q31 -4 102 -25q6 -1 26.5 -2 t31.5 -6q4 -1 17.5 -11t22.5 -12q13 -5 43 -7.5t44 -8.5q10 -4 43 -15.5t58.5 -23.5t41.5 -26q5 -1 11 -9t11 -8q3 0 10 1t9 1q3 0 16.5 -9t34.5 -24t37 -24q24 0 24 -10q0 -1 -1 -5.5t-1 -5.5q0 -3 6.5 -5.5t15 -5.5t11.5 -7q3 -3 4 -12t4 -11q4 -5 22 -24t26 -29t17 -28.5 t9 -34.5q0 -3 -1 -7.5t-1 -5.5q8 -72 8 -75q0 -31 -8 -62q-1 -3 -13 -20.5t-12 -26.5l3 -6q-2 -5 -9.5 -10t-9.5 -9q-3 -5 -6.5 -22t-7.5 -25q-16 -25 -61 -81t-60 -76q-13 -24 -80 -72q-6 -18 -10 -18q-1 0 -4.5 1t-5.5 1l-2 -2q-17 -14 -37.5 -34t-37 -34.5t-38.5 -26.5 q-7 -4 -29 -14t-35 -18q-4 -3 -12 -12.5t-12 -12.5q-6 -2 -19.5 -3t-19.5 -3q-6 -3 -14.5 -12.5t-12.5 -12.5q-18 -10 -37.5 -18.5t-50.5 -20t-45 -16.5q-104 -46 -137 -57q-9 -3 -54.5 -25.5t-74.5 -30.5q-13 -5 -42 -9.5t-36 -6.5q-5 -1 -67.5 -21t-90.5 -20q-2 0 -5.5 2 t-6.5 2q-8 0 -14 -2q-134 -30 -408 -49q3 -21 12.5 -34t28 -26t25.5 -20q9 -10 61 -80q3 -3 13 -8t12 -8q3 -3 4.5 -12.5t3.5 -12.5q11 -14 46 -54.5t50 -64.5q5 -7 12.5 -23.5t12.5 -23.5q2 -3 11.5 -8t10.5 -8q6 -11 15 -34.5t18 -37.5q93 -130 129 -192q14 -24 36.5 -56 t39.5 -54t48.5 -61.5t41.5 -52.5q3 -3 12.5 -7.5t12.5 -8.5q4 -7 10 -18l9 -16.5t9 -13.5t13 -15q1 -1 5 -3t6.5 -3.5t2.5 -4.5v-10q0 -4 7 -9.5t18 -13t16 -12.5q24 -32 88 -88q13 -12 51 -49t60 -55q2 -1 21 -9.5t26 -15.5q6 -4 14.5 -15t17.5 -15q-7 -7 -12 -7 q-14 0 -85 47t-109 78q-4 3 -6 11t-5 8q-2 0 -6.5 -1t-5.5 -1q-3 0 -8.5 11t-9.5 13q-3 1 -11.5 2t-11.5 6q-15 14 -31.5 31t-39.5 42.5t-42 45.5q-3 3 -12 8.5t-12 8.5q-2 4 -3 12.5t-3 11.5q-5 5 -19.5 18t-21.5 21q-1 1 -2.5 5t-3 7.5t-2.5 3.5q-9 3 -43 41t-52 64 q-10 13 -19.5 27t-20 32.5t-17.5 28.5q-1 1 -8 3t-8 3q-16 37 -35.5 67.5t-54.5 76.5t-54 73q-30 43 -61 91.5t-63 93t-91 118.5q-91 99 -151 144q-18 -19 -26.5 -41.5t-15 -62t-8.5 -48.5q-10 -43 -38 -150.5t-41 -168.5q-2 -12 -7 -51t-12 -63.5t-20 -37.5v-22 q0 -34 -12.5 -104t-12.5 -107q0 -24 8 -86q-17 -7 -26 -7q-76 0 -76 109q0 51 19.5 144t19.5 147q0 8 20.5 45t20.5 45q0 7 -4 18t-4 19q10 10 17 25.5t9.5 28t6.5 33.5t6 32q1 6 7 28.5t7 34.5q4 18 29.5 101t27.5 139q-11 18 -28.5 26t-46.5 11t-35 4q-5 1 -32 5.5t-35 6 t-28 6t-35 10t-32 13.5q-6 2 -19.5 3t-19.5 3q-22 6 -115.5 36t-93.5 33q0 5 8 9t8 10q-46 0 -81 31.5t-35 62.5t49.5 62.5t103.5 31.5q61 0 159.5 -33.5t164.5 -66.5q8 -4 21 -17t18 -16q7 -4 23.5 -11.5t23.5 -12.5q12 -7 32 -20.5t33 -21.5t25 -12q18 8 24.5 37.5 t13 58.5t25.5 37q-2 7 -4 12t-3 7t-2 4.5t-1 5.5q0 16 4.5 32t12 35.5t10.5 32.5q13 51 72 209q2 7 4.5 26.5t8 32.5t17.5 21q0 7 -4 17.5t-4 17.5q0 8 2 12q18 5 22 37t9 41q1 2 7.5 14.5t11.5 24.5t5 21q0 1 -1 3t-1 3v6q0 4 -1 10t-1 10q0 6 10.5 11.5t10.5 19.5 q0 3 -1 10.5t-1 10.5q0 5 3.5 13.5t10 21.5t10.5 22q3 9 12.5 57t26.5 70q0 6 -1 13.5t-1 8.5q0 5 1 16.5t1 22.5v11q0 21 26.5 31t31.5 20h-13q-17 0 -47.5 -9t-36.5 -10q-15 -3 -47 -7t-47 -7q-17 -4 -78 -25.5t-98 -23.5q-15 -13 -51.5 -25t-44.5 -16q-8 -2 -21.5 -11 t-19.5 -12q-7 -4 -24 -8t-23 -8q-25 -12 -50 -26t-47.5 -27.5t-31.5 -18.5q1 0 -1 2.5t-4 6t-2 6.5v2q-6 0 -6 -7q0 -1 2 -7t2 -9q0 -4 -6 -10q-47 -15 -103.5 -72t-80.5 -72q-1 -15 -16 -42t-15 -46q0 -15 11.5 -53t11.5 -59zM1765 1903q-5 3 -18 12t-23 12q-13 5 -40 9.5 t-31 5.5q-41 20 -132 35.5t-130 37.5q-6 -4 -23 -4q-45 0 -127.5 9.5t-105.5 11.5q-8 0 -27 -4.5t-31 -4.5q-13 0 -42.5 4.5t-45.5 4.5q-21 0 -64 -8.5t-63 -8.5q-12 0 -39.5 4t-42.5 4q-16 0 -37.5 -14t-33.5 -14q-9 0 -13 4q-2 -4 -2 -8q0 -9 13 -9h16q12 0 12 -8 q-8 -26 -28.5 -73.5t-28.5 -69.5q-26 -78 -62.5 -210.5t-48.5 -172.5q-4 -14 -16 -37t-16 -35q-3 -10 -4 -34.5t-5 -36.5q-2 -8 -11 -25t-11 -25q-4 -10 -6.5 -23.5t-5.5 -29.5t-5 -26q-8 -28 -25 -70.5t-28.5 -73.5t-11.5 -43q0 -5 1 -14.5t1 -13.5q0 -13 -16.5 -45.5 t-16.5 -49.5v-12q0 -10 -7 -15t-7 -12q0 -5 3 -15t3 -15v-2q42 -31 117 -31q44 0 84 5t91.5 15t59.5 11q79 6 80 6q17 2 54 10t55 8q12 0 20 -2q8 13 21 18.5t35 8t30 4.5q4 1 36 13.5t52 12.5q3 0 8.5 -1t8.5 -1q6 9 23 18t30 9q8 0 12 -2q18 21 60.5 36.5t50.5 22.5 q5 5 8 5q2 0 6 -2.5t6 -2.5q5 0 6 7.5t6 9.5q117 44 263 135q5 3 16 12.5t16 12.5q6 4 20 8t19 8q9 6 36.5 36.5t51.5 35.5q10 23 30 39.5t37.5 25.5t20.5 14q2 1 20.5 35t44.5 69.5t48 43.5q35 73 43 103t8 94q0 35 -8.5 62.5t-18.5 43t-25 36t-23 36.5q-16 -1 -29.5 5.5 t-28 19t-22.5 16.5q-9 5 -26.5 11t-29 13.5t-16.5 22.5q-6 -3 -6 -8v-2v-3q-1 0 -3 1t-6.5 2t-9.5 2zM-279 944q4 -7 15.5 -13t24.5 -11t16 -7l8 -16l2 2q2 0 2 -2t-4 -8h4q6 0 13.5 4t13.5 4h10q89 -41 202 -72.5t199 -31.5q21 0 29 2q-1 18 -13 29.5t-26.5 16.5t-29 15 t-19.5 25q-33 7 -112 51.5t-113 44.5q-5 0 -14.5 -1t-14.5 -1q-11 0 -26 8.5t-23 9.5q-16 0 -47.5 -4t-50.5 -4q-16 0 -24.5 -19.5t-21.5 -21.5z" />
<glyph unicode="S" horiz-adv-x="1705" d="M1130 39q-15 0 -22.5 -11t-13.5 -28t-15 -25q-3 -3 -12.5 -4.5t-11.5 -5.5q-5 -5 -28.5 -30t-39.5 -39q-83 -63 -227 -113t-346 -62v3q0 3 -3 5.5t-5 2.5t-13 -5.5t-18 -5.5q-11 0 -31.5 3.5t-26.5 3.5q-7 0 -14 -4.5t-12 -4.5q-264 0 -502 82q-10 4 -31 8.5t-30 8.5 q-7 4 -21 16t-24 16q-14 8 -49.5 25t-49.5 27q-3 2 -4 12.5t-4 13.5q-2 2 -13.5 4t-13.5 5q-10 6 -14 13t-6 15.5t-6 14.5q-9 9 -24.5 22.5t-25 23.5t-14.5 21q-7 13 -11.5 40t-8.5 40q-4 11 -13 28.5t-13.5 34t-4.5 39.5q0 76 23 119q5 8 14.5 35.5t23 42t39.5 14.5 q11 0 15 -2q-72 -50 -72 -57l5 -14q1 -10 1 -21q0 -18 -13 -34.5t-13 -30.5q0 -27 8 -27q1 0 4.5 2t5.5 2q4 0 10 -14q1 -1 -2.5 -3t-8.5 -4t-9 -7t-4 -11q0 -15 26.5 -39t26.5 -41q0 -18 11.5 -37.5t43 -57t41.5 -50.5q11 -17 41 -29.5t47 -25.5q8 -5 32 -24t40 -26 q90 -44 232 -68t288 -24q105 0 229.5 20t223.5 54q12 4 33 8t34.5 9.5t26.5 17.5q6 7 33.5 15t36.5 13q7 5 20.5 23t22.5 25q9 6 27.5 14t23.5 12q8 6 33 45q31 37 42.5 53t28 48t22 68t5.5 87q0 76 -18.5 153.5t-49.5 133.5q-2 3 -11 4t-9 8q0 3 1 8.5t1 8.5q0 7 -11.5 16 t-15.5 16q-25 37 -119 154q-76 95 -98 119q-16 17 -53.5 49.5t-54.5 52.5q-85 88 -226 275q-2 3 -10 4.5t-8 9.5v14q0 6 -3 8t-8.5 3.5t-9.5 5.5q-3 4 -24 51q-80 139 -80 239q0 59 43.5 111t112.5 88q4 4 7.5 9.5t7 8.5t7.5 3q2 0 7 -1t8 -1q6 0 12.5 4.5t14 12t13.5 11.5 q81 39 212 69.5t257 39.5q4 0 8 2t6 4t3 2q55 0 130.5 -16t135.5 -39q1 0 13.5 -1t19.5 -5q4 -1 7 -10l3 -9q18 -5 53 -33q3 -2 13.5 -4t13.5 -4q3 -3 5 -12.5t5 -13.5q2 -3 19.5 -20.5t28 -33.5t10.5 -32q0 -7 -5 -17q60 -40 60 -244q0 -57 -8 -106.5t-22 -109.5t-21 -101 q-3 -16 -6 -49t-8.5 -57.5t-16.5 -43.5v-2v-12q0 2 -5 -3t-12.5 -11t-11.5 -6h2q-1 0 -8.5 4t-9.5 4q-28 15 -38.5 35t-10.5 57q0 32 8 72.5t20 84t15 58.5q2 13 12.5 67t16.5 99t6 84q1 89 -29.5 166t-81.5 117q-9 7 -15.5 11t-14 7t-12 4t-17 3.5t-21.5 4.5q-3 1 -25 10 t-43.5 14t-48.5 5q-271 0 -536 -131q-170 -85 -170 -195q0 -61 26 -128t74.5 -135t94 -122t108.5 -119q1 -3 4 -4t5.5 -1t4.5 -2t2 -5q0 -1 -1 -4.5t-1 -5.5q0 -7 16 -22.5t38.5 -34t27.5 -23.5q7 -8 22 -23q77 -81 119 -128t99.5 -134t95.5 -180q17 -39 33 -102.5 t16 -116.5q0 -47 -9 -83.5t-30.5 -89.5t-32.5 -89z" />
<glyph unicode="T" horiz-adv-x="1284" d="M2306 1886q1 -2 4.5 -7.5t3.5 -10.5q0 -19 -11.5 -34.5t-26.5 -28.5t-19 -21q-1 -1 -5 -7.5t-8.5 -12t-10 -12t-11.5 -10t-12 -3.5h-6q-10 0 -28 -12t-41.5 -28.5t-37.5 -23.5q-11 -5 -59.5 -21.5t-52.5 -17.5q-1 -1 -3 -4t-3.5 -4.5t-4.5 -1.5q-2 0 -4.5 1t-3.5 1 t-29.5 -13t-40.5 -13h-14q-4 0 -6 -4.5t-6 -6.5q-6 -2 -30 -6.5t-42 -11.5q-125 -33 -301 -57q-34 -5 -88 -13t-80.5 -11t-70.5 -7.5t-92.5 -6t-112.5 -1.5q-19 0 -58 1t-59 1v-2q-50 -111 -102 -247.5t-81.5 -222t-91 -271t-83.5 -251.5q-9 -28 -29 -83t-36.5 -108.5 t-33.5 -125.5q-8 -29 -65 -217q-2 -8 -5.5 -27.5t-6 -28t-11 -16.5t-22.5 -8q-37 0 -37 33q0 27 6.5 59t17 67.5t13.5 51.5q23 105 86 300t88 306q26 78 83.5 226.5t67.5 175.5q0 2 1 5t1 5q0 1 -1 5t-1 5q0 8 4 12q32 65 39.5 81.5t10 28t10.5 34.5q3 9 11 39.5t15 48.5 q1 4 23 46.5t27 69.5q-9 3 -15 3q4 8 4 10q-19 0 -56 -1t-56 -1q-1 0 -9 1t-12 1h-2h-59q0 4 -115.5 9t-155.5 5q-129 0 -298 -15.5t-285.5 -35t-116.5 -31.5v-4q0 -6 -47 -22.5t-47 -36.5q0 -8 4 -23t4 -24q0 -15 -8 -15q-15 0 -30 10t-24.5 19.5t-22.5 31.5t-16.5 28.5 t-13.5 27.5q5 15 28 27t26 26q86 39 116 39q15 0 36 10t40 11q33 7 211 26q28 3 98.5 11.5t124.5 13t101 4.5q11 0 42 -2t35 -2q16 0 59.5 1t69.5 1t74 -1t68 -1q1 1 16.5 3l31 4t15.5 3q54 -4 60 -4q16 0 28 2q0 -1 131 -14q2 2 2 6q6 0 14 11t17.5 30t17 36t16.5 38t11 26 q3 8 2.5 20t4.5 16.5t24 4.5q30 0 61 -24.5t31 -53.5q0 -14 -4.5 -22.5t-8 -10.5t-5.5 -2h-9q-9 0 -17 -7.5t-12.5 -15.5t-12.5 -24l-11 -22h19q-1 -1 -3.5 -2t-3.5 -2q12 0 33.5 -2t34.5 -2q33 2 100 5t118 6t81 7h37h4h3t2.5 0.5t2.5 1t2.5 0.5t2.5 1.5t3.5 2.5t4.5 2.5 t6 3.5q7 3 29.5 3.5t33.5 2.5q246 35 428 103q4 1 17 5.5t19.5 6.5t15 7.5t14.5 11.5q1 0 4 -1t4 -1q2 0 51 14q30 23 43 29q3 1 15.5 4t17.5 6q6 2 15 10.5t14 11.5q4 2 18.5 9t23 11.5t19.5 12.5t18 16q7 6 14.5 20.5t16.5 23t25 8.5q3 0 5.5 -4.5t5 -10t3.5 -6.5z" />
<glyph unicode="U" horiz-adv-x="2091" d="M125 -127q11 -14 39 -14h10q4 -2 12 -16.5t19 -16.5q88 14 231 94q8 4 21 15.5t18 15.5q11 8 40.5 26t45.5 29l14 14q4 2 13 4.5t12 4.5q3 3 7 11.5t7 10.5q5 3 13.5 4.5t11.5 3.5q104 82 131 111q1 1 32 22t55 41t24 29q0 2 -1 6.5t-1 5.5l2 5q2 0 5.5 -1.5t4.5 -1.5 q4 0 4 3q61 55 178.5 168.5t171.5 162.5q2 4 12.5 9.5t12.5 7.5q2 3 2.5 12t3.5 12q5 5 19.5 11t19.5 12q13 13 32.5 40t28.5 38q5 6 19.5 15t19.5 15q3 3 4.5 12t3.5 11q8 10 37.5 40.5t40.5 45.5q5 7 10.5 21.5t14.5 25.5q3 4 17.5 20.5t21.5 32.5q0 1 4 27t10 43 q4 15 15.5 41t15.5 39q5 17 17.5 62t21.5 69q5 12 14.5 24t9.5 17q0 2 -1 8.5t-1 9.5q0 5 9 11t10 8q6 13 22 50.5t28 62t29 53.5t36 44t38 15q28 0 54 -17.5t26 -44.5q0 -19 -25.5 -47.5t-31.5 -38.5q-2 -4 -3 -15t-3 -15q-4 -9 -18.5 -33t-20.5 -37q-9 -18 -21 -53.5 t-18 -48.5q-3 -6 -15 -19.5t-23.5 -32t-35 -81.5t-51.5 -162q-82 -294 -82 -572q0 -137 20 -237q13 -72 23.5 -115.5t38.5 -112.5t69 -129q20 -30 40 -42t34.5 -11t32.5 -6t33 -27q-6 -30 -49 -30q-17 0 -34.5 8.5t-17.5 13.5q-31 14 -54 32.5t-31.5 29t-30.5 41.5 q-3 4 -15.5 14.5t-15.5 15.5q-5 8 -11.5 30.5t-11.5 31.5q-4 8 -15.5 23.5t-14.5 25.5q-3 6 -5.5 19.5t-3.5 17.5q-2 3 -8 10.5t-8 13.5q-61 177 -61 457q0 212 37 373q-2 2 -11 2t-16.5 -8t-15 -22t-9.5 -17q-55 -55 -80 -86q-6 -8 -17.5 -25t-18.5 -26t-18 -19t-23 -14 q-5 -23 -18 -40.5t-40 -40t-35 -30.5q-3 -2 -4 -11t-4 -11q-43 -28 -89 -74.5t-104 -112t-93 -100.5q-4 -3 -13 -5t-12 -5q-2 -1 -4 -7.5t-2 -7.5q-4 -3 -17 -8t-16 -8q-8 -7 -23.5 -26.5t-23.5 -26.5q-5 -4 -19.5 -8.5t-19.5 -8.5q-14 -12 -38 -35t-38 -34 q-165 -128 -311 -201q-3 -1 -21.5 -12t-30 -16.5t-37.5 -11t-56 -5.5q-73 0 -136 29q-6 3 -20 16.5t-27 13.5q-47 81 -47 172q0 63 33 185q2 10 10.5 31t11.5 32q4 10 8.5 35t8.5 35q6 21 22.5 62t22.5 61q5 17 15.5 51t19.5 61t20 52q70 191 70 194q0 4 -1 12t-1 11 q0 9 9 12t9 6q4 7 4 24t4 29q13 45 44.5 137.5t39.5 118.5q2 5 6.5 13t7.5 14.5t3 11.5q0 4 -1 12t-1 11q0 6 2 8q102 339 117 397q1 5 13.5 52t14.5 56t12 50.5t13 56.5t10.5 51.5t10 57.5t6 52t5 58t1.5 54v12v13t-0.5 11.5t-2 11t-4.5 8.5t-7 7t-10.5 4t-14.5 2 q-11 0 -33.5 -5.5t-30.5 -6.5q-9 -3 -30 -4.5t-31 -5.5q-6 -2 -22 -12.5t-27 -10.5q-3 0 -11.5 1t-11.5 1h-6q-7 -7 -15.5 -13t-14.5 -10t-17.5 -9t-17 -7l-22 -8t-22.5 -8q-5 -3 -10 -9.5t-12 -6.5h-21q-7 0 -18 -13.5t-16 -17.5q-6 -4 -32.5 -17t-57.5 -31t-58 -38h-2 q-1 0 -5 1t-5 1q-4 0 -4 -4q0 -1 1 -4.5t1 -5.5q0 -6 -15.5 -14t-36.5 -16.5t-28 -12.5q-5 -3 -21.5 -17.5t-23.5 -19.5l-95 -56q-25 -16 -30 -22q-2 -2 -3 -8t-2.5 -11.5t-4.5 -5.5q-1 0 -5 1t-6 1q-4 0 -4 -4q0 -1 1 -4.5t1 -5.5q0 -3 -7.5 -6t-8.5 -4q-9 -8 -27.5 -24 t-30 -27.5t-20.5 -26.5q-3 -5 -12 -18.5t-12.5 -17.5t-11 -13t-13 -12t-14.5 -6t-19 -3q-13 0 -28 9.5t-15 29.5q0 23 14.5 47t30.5 39.5t43.5 38t36.5 31.5q4 4 28 26.5t34 31.5t38 32.5t52.5 41t64.5 45t86 56.5q29 15 39 23q3 4 29 15.5t33 15.5q3 1 5.5 8.5t4.5 7.5 t5 -1t5 -1q5 0 7 8t5 8h11q5 0 7.5 7.5t4.5 9.5q11 5 82 40t143 60q17 6 49 19t47.5 18.5t42 10.5t54.5 5q82 0 141 -45q1 -8 13 -22.5t12 -20.5q0 -4 -1 -10.5t-1 -9.5q0 -7 7.5 -11t8.5 -10q4 -28 4 -43q0 -62 -12 -139t-22.5 -120.5t-38.5 -144t-34 -122.5 q-5 -17 -13 -65.5t-17 -73.5q-32 -96 -84.5 -268t-77.5 -252q-14 -44 -46.5 -138t-47.5 -143q-4 -13 -7.5 -39.5t-7.5 -38.5q-2 -6 -12.5 -13t-11.5 -9q-2 -6 -4 -21.5t-2 -17.5q-15 -39 -39 -148q-2 -5 -10.5 -18t-8.5 -19q0 -2 1 -6.5t1 -5.5q0 -6 -7 -9t-7 -5 q-7 -15 -10 -40.5t-6 -35.5q-45 -122 -45 -207q0 -47 12 -90z" />
<glyph unicode="V" horiz-adv-x="1542" d="M1819 2054q4 0 5 -2t1.5 -5.5t1.5 -4.5q-1 -4 -11 -39.5t-18 -52.5q-8 -26 -35.5 -82t-38.5 -86l-4.5 -13.5t-5.5 -14.5t-6 -13t-7 -14t-8.5 -11t-11.5 -10q2 -2 2 -10q0 -26 -24 -43q-5 -15 -13.5 -43t-13.5 -43q-10 -3 -20.5 -19t-20.5 -18q0 -33 -30.5 -80.5 t-30.5 -48.5v-17q-29 -32 -41 -57q-23 -39 -88.5 -141t-97.5 -160q-8 -3 -22 -21.5t-50.5 -69.5t-75.5 -101q-14 -19 -38 -56.5t-30 -46.5q-7 -9 -26 -26.5t-29.5 -33t-13.5 -34.5q-21 -6 -51.5 -41t-30.5 -55v-4l-31 -31h-10q-5 0 -20 -23.5t-34 -50.5t-32 -33 q0 -4 -1.5 -8t-3.5 -6l-1 -2q-2 0 -6.5 1t-5.5 1q-4 0 -10.5 -12t-14 -28t-12.5 -21l-7 -2q-7 -3 -8 -7q0 -1 1 -3.5t1 -4.5q0 -6 -9 -7t-11 -3t-21 -35q-8 -9 -34.5 -36t-42.5 -48q-19 -19 -50.5 -57.5t-54.5 -57.5q-2 -2 -8.5 -15.5t-11.5 -16.5q-4 -5 -17 -11.5 t-18 -11.5q-2 -1 -3 -8.5t-3 -9.5l-29 -26q-29 -26 -29 -32q2 -6 2 -8q0 -4 -6 -4q-1 0 -3 1t-3 1q-2 0 -20 -22.5t-41 -47.5t-37 -30q-23 -9 -40 -18t-23.5 -12.5t-15 -6t-22.5 -2.5q-34 0 -58.5 10t-36 22.5t-28.5 31t-32 28.5q2 2 2 6q0 9 -6 22.5t-6 26.5q0 4 10 86 q3 19 6 57.5t6 55.5q20 34 25.5 50t3 21.5t4 34.5t26.5 80q0 8 9 21.5t10 21.5q2 8 3 26t3 26q3 7 11.5 20.5t11.5 24.5q18 58 48 175.5t38 147.5q21 31 22 41q-2 0 -4 2.5t-2 3.5q6 1 6 9q3 23 27 77.5t24 81.5q0 4 -1 12.5t-1 12.5q0 19 13 48.5t30 53.5q0 35 4.5 56.5 t22.5 56.5q3 8 3.5 29t4.5 32q2 8 9.5 23t9.5 24q3 13 7.5 42.5t10 58.5t12.5 57q2 9 8 24.5t7 22.5q0 5 -4.5 19t-4.5 24q0 12 1 33t1 31q0 87 -53 123q0 -1 -12.5 5.5t-41 15.5t-60.5 11q-6 0 -19.5 -1t-19.5 -1q-10 0 -32.5 4.5t-31.5 4.5q-16 0 -49.5 -8.5t-42.5 -10.5 q-25 -7 -59.5 -11.5t-61.5 -10.5t-53 -21q-3 0 -9.5 1t-9.5 1q-14 0 -49 -20.5t-63 -20.5q-12 -14 -43.5 -27t-44.5 -26q-5 -2 -25.5 -7.5t-30.5 -11.5q-3 -2 -8.5 -8.5t-9.5 -9.5q-1 -1 -11 -2t-12 -2q-3 -3 -4 -11.5t-4 -9.5q-2 -1 -21 -9t-36.5 -16.5t-33 -24 t-15.5 -31.5q0 -13 7.5 -20.5t17 -10t17 -10t7.5 -19.5q0 -16 -16 -16q-5 0 -15 2t-16 2q-3 0 -10 -1t-9 -1l-6 2q-25 9 -30 14q-7 4 -15.5 21.5t-13.5 23.5q0 -3 -7 4t-14.5 21.5t-7.5 30.5q27 51 35 59q3 2 11.5 2.5t11.5 1.5q2 2 4 9.5t4 8.5q14 7 38.5 30.5t34.5 31.5 q37 9 39 10q5 3 24.5 14.5t29.5 18.5q18 11 96 41q35 20 41 20q3 0 8 -1t8 -1q5 0 8.5 6.5t10.5 8.5q74 29 178.5 48t193.5 19q117 0 181 -26q13 -6 49.5 -27t62.5 -31q39 -39 69 -96.5t30 -85.5q0 -10 -1 -28t-1 -27q0 -7 3 -20t3 -17q-4 -47 -14.5 -103.5t-17.5 -84.5 t-28 -103t-24 -86q-2 -9 -2.5 -28t-1.5 -25q-1 -4 -11.5 -19.5t-19 -35.5t-8.5 -39v-17q0 -9 -15 -14q-11 -55 -45 -184l-6 -13q-5 -13 -13.5 -33.5t-16.5 -44t-13.5 -50t-5.5 -46.5q0 -4 1 -11t1 -9q0 -6 -8.5 -10t-9.5 -9q-4 -15 -11 -47t-14 -55t-18 -47 q-6 -13 -19.5 -81t-34.5 -122q-2 -13 -14 -48t-12 -48v-15q0 -6 -7 -9.5t-8 -10.5q-12 -49 -12 -139q0 -22 4 -62q27 6 52 17.5t49 32.5t38.5 35t41 43t36.5 40q26 26 87.5 95t93.5 102q12 13 48 57t83 96q86 94 131 152q7 9 23.5 33t29.5 39.5t29 27.5q6 4 11 16.5t12 21.5 t22 9h6q0 12 6 24.5t12.5 20t19 20.5t17.5 19q9 21 43 62q1 1 12.5 16.5t23 25t23.5 9.5l6 18t6.5 17.5t7 13t11.5 10.5t17 4q-5 7 -5 13q0 8 12 13.5t13 8.5q3 7 12.5 23.5t14.5 25.5q34 34 46 47.5t14 20t4 14.5t24 40.5t67 88.5q10 25 39 65.5t41 65.5q2 2 5 11.5t5 11.5 q28 31 68 115q4 8 28.5 34.5t24.5 34.5v4q0 2 2 2l15 -6q6 2 6 6q0 1 -10.5 6t-10.5 11t16 36.5t32 57.5l16 27q2 0 4 -6.5t8 -6.5q1 0 7.5 10.5t18 24t23.5 19.5q0 19 18.5 42.5t18.5 45.5q0 4 17 26t26 27q-2 2 -2 10q0 15 15.5 33t15.5 25q0 4 -4 8q24 27 39 61z" />
<glyph unicode="W" horiz-adv-x="2793" d="M147 -227q20 -4 56 -4q38 0 63 8q2 0 2 2.5t1.5 5t4.5 2.5q8 -4 15 -4q15 0 45.5 23.5t54.5 23.5q12 4 49 35t60 45q30 2 30 12q0 2 -1 5.5t-1 4.5q0 3 12.5 6t12.5 5q5 3 32.5 29.5t58.5 52t50 30.5q4 2 13.5 12t17 19.5t6.5 9.5q1 0 4 -2t4 -2q11 6 22.5 21.5 t22.5 15.5v12q0 4 6 4h15q4 0 9.5 5.5t12 15.5t9.5 14q4 4 14 9.5t17 10t7 7.5v2q33 43 60 47q2 6 9 15.5t19.5 23.5t18.5 22q10 0 10 2l11 17q-6 -11 20 12q32 27 108 103q2 2 4 13t9 11q3 0 16 12t33 31t33 29q4 8 11 17t13 15.5t17.5 18t17.5 18.5l15 26q13 20 26 28 q1 2 8.5 5t9.5 5q4 5 11 20.5t14 20.5q7 0 15 8.5t8 20.5q1 0 4 -2.5t4 -2.5q9 12 23 46t18 73q30 19 30 51v13q5 12 19.5 29t19.5 26q0 21 16.5 52t16.5 32t-1 2.5t-1 3.5q0 7 6 17.5t14 22.5t11 17q5 8 31.5 74t54.5 103q0 -2 2.5 2t7 12.5t8.5 16.5t8.5 16.5t4.5 9.5 q0 2 5 2.5t5 1.5q1 2 13.5 29.5t25 50.5t30 50.5t36.5 44t36 16.5q19 0 41.5 -13.5t30.5 -27.5q-9 -40 -23 -81.5t-40 -94.5t-38 -77.5t-49 -90.5t-41 -74q0 -1 -16.5 -26.5t-39 -61.5t-36.5 -60q-3 -5 -50 -65.5t-58 -100.5q-27 -26 -52.5 -93.5t-38.5 -84.5 q-47 -151 -81 -327v-5q0 -4 1 -7l1 -3q-1 -12 -4.5 -28t-4.5 -25q4 -6 4 -12v-2h-4h-4q6 -4 6 -6q0 -5 -3 -20.5t-3 -25.5q0 -40 11.5 -88.5t25.5 -72.5q4 -4 20.5 -26t37.5 -35t57 -17q2 -2 10 -2q9 0 28.5 5.5t22.5 6.5q138 27 224 96q11 8 64.5 50t79 62.5t67.5 56.5 t73 67q-2 0 6.5 7t18.5 17t12 15q8 18 29 39t35 24q4 10 26.5 40.5t50.5 58.5q1 2 10 6t15 10q4 5 6.5 17.5t11.5 17.5q-1 0 15 16.5t38.5 37.5t34.5 32q9 27 31 49q6 9 20.5 37t30 47t35.5 27q0 15 7.5 28.5t22 31t21.5 28.5q96 221 121 221h6q-2 2 -2 10q0 15 6.5 31.5 t18.5 37t16 31.5q5 6 7.5 22t3.5 19t14 27.5t20 48.5q15 23 29 66.5t16 48.5q1 6 14 84.5t13 120.5q0 46 -27 77q-21 0 -30 -28h-11q-7 0 -15.5 -10.5t-14.5 -10.5q-2 0 -9 -13t-26 -13q-39 0 -39 36q0 14 7.5 26t19.5 15q9 11 19 30t20 25.5t32 6.5q34 0 77.5 -27t51.5 -65 v-11q0 -7 7.5 -28t7.5 -33q0 -76 -35 -195v-4q0 -13 -29 -125q-23 -30 -49.5 -107.5t-32.5 -90.5q-33 -68 -109.5 -189.5t-97.5 -158.5q-1 -1 -4.5 -3.5t-8 -6t-7.5 -7.5q-3 -2 -14.5 -28.5t-16.5 -32.5q-31 -28 -42.5 -42.5t-20.5 -39.5q-60 -60 -64 -72 q-17 -18 -82.5 -95.5t-105.5 -115.5q-115 -121 -131 -121h-8v-6q0 -12 -17.5 -24t-21.5 -17h1q-2 -12 -24 -36q-12 -13 -20 -13q-2 0 -6.5 1t-6.5 1q-5 0 -28 -20t-51 -45t-42 -33q-4 -4 -15 -5.5t-15 -4.5q-32 -30 -79.5 -50t-70.5 -20q-45 -25 -90 -25q-144 0 -229 119 q-1 2 -23 34.5t-22 47.5q0 2 3 6t3 6q0 9 -5 24t-5 19v33q0 5 -2 12l-2 7l4 10v78q2 49 11.5 96.5t28.5 115t25 91.5q-2 2 -6 2q-5 0 -11 -5t-14 -5q-5 -2 -7 -12.5t-7 -10.5q-2 0 -5.5 3t-4.5 3q-2 -2 -4.5 -13t-5.5 -15q-17 -13 -82.5 -83t-104.5 -102q-10 -10 -56 -50.5 t-46 -37.5q0 -2 2 -5.5t2 -4.5l-2 -2h-10q1 0 -5.5 -8t-18.5 -19.5t-23 -19.5q-17 -24 -51.5 -50t-45.5 -36q-85 -73 -90 -76q0 7 -8 -7q-18 -32 -27 -32q-51 -25 -51 -33q0 -1 1 -3t1 -3q0 -5 -11 -14.5t-30.5 -22.5t-35 -22.5t-38 -23.5t-24.5 -15q-2 -2 -2 -5t-2 -3 q-1 0 -4 1t-4 1q-2 0 -11 -7t-23 -17.5t-24 -16.5q-127 -76 -204 -76q-32 0 -89.5 24t-74.5 54q-6 2 -6 8q0 -2 -8 8q-22 29 -23 47v4v2q0 1 3 4.5t5 6.5q0 1 -5 2.5t-5 7.5q0 4 2 9.5t3.5 8t0.5 2.5q-10 10 -10 29q0 6 3 24t3 29q0 3 -1 8t-1 9q1 10 7.5 29t8.5 26 q-6 6 -6 10q0 2 2 4q7 26 32 124t44 157q2 22 21.5 61.5t19.5 55.5q0 1 -2 5t-2 5v2l18 35q-2 0 -2 4q0 9 17 51.5t18 56.5q10 30 28.5 87t28.5 90q10 18 20.5 54.5t14.5 47.5q21 101 92.5 311.5t87.5 266.5q54 163 70 245q1 6 3.5 26t4.5 29.5t8 23t15 22.5q0 4 -1 12 t-1 12q0 8 1 26t1 27q0 43 -9 52q-10 10 -30 10q-35 0 -75 -14t-99 -43t-78 -37q-21 -12 -74 -53t-86 -54q-8 -22 -41 -51q-1 -1 -30.5 -32.5t-32.5 -31.5h-13q-17 -28 -59 -78t-53 -67v-16q0 -8 -3 -11.5t-8 -5.5t-8 -6q0 -56 -22 -102q12 -12 12 -29q0 -3 -1 -11t-1 -11 q0 -17 14 -41t17 -31q3 -5 17.5 -19.5t14.5 -31.5q0 -1 -1 -5t-1 -6q-22 0 -60.5 29.5t-53.5 79.5q-16 8 -23 72q0 63 22.5 122.5t65 114t87.5 98.5t106 93q20 23 30 30v2q70 60 101 60v6q0 10 12 10q0 2 20.5 16t62 36.5t85.5 41.5q67 31 119 31q59 0 98 -36.5t45 -96.5 q0 -22 -4.5 -45.5t-14 -57.5t-14.5 -55l-6 -42t-8 -48t-10 -37q-2 -8 -12.5 -33t-10.5 -36q0 -1 2 -4.5t2 -5.5v-3q-10 -17 -16.5 -36t-12 -44.5t-9.5 -37.5q-9 -2 -9 -4t1 -5.5t1 -5.5q0 -11 -18 -53q-4 -12 -14.5 -56t-20.5 -69q0 -7 -5.5 -13.5t-6.5 -10.5t-5 -25 t-8 -34.5t-10 -26.5q-6 -4 -10 -14t-6 -19t-5 -26.5t-5 -26.5q-15 -20 -15 -27q-6 -19 -15 -57.5t-15 -57.5q-2 -4 -10.5 -10.5t-8.5 -13.5q0 -2 1 -8t1 -9q0 -21 -33 -59q-4 -49 -8 -59q-13 -45 -78.5 -241t-96 -330t-30.5 -257q0 -70 41 -104z" />
<glyph unicode="X" horiz-adv-x="1280" d="M-190 -211q0 1 -1.5 3.5t-1.5 4.5q0 9 25 39q4 2 6 6t3.5 11t2.5 10q1 1 6.5 2t6.5 2q0 1 2 6l4 10t5.5 9t6.5 4h4q2 0 2 4v6q0 8 24 36.5t27 34.5q2 3 7.5 16.5t11.5 20.5q12 0 12 4v7q0 6 8.5 18.5t24.5 31t18 21.5q1 2 11.5 15.5t26.5 37t30 48.5q23 42 49.5 77t60 73 t50.5 59q7 10 36.5 48t46.5 66t17 45q0 16 -18 86q-1 4 -19.5 104t-32.5 160q-8 32 -8 33q0 5 1 9l1 4q0 2 -0.5 3.5t-2 5.5t-3.5 9q8 0 8 4q0 21 -24 139q-4 8 -4 21q6 4 6 6q0 1 -3 5t-3 7q0 13 8 21q-12 19 -12 51q0 7 1 22.5t1 22.5q0 17 -7 45t-8 39q0 13 4 45 q-6 6 -6 12q0 3 4 7.5t4 7.5q-1 4 -7.5 17t-6.5 26q0 11 2 36.5t2 38.5q0 8 -4 21.5t-4 21.5q-2 23 -4.5 68.5t-4.5 72.5t-9.5 66.5t-20.5 75.5q-6 38 -18.5 58.5t-40.5 43.5q-59 -4 -108 -39.5t-99 -93.5q-8 -11 -29 -40t-31 -44t-25.5 -44.5t-27.5 -61.5q-24 -54 -24 -90 v-11q-2 -2 -9 -2q-55 0 -55 54q0 30 24 82.5t33 52.5q5 0 5 6q0 3 -3.5 7t-3.5 7q40 58 50 74q4 5 14 14.5t15.5 16t12 16.5t9.5 19q0 4 6 4h10q4 0 4 2q-3 -2 -2 1q4 16 40 53q33 33 50 34q2 0 19.5 7.5t42 15.5t45.5 8q56 0 97.5 -38t59.5 -114q2 -4 7 -11.5t6.5 -11 t3.5 -10t2 -12.5v-19q0 -8 11 -56t11 -75v-49q0 -22 6.5 -61t6.5 -55q0 -10 -1 -32t-1 -32q0 -133 20 -328q0 -7 3 -19t3 -18q6 -21 7.5 -63t3.5 -57q3 -13 10 -45t11.5 -56.5t4.5 -40.5q0 -2 -3 -4t-3 -4q6 -31 23.5 -99t23.5 -100q13 1 23.5 19t25.5 18q6 26 42.5 69 t66.5 58q13 40 14 41q23 16 29 25q7 5 31.5 40.5t42.5 35.5q8 22 23.5 43.5t24 31t36.5 35t32 29.5q4 11 13 16q12 7 28 27t21 45q24 12 65 61q4 5 8 14.5t7 12.5q13 16 48 48t52 54q3 2 8 13.5t8 11.5h6q4 0 7.5 14.5t17.5 16.5q19 19 81.5 90.5t102.5 109.5l4 3 q4 2 10 6.5t13.5 10.5t16.5 15.5t18 20.5q1 1 2.5 7.5t3.5 8.5l63 63t42 41.5t39 36.5t64.5 58.5t108.5 95.5q55 49 88 49q20 0 39.5 -14.5t20.5 -38.5q-21 -1 -39 -8.5t-37 -19.5t-31 -17q-32 -32 -98.5 -91t-91.5 -83q0 -1 -1.5 -6t-3.5 -8t-5 -3h-9h-2v-8v-2h-8 q-1 0 -12 -17.5t-23 -17.5h-4q-6 -18 -33 -38.5t-32 -26.5q-28 -33 -67.5 -74.5t-95.5 -98t-85 -87.5q-9 -9 -30.5 -37.5t-37.5 -42.5q-46 -46 -53 -55q4 2 -13 -20.5t-37.5 -45.5t-27.5 -23q-3 0 -6 7q2 -4 2 -11q0 -6 -10 -9t-10 -7v-6q0 -8 -32 -42t-38 -50 q-17 -6 -36.5 -31t-33.5 -31q-12 -22 -31 -47t-29.5 -37t-40 -43.5t-34.5 -36.5q-1 -1 -1.5 -4.5t-2 -6.5t-4.5 -5l-33 -28q-32 -30 -32 -48v-6q0 -2 -2 -2l-9 2q-2 0 -7.5 -6.5t-13 -17t-9.5 -13.5q-26 -26 -54 -63.5t-28 -61.5q0 -18 12 -55t32 -90t29 -80t28 -64t26 -59 q17 -37 88 -153q2 -3 4 -10.5t4 -10.5q11 -14 33 -35.5t30 -31.5q9 -10 29 -37.5t33 -38.5q86 -77 229 -150q25 -13 88 -24t92 -23q-8 -14 -22 -14q-10 0 -30 6.5t-29 7.5q-6 0 -14 -3t-11 -3q-16 0 -39 7t-52 19t-40 15q-2 0 -3 6t-9 6h-7q-18 0 -33.5 8.5t-27 20 l-12.5 12.5q-7 5 -18.5 8.5t-30 17t-48.5 46.5q-28 14 -28 18l2 8l-2 3h-6h-2q-143 129 -234 352q-3 8 -22 37.5t-19 42.5t-7 18.5t-7 7.5t2 7t2 6v2q-10 19 -27.5 68.5t-34.5 74.5q-12 -1 -23.5 -18t-27.5 -17q-7 -38 -44.5 -79.5t-59.5 -49.5q0 -24 -19 -44t-20 -38 q-15 -9 -32 -26.5t-17 -28.5v-8q0 -5 -3 -6t-6 -1t-4 -3q-32 -40 -55 -76l-24 -36l-31 -46.5t-29 -42t-26.5 -35t-14.5 -12.5t-10 4q0 -36 -61 -88q0 -18 -8 -23.5t-27 -5.5h-10z" />
<glyph unicode="Y" horiz-adv-x="2680" d="M526 74q1 0 5.5 -1t5.5 -1q87 0 194 96q10 6 43 30.5t53 32.5q16 25 69 59t65 68q25 5 52 33t36 33q6 5 13.5 12.5t15.5 16t12 12.5q3 5 11.5 9.5t13.5 11.5t5 22q20 5 36 17t35.5 33.5t25.5 27.5q8 7 23.5 19.5t24.5 20t20 20t18 24.5q17 5 35.5 29t23.5 28 q11 8 41.5 28.5t46 36t23.5 35.5q17 2 31 27t18 29q12 10 60 59.5t91 85.5q15 13 47.5 56.5t44.5 50.5q2 3 11.5 6t11.5 6q5 7 16 28t23.5 32.5t30.5 13.5q4 27 12 36q1 4 9.5 5t8.5 6v8q0 6 5 11.5t10.5 9t11.5 5.5l6 3q3 3 4 13t4 13q5 6 20.5 19t22.5 22q3 3 15.5 23 t25.5 26q12 36 78 102t100 66q9 0 17.5 -3t14 -6t13.5 -11.5t11 -12.5t12.5 -16.5t11.5 -15.5q-4 -43 -13 -85t-26 -90t-27 -75t-35 -84.5t-32 -73.5q-6 -13 -24 -59.5t-50.5 -124t-89.5 -209.5l-6 -1q-6 -1 -8 -5v-8q0 -20 -23.5 -74t-42.5 -68q0 -2 1 -5.5t1 -4.5 q0 -15 -11.5 -38.5t-24.5 -35.5q-3 -8 -6.5 -26t-6.5 -25l-15 -22.5t-22.5 -35.5t-18.5 -36t-9 -31l2 -10q-1 -3 -7.5 -6.5t-7.5 -5.5q-3 -9 -5.5 -26.5t-7 -31t-15.5 -22.5q-3 -3 -5 -12t-4.5 -23t-5.5 -23q0 -1 -6 -3.5t-6 -4.5q0 -4 6 -4q-2 -4 -8 -7.5t-6 -10.5 q0 -3 1 -8.5t1 -8.5t-6.5 -13.5t-15.5 -25t-13 -24.5q-41 -90 -41 -123v-6q14 2 25 10t27 26.5t20 22.5q33 36 82 72q1 2 2 13t6 14q23 23 61 43.5t72 50.5q13 13 18 27t25 30q10 7 17 11t9.5 6t8.5 7t18 17q5 4 22.5 11.5t27.5 13.5q10 8 29.5 24.5t29.5 24.5q6 3 22 7 t21 7q6 4 12.5 14t12.5 13q10 5 35 15.5t36 17.5q51 29 104 50t120.5 42.5t105.5 36.5q6 1 48 13.5t67 16.5q2 -4 2 -10q0 -10 -14 -18.5t-17 -12.5q-2 -1 -3 -4t-1.5 -5.5t-1.5 -2.5q-7 -4 -28 -8t-30 -8q-6 -2 -20 -10.5t-20 -10.5q-9 -3 -29 -8t-29 -8 q-31 -11 -80.5 -36.5t-87 -46.5t-43.5 -22q-3 -1 -12.5 -3t-14.5 -4t-10 -7q-1 -2 -2 -4.5t-1 -4t-1 -3t-2.5 -2t-3.5 -0.5h-6q-3 0 -15.5 -8t-17.5 -13q-11 -11 -56.5 -33.5t-57.5 -35.5q-3 -2 -7 -10t-6 -9q-5 -4 -29 -15.5t-41.5 -24t-17.5 -25.5q0 -5 4 -5q1 0 3 1.5 t3 1.5q0 -8 -10.5 -10.5t-26 -4t-22.5 -6.5q-3 -1 -15.5 -19t-15.5 -20q-18 -15 -36 -41.5t-42 -42.5q-121 -98 -217 -248q-1 -1 -8 -4.5t-12.5 -7.5t-5.5 -8q0 -2 1 -5.5t1 -4.5q0 -5 -15.5 -19.5t-19.5 -23.5q-53 -108 -115 -252q-24 -55 -26 -64q-14 -37 -37 -129.5 t-43 -140.5q0 -6 4 -14.5t4 -14.5q0 -2 -1 -5.5t-1 -4.5q-9 -2 -14 -21t-15 -20l4 -12q0 -13 -14 -20t-25 -7q-24 0 -41 10t-25 20.5t-11 10.5v23q0 22 9 58t9 48v14q0 14 12 37.5t15 34.5q3 7 14.5 50t28.5 71q1 2 6.5 4.5t5.5 9.5v11q0 10 11.5 16t11.5 16v15 q0 6 13.5 34.5t34.5 74.5t33 85q2 7 10.5 18.5t10.5 16.5q3 8 7 26.5t10 31.5t16 22q5 23 12 46t20 57.5t17 45.5q2 5 13.5 22t19.5 33.5t8 30.5v13q0 4 6 9t6 9q2 5 7 22t11.5 27.5t18.5 16.5q-2 10 -2 20q0 6 2.5 11.5t5 9t7.5 9t7 7.5l2 15q3 15 5 22q15 32 25.5 66.5 t31.5 82.5q4 12 19 33.5t20 32.5q13 28 29 83.5t24 76.5q3 7 11.5 16t9.5 14q4 11 9.5 34t12.5 36q31 52 41 74l9 25q9 24 18.5 41t21.5 26q27 137 88 203q-2 6 -2 20q0 20 8 44t22 53.5t19 43.5q2 4 11 11.5t10 13.5q2 4 20 74q2 5 6.5 12t6.5 13t2 12v4q0 4 2 6 q20 50 49 155h-6q-23 0 -195 -208q-4 -4 -13 -21t-22 -32t-32 -21q0 -16 -6.5 -25.5t-16.5 -17.5t-14 -15q-3 -2 -4 -8.5t-4 -9.5q-4 -4 -18.5 -14t-26 -18t-11.5 -11q0 -1 2 -3.5t2 -4.5q0 -4 -14.5 -8t-17.5 -13q-7 -14 -25.5 -33.5t-32.5 -34.5t-14 -22q-47 -24 -60 -59 q-15 -3 -34.5 -24t-36.5 -23q-6 -21 -39 -62q-2 -5 -11 -8t-10 -4q-18 -25 -29 -34t-40 -25q0 -18 -29 -38.5t-29 -41.5q-27 -6 -56 -38.5t-50 -39.5q-10 -3 -10 -8q0 -2 1 -6.5t1 -6.5q0 1 -8 -8t-22.5 -23t-27.5 -20q-2 -2 -8.5 -3t-9.5 -3q-20 -28 -39.5 -48t-49.5 -45 t-46 -40q-3 -4 -5.5 -9.5t-7 -10t-14.5 -9.5q-14 -20 -40 -42.5t-44 -22.5h-4q-1 -10 -8 -18t-20 -16.5t-19 -14.5q-6 -7 -18 -25.5t-19 -26.5q-9 -6 -32.5 -17.5t-26.5 -14.5q-5 -4 -27 -22.5t-39 -26.5h-10h-2v-11q0 -10 -43 -26.5t-57 -16.5q-6 0 -17 1t-16 1 q-1 0 -18.5 2t-26 3t-26.5 6.5t-29.5 13t-24.5 20.5t-21 31l-14 30q-14 39 -14 66q0 4 4 8.5t4 8.5v14q0 22 4 55t8 57.5t11.5 67t9.5 56.5q1 7 16 98t31 137q1 5 6.5 15t5.5 14t-3 11.5t-3 12.5q0 6 8 16.5t8 16.5q0 4 -1 7t-1 5q0 7 2 9q4 20 22.5 126t35.5 186t41 167v8 v14q3 15 15 82t18 104t12 100.5t6 119.5q0 75 -27 125q-35 14 -90 14q-41 0 -90 -18q-9 -5 -40.5 -12.5t-39.5 -10.5q-17 -6 -32 -12.5t-31 -14.5t-26.5 -13.5t-27.5 -15.5t-24 -14t-25 -16.5t-22.5 -15t-25 -17t-23.5 -16.5q-15 -11 -54 -43.5t-63 -46.5q0 -11 -14 -25 t-36.5 -33t-33.5 -32q-2 -2 -3.5 -10.5t-4.5 -10.5l-13 -6q-12 -7 -12 -12q0 -2 1 -6t1 -6q0 -7 -19 -25t-22 -23q-69 -77 -69 -94v-12v-4q-12 -17 -31 -52t-35 -50q4 -4 4 -13q0 -8 -10 -41.5t-10 -52.5q0 -27 17.5 -39t39.5 -12.5t42 -8t23 -26.5q-10 -18 -36 -18 q-20 0 -34 5.5t-20.5 11t-7.5 5.5h-12h-2q-45 19 -67.5 43.5t-22.5 63.5q0 24 8 51q1 6 15 28.5t14 32.5v10q0 5 2.5 7.5t6.5 2.5l3 1q0 2 2 14t4 16q20 36 61 99q14 22 47 66t59.5 77t27.5 33h10h2v10q69 79 166 158q15 12 54.5 33.5t59.5 37.5q8 4 22.5 20.5t18.5 16.5h15 q9 0 25.5 8t38.5 20t34 17q39 15 105.5 31t93.5 16q32 0 73.5 -19.5t53.5 -20.5q34 -48 50.5 -92.5t16.5 -112.5q0 -2 -1 -5.5t-1 -5.5q0 -3 3 -14.5t3 -19.5q0 -19 -8 -35q-4 0 -4 -2q0 -1 6 -7t6 -10q0 -3 -8 -6q-1 -6 -3 -50t-13 -73v-28q0 -66 -12 -79q-5 -4 -11 -5 q4 -16 4 -29q0 -52 -14.5 -129.5t-36.5 -103.5q2 -10 2 -27q0 -20 -10 -55t-10 -49q0 -2 1 -6t1 -7q0 -8 -7 -19t-8 -16q0 -1 0.5 -3.5t1 -6.5t0.5 -8q0 -26 -16 -31v-10q0 -61 -35 -227q-2 -10 -9.5 -28.5t-10.5 -29.5q-28 -170 -35 -239q-1 -5 -7.5 -31t-6.5 -39 q0 -58 5 -87.5t23 -57.5z" />
<glyph unicode="Z" horiz-adv-x="2048" d="M1280 821q11 -17 73 -44.5t85 -45.5q5 -3 11 -10t9 -10q17 -15 38.5 -38t45 -60.5t23.5 -65.5v-29q0 -19 6 -49.5t6 -46.5q0 -38 -4 -77t-15 -86.5t-18 -76.5t-26 -85t-24 -71t-28 -76l-22 -61q41 4 92.5 23t94 39t110.5 36.5t141 16.5q65 0 133 -22v-9q0 -20 21 -20 q-10 -10 -31 -10q-9 0 -34 4t-38 4h-10h-12q-24 0 -74 -8q-2 0 -6.5 -6.5t-11.5 -6.5h-19q-12 0 -18 -6q-10 -7 -28.5 -11.5t-47 -9.5t-45.5 -9q-54 -27 -164 -64q-18 -7 -58 -29.5t-63 -29.5q-10 -23 -39 -68.5t-39 -75.5l-6 -3q-5 -4 -10 -7.5t-6 -7.5q-4 -6 -4 -19.5 t-4 -19.5q-4 -5 -12.5 -9t-10.5 -7q-46 -79 -49 -82q-7 -11 -30.5 -35t-38.5 -46.5t-15 -43.5q-11 -6 -21.5 -15t-15.5 -15.5t-16 -20.5t-13 -17q-16 -19 -59 -81t-90 -109q-4 -4 -14.5 -9.5t-14.5 -9.5q-1 -2 -10.5 -15.5t-20.5 -28.5t-20 -25q-12 -6 -23 -13.5t-24 -19.5 t-20 -19.5t-24 -25.5t-24 -25q-2 -1 -30 -31t-35 -30q-2 0 -6 2t-6 2v-4q0 -1 1 -4t1 -4q-20 -20 -49.5 -44t-66.5 -52.5t-56 -43.5q-63 -28 -93 -75h-6q-22 0 -85 -35t-105 -35q-67 0 -96 53q8 87 92 209q15 19 45 67t64.5 90.5t84.5 88.5q49 81 123 133q4 4 14.5 17 t19.5 23.5t11 10.5q1 0 4 -1t4 -1q8 0 29 37q23 9 49 24q15 25 35.5 48.5t34 36t44 38t42.5 35.5q0 8 10 15t26 16t25 18q3 2 7.5 10t7.5 11q4 4 22.5 13.5t24.5 14.5q4 -3 10.5 6.5t17.5 21t23 11.5l10 -4v2v9v2q17 14 69.5 46t76.5 56q72 54 137 63q14 25 74 50 q82 172 120 284q72 214 72 346q0 119 -61 208.5t-179 103.5q-22 -22 -52 -79.5t-56 -88.5q-3 -3 -8 -14.5t-9 -14.5q-3 -5 -13 -11t-13 -11q-4 -6 -8 -16.5t-6 -14.5q-13 -19 -32.5 -41t-33.5 -37t-43 -42t-38.5 -35.5t-44.5 -39t-38 -32.5q-4 -2 -14.5 -4.5t-14.5 -4.5 q-3 -4 -8.5 -14t-9.5 -12q-32 -9 -35 -11q-12 -8 -47.5 -39t-56.5 -42q-10 -5 -31 -12.5t-31 -12.5t-27.5 -18t-29.5 -19q-9 -5 -31.5 -11.5t-34.5 -12.5h-10q-8 0 -11 -3t-2 -6.5t-1 -6.5t-10 -3q-3 0 -10 1t-11 1q-21 0 -77 -17.5t-103 -17.5q-2 0 -5 5.5t-7 5.5 q-7 -7 -17 -7q-33 0 -74 24t-65 48q-8 11 -16.5 48.5t-8.5 60.5q0 11 4.5 20t16.5 23t16 20q24 48 48 80t65 74q55 47 59 61q11 0 40.5 20t31.5 25q2 0 5.5 6.5t4.5 6.5h10v2v8q0 2 3 2q1 0 5 -1t5 -1q3 0 9 6.5t13 15.5t9 11q21 6 83 51.5t74 50.5q3 1 10 1.5t12 1.5t7 3 q5 0 9 7t17 7q4 0 11 -1t10 -1q15 0 43 21.5t37 25.5q4 2 14 3.5t12 3.5q3 1 17.5 6.5t21.5 5.5q3 0 7.5 -1t7.5 -1q9 9 26.5 16.5t31 10.5t40.5 7.5t37 6.5q72 26 145 26q11 0 36 -1t40 -1q16 0 28 6t19.5 19t11.5 24t9.5 30.5t9.5 29.5q92 237 104 369q3 31 5 116.5 t10 122.5q-10 13 -15 29.5t-7.5 37.5t-4.5 31q-27 63 -31 70q-14 31 -67 76q-4 3 -12 4t-11 4l-2 2q-3 3 -10 8t-15 10t-20 11.5t-24 11t-27 7.5t-29 3q-9 0 -27 -2t-28 -2q-6 0 -15 1t-16 1q-43 0 -61 -4q-102 -14 -178 -39.5t-162 -68.5q-5 -1 -14.5 -11t-26.5 -10 q-16 0 -36.5 -17t-27.5 -20q-8 -7 -27 -13.5t-26 -10.5q-195 -120 -229 -187q-23 -18 -41 -34t-35 -36.5t-25 -31t-28 -39.5t-27 -39q-5 -8 -21.5 -25.5t-21.5 -27.5q-4 -7 -10 -29t-10 -30q-3 -6 -11.5 -21.5t-12.5 -24t-9.5 -24t-7.5 -33.5t-2 -41q3 -12 15.5 -21.5 t26 -14.5t24.5 -13.5t11 -19.5q0 -12 -16 -17.5t-29 -5.5q-41 0 -71.5 29t-44.5 69q4 6 4 21q0 6 -1 18.5t-1 18.5q0 56 63.5 162t104.5 141q25 21 64 69.5t63 69.5q13 11 33 27.5t34.5 29.5t28.5 29q14 15 25 19.5t30 23.5q5 4 20.5 10t22.5 11q3 3 9.5 9t13 11t12.5 8 q6 5 19 10t18 9q72 37 84 41q1 0 3.5 6t4.5 6q4 2 17 6t20.5 7t16.5 10t12 16q17 1 71 12q5 0 9 6.5t8 7.5q2 0 6 -3t6 -3q14 0 27 19q63 14 77 14h-2q0 -4 8 -8q1 0 5 3t8 5t9.5 4t10.5 2q11 0 19 -8q48 37 184 37q14 0 36 -9t25 -10q143 -27 220 -104q12 -9 19.5 -15 t12 -12.5t6 -10.5t5 -14.5t6.5 -17.5q1 -3 6.5 -3.5t5.5 -4.5q0 -3 -1 -9.5t-1 -8.5q2 -3 10.5 -10t11.5 -11q31 -64 31 -215q0 -22 -5 -62t-7 -61q0 -8 3 -20.5t3 -20.5q-10 -78 -33 -162t-55.5 -179.5t-42.5 -131.5zM1061 758q-102 -17 -150 -31q-9 -2 -32.5 -13.5 t-38.5 -11.5h-13q-11 0 -32 -14q-204 -75 -338 -172q-10 -7 -50.5 -36.5t-57 -41.5t-42 -33t-41.5 -38q-1 -3 -2 -8.5t-5.5 -9.5t-18.5 -15q-4 -15 -9 -20t-11 -6.5t-9 -4.5q-53 -65 -82 -186q44 -49 133 -49q45 0 89 12t70.5 24.5t29.5 12.5h16h8q0 9 5 11t11.5 2.5 t8.5 4.5q13 3 27 17t18 14q2 0 8 -1t8 -1q6 0 10 4.5t4 9.5q39 17 84.5 45.5t66 43t69.5 50.5q4 3 16 15.5t23 19t26 6.5h4q3 21 29.5 42.5t51 44t24.5 47.5v6q50 39 100 120q62 62 82 144q-72 0 -90 -4zM1204 -330q-19 0 -80.5 -39t-105.5 -73q-16 -12 -50 -38.5 t-57.5 -42.5t-50.5 -28q-4 -11 -22 -29q-30 -30 -88.5 -78.5t-85.5 -74.5q-18 -23 -21 -25l-22 -22q-9 -7 -13 -8q-7 -7 -17.5 -23.5t-19.5 -22.5q-18 -19 -52 -51.5t-44 -42.5q-18 -18 -48 -57.5t-34 -44.5q-167 -189 -233 -348q16 -8 22 -8q15 0 42 16.5t30 17.5 q27 0 27 6v9q0 3 27 16.5t30 24.5q16 1 43.5 18.5t50 36t58 49.5t47.5 41q4 3 18 18.5t25 22.5t24 8q16 27 36.5 50t55 55t43.5 41q6 5 14.5 19t14.5 19q19 16 41 31q9 8 27 39q16 12 20.5 17t5 13t2.5 15q2 -2 13 -2q2 0 25.5 32.5t33.5 49.5q2 2 5 3.5t5 3t2 3.5v11 q0 2 17 2q6 8 14 25t14 24q92 114 123 164v4q0 8 12 16t15 12q9 12 34.5 58t39.5 67q-2 0 -4 1t-3 1t-3 -1t-3 -1z" />
<glyph unicode="[" horiz-adv-x="1110" d="M1006 1745q-23 -23 -91 -23q-29 0 -83 5.5t-70 5.5q-13 -21 -16.5 -61t-8.5 -60q-2 -7 -18.5 -29t-16.5 -33q0 -4 2.5 -12.5t2.5 -11.5q0 -6 -2 -8q-12 0 -18.5 -12.5t-12 -43.5t-8.5 -41q-135 -377 -312 -1018q-1 -4 -8.5 -5t-7.5 -5q0 -3 1 -8t1 -8l-2 -4 q-112 -321 -178 -690q7 -7 12 -7q8 0 20.5 10t16.5 11q9 5 28.5 9.5t26.5 8.5q9 4 23.5 15.5t23.5 15.5q21 10 48 19t65 20t55 16q10 3 46.5 16t54.5 18.5t51 14t66 12t69 3.5q13 0 45 8t47 8q34 0 47 -35q-4 2 -10 2q-5 0 -10.5 -9t-10.5 -9q-3 0 -3 4q-1 2 -1 3t-1.5 2 t-4.5 1q-7 0 -15.5 -3t-18.5 -8t-15 -7q-9 -2 -40.5 -7.5t-43.5 -8t-35 -8t-41 -11t-37 -12.5q-5 0 -13 -8.5t-19 -8.5h-31q-2 0 -4 -3.5t-3 -6.5l-1 -4q-21 -8 -57.5 -20t-65.5 -22.5t-53 -23.5q-4 -1 -8.5 -7t-8.5 -7q-4 -2 -26.5 -9.5t-36.5 -14.5l-8 -8t-9 -7 q-17 -11 -84.5 -43.5t-113.5 -64.5q-6 16 -38 36t-34 44q1 18 29 28t33 21q60 243 272 985q4 17 12.5 52t14.5 57.5t15.5 54.5t20.5 59q1 8 9 17t8 16q0 4 -1 12t-1 12q0 6 5.5 21t14 37t13.5 37q10 30 26.5 91.5t28.5 98.5q10 23 20.5 55.5t23 78.5t20 76t22 89t18.5 76v8 q0 3 -1 11t-1 12q0 9 8 17.5t9 12.5q6 30 6 64q0 25 -6 49q7 3 30.5 26t48.5 23q5 0 13 -4t12 -4q7 0 14 7t17 7q70 0 159 -17t89 -38z" />
<glyph unicode="\" horiz-adv-x="1026" d="M739 -186q-5 1 -9.5 4t-7.5 6t-5.5 8t-4 8.5t-3 10.5t-2 10t-1.5 11.5t-1 10.5q-16 13 -24.5 30t-16 42.5t-13.5 38.5q-5 11 -17.5 35t-19.5 44t-8 42q-6 11 -21.5 18t-15.5 19v14q0 18 -5 36.5t-10 29.5t-15 28.5t-13 24.5q-6 10 -10 24t-6 21.5t-4 7.5t-6.5 -3t-5.5 -3 q-5 0 -5 6q5 5 5 18q0 17 -18.5 55t-18.5 58q-4 6 -13 6h-10q-6 0 -11 24.5t-13 59.5t-21 53q-2 4 -10 8t-8 11q0 2 1 6.5t1 7.5q0 7 -10.5 25t-14.5 22l-33 58q-30 56 -30 77q0 2 1 8t1 9q0 8 -4 9.5t-8.5 -0.5t-6.5 1l-8 18q-4 8 -8.5 29.5t-9.5 32.5q-3 6 -17.5 21 t-17.5 24q-3 4 -3.5 18.5t-2.5 18.5q-1 2 -12 13t-11 15q0 2 2 6.5t2 6.5q0 3 -7.5 5.5t-8.5 6.5q-5 9 -7 23.5t-3 17.5q0 4 -10 8l-9 4q0 2 1 6.5t1 6.5q0 4 -5.5 7t-6.5 7q-3 6 -3.5 18t-2.5 15q-14 18 -24.5 49t-16.5 41q-1 4 -13 13t-12 20v10v10q-13 22 -29.5 39 t-25 25t-8.5 14q0 2 1 7t1 7q0 15 -39 64q-6 7 -27 17t-26 24q23 64 92 80q19 -18 35 -43.5t31.5 -56.5t25.5 -46q4 -6 19 -21t20 -24q4 -10 8 -30.5t8 -30.5q3 -9 18 -23.5t19 -23.5q17 -35 43 -115q4 -9 14.5 -26.5t14.5 -26.5q3 -7 9 -25.5t10 -29.5t10 -24t12 -20 q4 -5 14 -34.5t27 -36.5q8 -35 22.5 -76t26 -68t34 -77t31.5 -72q146 -347 281 -731q21 -22 31 -51.5t10 -49.5q0 -18 -29 -26z" />
<glyph unicode="]" horiz-adv-x="935" d="M-262 -227q4 6 22 12t52.5 15t50.5 14q7 2 39.5 10t50.5 16q2 0 10 5t10 5q14 6 55.5 19.5t59.5 21.5q7 2 14 6.5t15 11.5t12 9q30 7 63.5 22t51.5 19q14 56 40.5 183.5t45.5 189.5q8 29 25.5 82.5t25.5 79.5q69 228 218.5 630.5t209.5 587.5q-35 12 -70 12 q-32 0 -96.5 -10t-93.5 -10q-6 0 -19.5 1t-19.5 1q-2 0 -4 -1t-4 -1q-15 -10 -35 31v2q0 5 35 17t85.5 22t84.5 10q4 0 8.5 -3t9.5 -3q30 0 92 4t64 4q59 0 59 -33q0 -58 -55 -188q-1 -5 -2 -13.5t-2 -13.5q-1 -2 -7.5 -4t-7.5 -4q-3 -6 -6 -18t-6 -28.5t-6 -27.5 q-20 -63 -75.5 -198.5t-75.5 -194.5q-28 -80 -90.5 -253t-101 -283t-83 -264t-68.5 -281q1 -9 11 -29.5t10 -30.5q0 -19 -7 -29.5t-15 -13t-23 -4.5t-21 -4q-29 -11 -82 -38t-88 -40q-72 -27 -137 -47q-11 -3 -42.5 -12t-57 -14t-49.5 -5q-73 0 -80 56z" />
<glyph unicode="^" horiz-adv-x="1296" d="M633 1386q41 -51 41 -83q0 -11 -2 -15q38 -40 61 -145q16 -16 25.5 -39t19 -57.5t15.5 -51.5q1 -2 16.5 -30.5t20 -38t16.5 -37t17 -45t10.5 -43.5t5.5 -49q-12 -3 -32 -8.5t-36.5 -9t-32.5 -5.5q-6 3 -6 8q0 3 4 14t4 17t-4.5 22.5t-11 37.5t-8.5 30q-8 23 -33.5 76.5 t-34.5 83.5q-3 6 -4.5 20t-3.5 19q-15 37 -47 103.5t-45 96.5q-12 -1 -21.5 -9t-13.5 -16t-9 -21t-7 -17q-3 -3 -15.5 -12.5t-15.5 -16.5q-5 -6 -6.5 -14.5t-4.5 -12t-14 -3.5q-3 -34 -34 -75t-37 -73q-8 0 -16 -14.5t-21 -14.5q-1 -2 -2 -7q-19 -62 -39 -75l-4 -2 q-9 -5 -34.5 -7t-35.5 -17q-4 8 -4 14q0 14 21.5 46t21.5 57q12 2 18.5 10.5t8.5 19.5t11 25.5t25 26.5q40 89 43 94q17 9 17 10q0 2 -1 5.5t-1 4.5q0 3 4 5t8 2l4 1q1 3 9 28.5t14 33.5q1 1 8 4.5t8 5.5q1 1 4 8t5 10.5l6 10.5t7.5 11.5t8.5 9.5t10.5 8t11.5 4 q1 3 5.5 13.5l6 14t6.5 12.5t7.5 12t8 10t10.5 9.5l12 6t15 5t17 1.5q3 0 9.5 -1.5t9.5 -1.5z" />
<glyph unicode="_" horiz-adv-x="1452" d="M1262 -92q-17 -35 -91 -35q-23 -17 -79.5 -22.5t-73.5 -10.5q-6 0 -14 10.5t-17 10.5q-4 0 -4 -2t6 -7.5t6 -7.5t-101.5 -13.5t-224 -25t-143.5 -16.5q-22 -2 -64 -11t-65 -9h-24q-11 0 -31 -5.5t-37 -5.5h-2l-2 -6q-3 0 -4.5 3t-5.5 3q-10 0 -34.5 -6t-37.5 -8 q-19 -3 -92.5 -24t-128.5 -21q-14 0 -22.5 25.5t-8.5 50.5q0 16 2 26q64 0 242.5 25t304.5 37q16 2 45 4.5t53 5.5t48 8q35 5 200 15q55 3 160 13.5t158 10.5q38 0 82 -12z" />
<glyph unicode="`" horiz-adv-x="1193" d="M854 1141q-12 -4 -18 -4q-9 0 -26.5 6t-27.5 6t-14 -2q0 14 -33.5 26.5t-36.5 18.5q-1 0 -12.5 3.5t-22 7t-26 9.5t-29.5 12t-28.5 13t-27 15t-20.5 16l-6 6h-8h-2q-2 0 -2.5 5t-1.5 5q-3 1 -12.5 5t-11 5t-8 4.5t-8 6t-5.5 7.5t-5 11t-3 14t-4 19q62 -16 133 -62 q14 -9 52.5 -25t43.5 -24q5 -6 15.5 -9.5t28.5 -9t34 -12.5q0 -16 20 -16q5 0 9.5 -1.5t7.5 -3.5t5 -3.5t3 -1.5q2 0 2 4q4 -8 23.5 -22t21.5 -29z" />
<glyph unicode="a" horiz-adv-x="1359" d="M492 578q20 4 34.5 16t28 29.5t23.5 25.5q5 -10 18 -10q6 0 18.5 5t18.5 5q14 0 23.5 -6.5t19.5 -17t18 -15.5q-10 -45 -34.5 -111t-41 -128t-16.5 -129q0 -82 86 -82q42 0 94.5 21.5t53.5 43.5h6q17 0 34 10.5t17 32.5q104 37 213 125q15 12 41 24t41 27q2 2 9.5 10.5 t14.5 15t13 9.5q29 13 47 31q0 5 3.5 10.5t6.5 5.5h10l4 2v2l-2 -2q0 6 18 20.5t37.5 27.5t20.5 14q12 -20 12 -33q0 -19 -17.5 -38t-41.5 -19q0 -22 -29 -34.5t-61 -12.5q0 -7 -12.5 -30t-12.5 -30q-21 -5 -30 -21t-41 -16q-2 -13 -11 -24t-29 -26.5t-28 -22.5 q-14 -12 -48.5 -23t-47.5 -20q-4 -2 -6.5 -4.5t-5.5 -6.5t-5 -6q-7 -5 -30 -17t-37 -23t-23 -27q-28 0 -41 -19h-4h-24q-13 0 -13 10q-8 -6 -23 -22t-29.5 -24.5t-33.5 -8.5q-54 0 -108.5 46.5t-54.5 80.5q0 13 -10.5 33t-10.5 41q0 22 5 44.5t15 51t13 41.5q2 7 5.5 25 t6 28t8 24t11.5 25q-14 -7 -40.5 -31t-45.5 -32q-26 -31 -81 -75.5t-77 -65.5q-2 -2 -12 -11t-16.5 -14.5t-16.5 -10.5t-19 -5q-14 -18 -28 -32.5t-35 -30.5t-35 -26t-48 -32.5t-54 -36.5q-2 -1 -5 -6.5t-4 -5.5q-33 -11 -41 -15q-6 -3 -22.5 -14.5t-24.5 -15.5t-24 -8.5 t-33 -4.5q-45 0 -88 29.5t-43 75.5q0 30 14.5 70.5t14.5 56.5q0 8 -4 20q8 2 15.5 5.5t13 5.5t11.5 2q1 0 8 -1t13 -1q2 2 2 8t-11.5 6t-11.5 6q-2 4 -2 10q0 8 13 8h14q4 0 6 5t2 9v5q0 4 -1 6.5t-4.5 8t-6.5 12.5h4q13 0 21 -15q6 2 6 6q0 3 -5.5 16t-5.5 21l5 10 q13 15 56 68.5t73 85t76 72.5t95.5 61.5t100.5 20.5q36 0 70 -11q3 0 9.5 -8.5t12.5 -11.5q5 -4 16.5 -5t16.5 -5q21 -20 32 -32.5t23.5 -40t14.5 -60.5zM-20 156q23 31 73.5 62.5t61.5 39.5q5 4 17.5 17t21.5 20q4 3 16 4t16 4q1 1 4.5 9.5t4.5 9.5q37 33 80.5 66.5t63 49 t39 39t26 50t6.5 67.5q0 39 -21 59.5t-45 20.5q-12 0 -32 -2t-27 -2q-13 0 -15 2v-2q0 -10 -15 -13t-15 -4t1 -4t1 -6l-2 -4q-27 -6 -51.5 -21t-54.5 -41.5t-34 -29.5q-2 -2 -3 -8.5t-2.5 -11.5t-4.5 -5q-2 0 -5 1t-5 1h-2q-25 -11 -45 -35.5t-32 -49t-32 -50t-43 -37.5 q0 -35 -17.5 -68.5t-35.5 -58.5t-18 -39q0 -6 2 -8l4 6v-2q0 -1 -2 -12t-2 -18q0 -17 28 -17q19 0 45.5 10.5t42.5 10.5h7z" />
<glyph unicode="b" horiz-adv-x="1232" d="M557 352q-8 5 -36.5 29.5t-33.5 26.5q-4 2 -9 4t-8.5 4t-6.5 6q-12 17 -25.5 49.5t-13.5 44.5q0 55 31 57q-4 16 -4 17q0 24 37 44.5t63 20.5q17 0 38.5 -7t28.5 -23q2 -3 3.5 -10t3.5 -9q4 -5 13.5 -13t10.5 -13q10 -20 10 -64q0 -38 -14 -106q9 -13 44 -30.5t52 -17.5 q15 0 96 15t87 16q26 3 98 44t145.5 88t85.5 53q7 -7 7 -15q0 -12 -29 -41q-122 -105 -256.5 -158t-239.5 -53q-58 0 -106 23q0 -14 -4 -25.5t-12 -25t-11 -21.5q-29 -69 -78 -135.5t-115.5 -115t-127.5 -48.5t-109 25q-4 2 -14 13t-19 20.5t-12 9.5h-8q-2 0 -2 2q0 1 5 4 t5 4q-1 1 -11 9t-17 13t-11 5q-1 0 -2 -1t-2 -1q-4 16 -17.5 38t-23.5 50t-10 69q0 30 8 86t10 72q0 6 -2 18.5t-2 18.5q0 32 31 104t31 101q-17 -7 -41.5 -39.5t-42.5 -42.5q-38 -37 -65.5 -53t-61.5 -44q-3 2 -5 3t-3.5 3t-2.5 3t-2 3.5t-1.5 3.5t-1.5 5t-1 6 q0 13 16.5 17t18.5 8q6 18 11 29.5t11 18t9.5 8.5t12.5 4.5t13 4.5q7 4 19 19t20 20q12 6 23.5 14.5t22.5 21t17.5 20t18.5 24t15 20.5q3 12 22 17.5t23 13.5q0 2 4.5 22t6 24.5t5.5 21.5t7 23.5t8.5 18.5t11 20.5t12.5 15.5q3 40 18 75q2 6 14 15.5t15 15.5q8 14 21.5 59.5 t33.5 67.5v6q0 28 31 60t31 55q0 4 -1 11t-1 11q0 17 13 36.5t13 33.5v6q15 4 49.5 45.5t34.5 46.5q0 7 -10 10.5t-10 10.5q0 3 18 23t27 28q9 75 99 152q6 5 9 8q2 2 2 10q0 5 -7 10t-7 10q0 -1 1 1q0 1 1 3q22 41 45 72q6 8 27 24t29 25q4 6 10 19.5t10 19.5 q24 32 71 67.5t78 35.5q21 0 57 -20t46 -34q4 -6 4 -23.5t10 -25.5q4 -40 4 -57q0 -111 -69 -260q-53 -112 -78 -154q-5 -8 -26 -31t-23 -30q-11 -16 -37.5 -55.5t-51.5 -75t-46 -60.5q-9 -11 -29 -28t-27 -27q-6 -6 -13.5 -20.5t-10.5 -18.5q-36 -38 -77 -75t-99 -87 t-82 -71q-4 -4 -21 -20.5t-24 -22.5l-21 -18t-26 -20.5t-25 -15.5q-6 -20 -30.5 -94t-38 -120.5t-27 -115t-13.5 -122.5q0 -42 6.5 -77.5t22.5 -70t48 -54t77 -19.5q22 0 53 19.5t49 19.5q7 11 17 21t23.5 22t19.5 18q101 101 141 225zM891 1888q-40 -27 -97 -86t-63 -65 q-3 -2 -4 -9t-4 -10q-3 -5 -13 -12t-12 -12q-4 -4 -9 -15t-9 -16q-38 -58 -133 -219q-1 -2 -13 -19.5t-19 -30t-7 -18.5q0 -1 1 -4.5t1 -5.5q0 -6 -6 -9.5t-8 -6.5q-59 -111 -152 -301q-5 -11 -16 -44.5t-17 -43.5q-35 -71 -47 -134q6 -4 15 -4q12 0 21 19.5t11 21.5 q5 5 17 11t19 13t7 21q17 0 40 19.5t53.5 55t37.5 42.5q1 2 9 3t10 3t8 14t12 15q1 2 9 3.5t10 4.5l6 18q3 3 16 12t23 17.5t10 13.5v11q0 3 21.5 33t52 66t49.5 50q2 4 5.5 23t10.5 26q11 8 20.5 21t22 35t19.5 32q8 0 14 17q52 75 87.5 172t35.5 172q0 89 -45 100z M573 420q15 58 15 112q0 46 -10 46q-25 0 -38.5 -22t-13.5 -52q0 -31 13 -56t34 -28z" />
<glyph unicode="c" horiz-adv-x="974" d="M975 573l22 15l19 -27q-47 -62 -135 -126.5t-162 -104.5q-17 -15 -49.5 -31t-48.5 -35q-10 -5 -37.5 -16t-51.5 -27q-84 -54 -148 -84t-155 -51q4 3 -1 1q-61 -20 -68 -22q-43 -10 -82 -10q-122 0 -178 56q-5 3 -6.5 11t-2.5 9q-45 43 -45 143q0 74 35 109v18 q0 13 13.5 31t13.5 35q0 2 -1 5.5t-1 4.5q8 5 16 11.5t13.5 11t13 14t10.5 13.5t11 16t9 14.5t10 17t9 15.5q21 10 72.5 62.5t83.5 52.5l65 -5l4 5l9 -6q23 -13 28 -19q5 -3 32.5 -13.5t35.5 -17.5q10 -14 22 -61.5t12 -87.5q0 -52 -22 -66q-4 -4 -21 -5t-28 -7 q-25 15 -25 43q0 7 2 23t2 24q0 3 -3 6.5t-5 3.5q1 10 5.5 20t4.5 15q-6 86 -43 86q-65 0 -139 -78q-25 -28 -37 -42t-40.5 -53t-44 -70t-29 -75t-13.5 -85q0 -45 17.5 -70.5t66.5 -42.5q4 0 14 -7t25 -7q11 0 34 2t34 2q35 0 97.5 23.5t90.5 23.5q12 0 21.5 2.5t14 5 t12.5 8.5t14 10q100 36 192 101q6 4 14 4q2 0 8 -2t9 -2q-4 0 2 2q50 20 57 51q24 14 56 25.5t54.5 23t39.5 33.5q6 5 18 12t17 11q3 3 11 14.5t15 17.5q4 4 16 10t17 11q2 2 8 11t8 11h21z" />
<glyph unicode="d" horiz-adv-x="1417" d="M623 86q25 -31 69 -31q40 0 88.5 20t106 61t97.5 73.5t102 85.5q19 16 28 24q114 82 139 111q0 2 15.5 12t31.5 20l15 9l7.5 3t4.5 3t3 2.5t2 4t1 5.5t0.5 7.5t1.5 9.5l27 16l-2 -2q6 3 26 17q18 20 30 29.5t15 10t3 1.5q-2 4 -2 12q10 -25 10 -27q0 -1 -1 -3t-2 -8.5 t-1 -19.5l-11 -6q0 -3 -25 -33.5t-42 -46.5q-2 -5 -31 -29t-63.5 -49.5t-36.5 -27.5q-18 -32 -92 -91t-86 -71q-24 -6 -58 -41.5t-41 -40.5q-28 -21 -143 -73q-10 -2 -55.5 -18.5t-65.5 -16.5h-6q-22 4 -40.5 6t-22 1t-14.5 5t-17 11.5t-31 27.5q-8 6 -19.5 28.5t-19.5 28.5 q0 1 -4 31.5t-8 34.5q-31 42 -31 123q0 7 1 22t1 21q0 12 -1 35.5t-1 37.5q0 35 3.5 72t11 80t13 71t17 78.5t15.5 69.5q-12 4 -13 4q-7 0 -10 -7t-4 -16.5t-2 -11.5q-5 -7 -15.5 -14.5t-13.5 -15.5q-1 -16 -7 -28t-18 -27t-16 -21q-15 -32 -40 -68.5t-42.5 -58t-55.5 -66.5 t-50 -59q-2 -3 -10.5 -14.5t-15.5 -20.5t-11 -12q-4 -6 -19 -17t-32.5 -29t-32.5 -44q-19 0 -32.5 -11t-23.5 -26t-22.5 -30.5t-38.5 -26.5t-63 -11q-61 0 -89 32t-28 101q0 3 2 20.5t4 33t6 24.5q4 13 10 25.5t15.5 28.5t13.5 24q16 43 39 81t48 71.5t34 50.5q28 7 64 29 q10 4 34 21.5t53.5 29.5t65.5 12q63 0 133 -27q17 5 28 16.5t25.5 37.5t16.5 30q38 66 78 117q1 3 3.5 12.5t5 17t5.5 7.5h10l7 17q7 17 21 45.5t30 50.5q18 9 45 63.5t45 58.5q3 18 10 37t12 29t18.5 32.5t16.5 28.5q1 1 12 10t11 15q0 1 -1 5.5t-1 6.5q0 8 6 10t6 3 q4 5 5.5 18t4.5 18q8 23 35.5 71t36.5 67q2 6 7.5 29.5t10.5 33.5q2 6 10.5 11t10.5 8q2 6 3 19.5t3 18.5q3 8 14.5 26t14.5 28v4q0 4 4 9t4 9q80 0 80 -45q0 -19 -12 -46.5t-33 -64.5t-29 -55q-3 -8 -6 -25.5t-6 -23.5q-22 -23 -58 -112q-91 -194 -139 -322 q-4 -10 -37.5 -100.5t-43 -117.5t-35 -104.5t-34.5 -119.5t-18.5 -101.5t-9.5 -107.5q0 -67 17.5 -155t60.5 -132zM248 651q-24 0 -75.5 -20t-66.5 -23q-2 -11 -9.5 -19.5t-20.5 -18t-19 -15.5q-155 -166 -155 -266q0 -13 0.5 -20t4 -17t12 -14.5t22.5 -4.5q18 0 32.5 10 t31 29t26.5 27q11 9 21.5 18t22.5 20t20 19t22 22.5t19.5 20.5t21.5 23t20 22q6 6 36 32.5t58 59.5t45 72q-8 19 -28.5 30t-40.5 13z" />
<glyph unicode="e" horiz-adv-x="923" d="M952 578q4 -4 4 -13t-4.5 -18.5t-16.5 -21.5t-19.5 -18.5t-26 -22t-23.5 -19.5q-24 -22 -60.5 -42t-64.5 -52q-29 -7 -79.5 -45t-67.5 -47l-25 -21q-23 -18 -34 -18q-2 0 -7 1t-8 1q-2 0 -3 -3.5t-1.5 -7t-1.5 -4.5q-4 -3 -19.5 -4.5t-19.5 -3.5t-29.5 -25.5t-31.5 -23.5 q-4 0 -7 4t-4 4q-10 0 -35.5 -15.5t-35.5 -15.5h-10q-4 0 -7 -6t-4 -6q-7 -5 -27 -7t-24 -3q-6 -2 -33 -10t-50.5 -14t-43.5 -9q-2 0 -13.5 2t-19.5 2h-6q-11 0 -24.5 3t-26 7t-25 9.5t-22.5 11t-17.5 10t-11.5 6.5l-4 2q-23 6 -38 34t-23 30q-4 27 -12.5 51t-8.5 37 q0 4 3 22.5t3 28.5q0 4 -1 12.5t-1 12.5q0 17 18 57t36 66q7 10 23.5 29t28 34.5t17.5 32.5q19 12 53 46.5t41 49.5q5 3 16.5 7t14.5 5q2 2 12.5 10t13.5 10.5t13 10t14.5 10.5t14.5 9t16.5 9t16.5 7t18.5 5.5t19 3t21.5 1.5q46 0 80.5 -33t34.5 -61q0 -12 -23 -41l-8 -10h4 h2q0 -1 -1.5 -2.5t-2.5 -3.5q-24 -31 -57 -54q-52 -52 -93 -65q-1 0 -26 -15t-45 -16q6 7 67.5 44.5t65.5 43.5q-4 0 -18.5 -7.5t-32.5 -17t-25 -12.5l-102 -49l-15 -16l-94 -23l51 2q0 -2 2 -2q6 0 30.5 5.5t29.5 5.5q4 0 4 -3q0 -6 -118 -35l-21 -5h-5q-28 -67 -28 -115 q0 -59 31.5 -94t85.5 -35q76 0 190 53q2 0 7 -1t7 -1q26 0 58.5 13.5t36.5 13.5h12h6q45 23 76.5 41t81.5 45q5 2 25 11.5t30.5 15t25.5 14t22 15t7 11.5v4q33 4 78.5 32t54.5 32q10 7 16 12t7.5 7.5t5.5 5.5t12 5.5t25 6.5q16 11 41 32t42 35.5t19 14.5h2zM123 596 q-53 -53 -115 -135q9 6 30 16t30 17v-5q0 -4 -2 -6l49 21q1 3 6.5 7.5t10.5 7.5l5 3q1 0 2.5 -1t3.5 -1q14 0 30 8.5t26.5 17.5t27.5 25t23 21q4 3 17 6.5t14 5.5q3 2 3.5 7.5t2.5 6.5q-1 1 10 10t26.5 22.5t22.5 23.5q-6 28 -43 28q-74 0 -180 -106z" />
<glyph unicode="f" horiz-adv-x="1130" d="M444 270l52 -2q6 -2 14 -2q6 0 20 4t36.5 10.5t39.5 10.5q20 2 43 8l56 20q32 11 36 11q1 0 3.5 -1t3.5 -1q3 0 34 16q6 4 25 8.5t27 9.5q8 6 38 25t33 21q15 9 77.5 51t102.5 61q8 4 34 29.5t34 25.5t8 -8q-1 -14 -4.5 -24t-7 -14t-10.5 -9.5t-9 -7.5q-4 -5 -11.5 -19.5 t-16 -23t-21.5 -8.5h-4q-11 -7 -22.5 -20.5t-19.5 -23t-13 -9.5h-12q-18 0 -67 -31t-87 -62q-5 -3 -40 -10.5t-50 -15.5q-4 -2 -10 -6q-17 -10 -26 -12q-16 -3 -42 -11q-72 -29 -148 -31t-106 -10q-25 1 -63.5 1t-67.5 2t-59 9q23 -40 26 -41q14 -9 15 -26t12 -27 q5 -5 7 -20.5t7 -24.5q4 -9 12.5 -34t14.5 -45t6 -19q18 -50 18 -123q0 -102 -20 -180q-1 -4 -12 -13.5t-11 -15.5q0 -3 9.5 -12t9.5 -12l-9 -3h-5l2 -10q-1 -2 -12 -17t-11 -24q0 -2 1 -7t1 -7q0 -6 -2 -8q-14 -3 -22 -23.5t-16 -50t-19 -45.5q-18 -18 -45 -55t-46 -61 t-54 -44t-76 -20q-4 0 -11.5 4.5t-13.5 5.5q-3 0 -11 -3t-12 -3l-51 31q-65 22 -65 157v37v35q0 17 10 43t10 37q0 10 -4 18q11 8 21 27.5t10 34.5v10q0 6 1.5 9.5t6.5 12t8 13.5q4 14 9 34t8 29l8 31q2 5 7.5 13t6.5 11q3 8 6.5 21.5t8 23t12.5 15.5q0 8 -5 14.5t-5 14.5 q26 18 45.5 68.5t35.5 60.5q-2 4 -2 12q0 24 33.5 88.5t34.5 101.5q-18 3 -49 18.5t-31 33.5v8q0 6 -4 6q-2 0 -4 -0.5l-6 -1.5l-8 -2q-15 6 -29 20q14 31 45 31q17 0 32.5 -3.5t30 -12t22 -13.5t21 -16.5t15.5 -13.5l12 22l12 18q11 19 13 27q2 7 8 30.5t12 39.5q1 2 15 18 t14 27q0 6 -4 10h6q12 0 12 8q0 1 -1 6.5t-1 6.5q0 10 14 10l-2 31q15 1 22.5 16t9.5 34.5t12 40t28 29.5q0 26 19.5 48t19.5 47q-12 -1 -63 -48.5t-62 -60.5q-6 -1 -28.5 -18.5t-24.5 -18.5q-4 -3 -17.5 -14.5t-26 -21t-22.5 -13.5l-24 -16q-6 -3 -22.5 -14t-30.5 -21 l-13 -10v-5q0 -2 -12.5 -6.5t-31 -11.5t-28.5 -14q-13 0 -36 -22.5t-43 -26.5q-43 -15 -50 -21q-14 6 -14 12q0 7 13.5 18t38 29.5t40.5 34.5q28 13 79 48.5t73 43.5q1 1 7 8t11 9q19 3 53.5 37.5t51.5 40.5q3 1 24 21.5t25 21.5q28 21 69 56t60 48q4 3 11.5 31.5t12.5 30.5 q4 2 9.5 9t11.5 7q20 22 31 35.5t22 37t12 48.5q20 17 39.5 61.5t48 110t62.5 117.5q4 6 20 38.5t29 49.5q27 38 90 106q9 12 23 27t50.5 37t72.5 22q7 1 10.5 -1t8.5 -6.5t13 -6.5q26 -8 39.5 -30t14.5 -69q2 -37 -31 -98q-5 -10 -27.5 -37t-23.5 -43q-17 -7 -33 -32 t-27 -33q-1 -2 -7 -4.5t-7 -3.5q-2 -2 -2.5 -9.5t-3.5 -9.5q-3 -6 -23 -19.5t-43 -41.5l-49 -49q-42 -45 -102 -95q-14 -13 -31.5 -45.5t-40.5 -46.5q-3 -6 -10 -21.5t-14 -26t-17 -15.5q-8 -46 -16 -58q-15 -5 -15 -8q0 -2 2 -4q-19 -48 -34 -61q0 -31 -29 -72 q-2 -5 -4.5 -14t-4.5 -14t-5 -12t-8.5 -11.5t-12.5 -7.5q2 -2 2 -11t-18 -57q-2 -5 -10.5 -13.5t-10.5 -11.5l-4 -12q-3 -13 -9.5 -32.5t-14.5 -39.5t-19 -36.5t-22 -20.5v-4q0 -6 -5.5 -15t-5.5 -14q0 -1 1 -2.5t2 -4.5t2 -5q-7 -3 -21 -20t-14 -19q0 -33 129 -33h16l19 -4 zM205 182q-2 1 -5 4t-5 4q-2 -2 -2 -10t2 -12q-18 -6 -28 -39t-22 -41q0 -4 1 -13t1 -12q0 -6 -4 -6v-4q0 -6 -8 -9.5t-8 -8.5q0 -2 1 -6.5t1 -5.5q0 -8 -8 -15.5t-8 -11.5q0 -1 2 -4t2 -4q-3 -2 -9.5 -2.5t-7.5 -3.5q0 -2 1 -8t1 -9q0 -12 -14 -12q0 -20 -7.5 -42 t-19 -48.5t-16.5 -40.5q0 -17 -9 -48t-28 -40q0 -3 1 -8.5t1 -8.5q-1 -18 -6 -39t-14 -49.5t-13 -42.5l-10 -37q0 -18 -7 -54t-7 -62q0 -3 4 -9t4 -14q0 -4 -4 -22t-4 -29q0 -33 24 -41q24 0 49.5 13t34.5 14q21 21 56 49q11 8 32.5 45t34.5 37q1 0 4 -1t5 -1q5 11 6 25 t5 23.5t19 16.5q7 10 18 40t27 40q2 12 8.5 62t14.5 80t20 30q-10 10 -10 21q0 10 6.5 27t7.5 22q-1 5 -4.5 19.5t-3.5 21.5q0 5 1 14t1 10q-1 6 -10.5 27.5t-9.5 38.5q0 1 1 7.5t1 14.5v2q-7 3 -14 35t-24 71.5t-48 59.5zM936 1475q20 50 20 79v9q-23 0 -49.5 -12.5 t-41.5 -24.5t-17 -15q-23 -18 -45 -44.5t-55 -76.5t-37 -55q-1 -3 -2.5 -15t-6.5 -15q-25 -43 -50.5 -121t-43.5 -111q22 12 37 43.5t39 40.5q2 17 33 52t53 36q-2 2 -2 6t33.5 45t52.5 60q1 3 8 6t8 4q2 4 6.5 14.5t8.5 16.5q2 3 10 9.5t10 12.5q8 8 14 22t9.5 24t7.5 10z " />
<glyph unicode="g" horiz-adv-x="1503" d="M1550 563q-26 -28 -63 -49.5t-91 -44t-75 -33.5q-36 -20 -67.5 -26t-71.5 -37q-8 -7 -38 -18.5t-44 -24.5q-3 -3 -22.5 -9t-28.5 -14q-12 -12 -46.5 -21t-46.5 -20q-24 -22 -74 -45.5t-79 -52.5q-18 -20 -23 -27.5t-6 -12.5t-1.5 -23t-4.5 -42q-1 -8 -6 -61t-12 -74 q-1 -2 -5 -6t-7 -9t-5 -11l-4 -27q0 -4 2 -10t2 -10q0 -27 -20.5 -87.5t-24.5 -78.5q-2 -10 -10.5 -54t-15.5 -63l-45 -111q-23 -59 -23 -69q0 -2 1 -9t1 -12q0 -10 -13 -27t-16 -26q-28 -82 -39 -102q-1 -1 -6.5 -2.5t-5.5 -6.5v-12q0 -2 -3.5 -5.5t-8.5 -7.5t-6 -5 q-2 -4 -9 -26t-17 -34.5t-28 -17.5q9 -9 9 -17q0 -16 -32 -83.5t-48 -77.5q-5 -7 -17 -32.5t-22 -39.5q-13 -18 -28.5 -37.5t-27 -33t-31 -34.5t-28.5 -29.5t-32 -31.5l-29 -29q-53 -30 -144 -30q0 8 -10 10t-12 4q-4 3 -4.5 13t-3.5 12q-2 1 -8 2t-10.5 2.5t-4.5 5.5 q2 6 2 10q0 2 -6 2h-12q-6 0 -14.5 26.5t-8.5 45.5q0 39 22 115t23 110q8 7 15.5 21.5t9.5 17.5q1 2 8.5 9.5t7.5 8.5q0 13 -12 13q22 57 50.5 117t73.5 147.5t58 114.5q3 5 8.5 19.5t8.5 19.5q2 2 10.5 12.5t13.5 17.5q2 4 7.5 23.5t13.5 30t24 10.5q5 22 16.5 45.5 t19 35.5t30 43.5t28.5 39.5q20 29 45 82q32 42 91 112q2 4 9.5 21.5t16.5 31.5t21 23q2 3 11 4.5t11 3.5q28 69 125 166q0 19 3 71t3 79q0 127 -67 127q-15 0 -23.5 -5.5t-12 -19t-4.5 -24t-1 -31.5q0 -13 1 -35.5t1 -30.5q-13 -5 -13 -22q0 -5 2.5 -17.5t2.5 -17.5 q0 -18 -17 -23q-40 3 -55.5 20t-15.5 48q0 15 6 48t6 50v17q0 10 4 18q-61 0 -174 -51q-126 -53 -258 -117q-13 -3 -37 -13t-31 -12q-13 -4 -34 -15.5t-43.5 -19.5t-51.5 -8q-44 0 -91.5 22.5t-47.5 53.5q0 68 35 113q66 86 140 150.5t204 131.5q6 3 23 16t26 15 q7 3 25.5 3.5t25.5 2.5q31 19 62 26t88 7q74 0 141.5 -55t67.5 -121v-12q11 -3 33.5 -10.5t40 -11t36.5 -3.5q13 -21 47 -51t45 -45q3 -17 5.5 -88t5.5 -88q36 0 57 24q11 11 67 35.5t89 48.5q9 10 26.5 12t24.5 7q12 10 81 37.5t87 54.5q33 3 61 13t73 34t60 31q0 -1 -2 -6 t-2 -7t2 -2q10 4 20 16.5t17 16.5q7 2 39.5 22.5t40.5 20.5q22 -2 22 -18q0 -9 -4 -21zM203 631q-10 -11 -25.5 -20.5t-34.5 -19t-26 -13.5q-21 -14 -57.5 -41t-51.5 -37q-66 -45 -120 -102.5t-54 -110.5q26 -21 51 -21q31 0 78 19q2 1 4 8.5t4 7.5q65 27 159 65t122 50 q56 35 100 35h10q13 11 38.5 20t65.5 19t46 12q-9 87 -27 137q-41 20 -92 20q-36 0 -109 -13.5t-81 -14.5zM555 -86q-32 -37 -43 -64q-4 -4 -16.5 -12t-19.5 -16.5t-7 -20.5v-6q-15 -18 -30 -39t-25 -36.5t-26.5 -41.5t-25.5 -40q-103 -148 -126 -195q-14 -24 -37.5 -73.5 t-32.5 -65.5q-4 -7 -24.5 -41.5t-28.5 -53.5q-11 -18 -21 -53.5t-12 -42.5q-74 -190 -74 -313q0 -51 8 -92q41 0 75 8.5t46 15.5q31 28 72 87.5t67 86.5q3 14 10.5 27t19.5 30t18 27q11 23 47 88q13 23 35 85t34 85q0 4 8 6l9 3q18 35 30 86t17 63q17 41 55 150q3 15 19 47 t20 45l20 100q0 1 -4 4.5t-4 9.5q0 12 16.5 54.5t16.5 64.5v8q0 1 12.5 65t12.5 75q0 2 -4 2q-16 0 -35.5 -29t-38.5 -58.5t-33 -29.5z" />
<glyph unicode="h" horiz-adv-x="1607" d="M1628 598l8 -45q-11 -23 -31 -46t-54 -55.5t-44 -43.5q-35 -46 -80 -90t-124 -111.5t-101 -87.5q-12 -7 -79.5 -57t-84.5 -58q-27 -12 -97 -48.5t-117.5 -55.5t-82.5 -19q-40 0 -102 4q-42 22 -93.5 79.5t-51.5 84.5q0 22 -9.5 37.5t-9.5 17.5q0 11 2.5 21.5t9 27 t9.5 25.5q3 13 6 43t6 41q3 7 18 31.5t15 38.5q0 2 -2 5t-2 5q0 9 21.5 51.5t21.5 59.5q0 11 -11 16.5t-22 5.5q-18 0 -49 -15t-33 -16q-4 -3 -31 -23.5t-41 -27.5q-2 -2 -8 -14.5t-12 -16.5q-5 -2 -21 -5t-20 -5q-2 -2 -9.5 -13t-13.5 -17q-39 -31 -135 -123 q-17 -16 -33.5 -43.5t-32 -39.5t-45.5 -12q-32 0 -61 17t-29 47q0 11 8.5 35t10.5 37q1 9 6 53t6 53q2 7 47 112.5t45 133.5v6q-11 -7 -15 -19t-11 -18q-10 -4 -19.5 -6.5t-12.5 -3.5t-3 -4l10 2q-5 0 -11 -6.5t-16 -17t-20 -17.5q-7 -4 -33 -11t-37 -12l-6 33l66 45 q17 7 47.5 49.5t56.5 59.5q28 23 32.5 45t16.5 37q9 30 23.5 38t25.5 37l17 5q-2 8 -2 16q0 18 12 33.5t12 25.5q0 4 -8 6t-8 5q0 4 8 5l8 1q7 15 11.5 35.5t9.5 35.5q0 21 30 60.5t37 60.5q2 10 4.5 27t2.5 18q3 5 14 15.5t14 15.5q2 4 13 31t20 41q2 4 13.5 13.5 t11.5 16.5q0 3 -2 9.5t-2 9.5q0 1 1 3t1 3q16 7 24.5 24t17.5 45.5t19 47.5q37 37 57 102q4 9 39 66.5t37 87.5q18 13 31 33t26 47.5t23 42.5q26 32 29 38q4 7 32.5 34.5t28.5 37.5q0 1 -1 4.5t-1 5.5q0 9 21 27q1 3 12 12.5t29 19t32 9.5q76 0 92 -35q5 -11 14 -23.5 t14 -23t10.5 -44.5t6.5 -91q0 -12 -13 -43.5t-13 -58.5v-21q0 -15 -11 -23.5t-12 -11.5q-3 -8 -4 -26.5t-4 -26.5q-5 -8 -17.5 -28.5t-17.5 -28.5q-2 -3 -8.5 -8.5t-7.5 -8.5q-4 -7 -8 -24t-8 -25q-10 -21 -21.5 -38t-33.5 -48t-44 -65q-3 -7 -8 -24.5t-8 -25.5 q-4 -5 -16 -12t-15 -12q-5 -5 -7 -14t-3 -11q-6 -7 -21 -24t-28.5 -34t-24.5 -36q-4 -6 -19.5 -16.5t-19.5 -14.5q-6 -12 -31.5 -39t-29.5 -32q-3 -4 -12.5 -17t-14.5 -20q-5 -8 -37 -37t-83 -74.5t-87 -81.5q-16 -17 -46.5 -39t-47.5 -53q-8 -22 -39 -118t-35 -119 q-1 -7 -27 -85t-26 -114v-10q24 10 71.5 56t59.5 46q6 0 8 -2q1 18 54 60.5t104 72.5l13 9q12 8 31 20t41 24t46 20.5t41 8.5q16 0 66 -10q2 -1 4 -8.5t4 -8.5q21 -10 29 -15.5t14 -20t6 -41.5q0 -7 -4 -23q0 -1 -4 -1.5t-4 -2.5v-8q0 -1 -2.5 -1.5t-3.5 -6.5l-12 -56 q-11 -57 -17 -73q-1 -3 -11 -27.5t-15 -38t-12.5 -37.5t-11 -44.5t-3.5 -39.5q0 -94 47 -151q52 -19 88 -19q42 0 79.5 15t85 45.5t72.5 42.5q5 3 20 3.5t21 4.5q11 5 39.5 35.5t40.5 35.5q66 29 105 56q9 8 22 33t19 32q7 6 30.5 18.5t30.5 18.5q9 8 68.5 60.5t101.5 97.5 q2 1 3 4.5t1.5 6.5t1.5 3q31 6 35 8q2 1 26 36.5t25 35.5q24 17 31 27q2 2 4.5 2.5t5 2.5t13 15t28.5 37zM305 907q-6 -16 -28.5 -62.5t-28.5 -60.5q22 0 52.5 27.5t51.5 54.5q7 6 21.5 18.5t17.5 16.5q6 9 26 18.5t27 18.5q8 11 30.5 28.5t31.5 30.5q15 17 15.5 29t8.5 25 q3 4 16 9t15 9q20 25 90 131q4 8 17.5 16t17.5 13q4 8 6 12.5t4.5 9.5t3.5 6.5t4 5t4 4.5l5.5 5.5l7.5 7.5q4 9 5.5 20t4.5 17q60 92 93.5 147t70 125t52.5 128t16 112q0 44 -15.5 67t-38.5 23q-26 0 -65 -35q-2 -2 -3.5 -10t-4.5 -10q-4 -4 -7.5 -5t-6 -1t-9 -7.5 t-16.5 -23.5q-7 -10 -35 -53t-37 -57.5t-32.5 -51t-34.5 -56.5t-28.5 -51t-30.5 -58t-24 -54q-2 -3 -10.5 -14.5t-12 -17t-7.5 -14.5t-4 -16v-6q-14 -6 -20.5 -19.5t-11 -32.5t-9.5 -28q-10 -19 -26.5 -45t-27 -43.5t-12.5 -27.5q-41 -82 -60.5 -123.5t-35 -77.5t-33.5 -74z " />
<glyph unicode="i" horiz-adv-x="704" d="M342 821q0 -16 -14.5 -24t-16.5 -15q-6 2 -24.5 9t-26 10.5t-21.5 12t-20 17t-11 22t-5 30.5q11 8 26 8q28 0 70.5 -23.5t42.5 -46.5zM705 516q-15 -23 -37.5 -33.5t-28.5 -19.5q-27 -31 -53 -35q-27 -35 -57 -62t-90 -72t-83 -63q-113 -86 -209 -149q-11 -6 -38.5 -23 t-50 -26.5t-46.5 -9.5q-74 0 -113.5 39.5t-39.5 101.5q0 72 47 180q2 7 8.5 20.5t11 23.5t4.5 13q0 2 -1 6.5t-1 6.5q0 7 7.5 10t7.5 4q3 6 19.5 55.5t35.5 87t35 37.5t26.5 -7t20.5 -20t16 -18q-6 -22 -24 -64t-23 -55q-2 -4 -13 -12.5t-11 -13.5q0 -2 1 -7t1 -8 q0 -31 -15 -65q-3 -8 -15 -22.5t-15 -22.5q-27 -83 -27 -139q0 -14 3 -23.5t5 -14.5t10.5 -7.5t11 -3t15 0t14.5 0.5q38 0 84 27q4 2 5.5 8t5.5 6h8h4q13 9 58.5 36t78 49.5t57.5 46.5q36 33 120 94t120 92q22 20 71.5 54.5t73.5 53.5q5 3 14.5 4t16.5 9q4 0 4 -13 q0 -6 -1 -16l-1 -10h2h2q0 -2 -17.5 -15t-17.5 -16h3z" />
<glyph unicode="j" horiz-adv-x="1028" d="M465 1001q-3 -1 -21 -12.5t-30 -11.5q-9 0 -14.5 5.5l-6.5 6.5t-8.5 3t-9.5 3q-31 62 -31 74q2 6 8 14.5t10 8.5t19.5 -5.5t24.5 -7.5q22 -5 29.5 -7t17 -8.5t12 -17t2.5 -28.5q0 -2 -1 -8t-1 -9zM213 -98q18 4 31.5 16.5t29.5 34t23 29.5q34 40 158 155q5 5 24 25.5 t34.5 33.5t25.5 13q0 13 14 24t31.5 19t34.5 23.5t22 35.5h6q4 0 9.5 -3t9.5 -3t7 2t4 4l1 2q0 2 -5 5t-7 6q1 2 9.5 5t8.5 9v4l12 4q3 0 9.5 -4.5t15.5 -5.5q19 19 31 43q8 7 33 11.5t32 12.5q0 7 -8 7q-3 0 -8.5 -1t-7.5 -1q-1 0 -3.5 1t-3.5 1q2 2 16 16.5t21 17.5 q5 4 18 5t22 5t9 15q2 -4 15 -4q10 0 16 4l2 -2q7 0 11 10t10 10h2q-1 0 11 8l25.5 17t16.5 12q11 10 46.5 27.5t45.5 17.5q6 0 10 -2q0 -18 -25.5 -29t-25.5 -16q0 -1 1 -3t1 -3q0 3 -13 -5.5t-35 -25t-34 -26t-26 -19.5q-4 -3 -15 -6t-16 -6q-6 -5 -19.5 -21.5 t-21.5 -21.5q-6 -3 -17 -8t-22.5 -12.5t-28.5 -22.5q-76 -66 -86 -66h-8q-2 0 -2 -4v-6q0 -3 -7 -7t-16.5 -9.5t-13.5 -9.5q-6 -6 -22 -24t-28.5 -29.5t-27.5 -18.5q-16 -9 -32 -34t-27 -34q-3 -1 -8.5 -2.5t-9.5 -3.5t-6 -6q-7 -6 -15.5 -20.5t-15.5 -20.5q-3 -3 -12 -6 t-13 -6q-3 -3 -6 -12.5t-6 -12.5q-8 -8 -23.5 -21.5t-23.5 -21.5q-24 -23 -72 -82.5t-49 -60.5q-7 -8 -31.5 -34t-36.5 -46l-5 -7q-5 -7 -11.5 -16.5t-15.5 -22.5t-18.5 -29t-18.5 -32.5t-18 -35.5t-15 -37q-3 -7 -5.5 -26.5t-6.5 -29.5q-2 -7 -41 -84.5t-39 -95.5 q0 -3 1 -8.5t1 -9.5q0 -14 -24.5 -57t-24.5 -76q-11 -9 -18.5 -21.5t-15 -35t-9.5 -27.5q-50 -125 -119 -244q-4 -2 -10 -2q-23 0 -43.5 26t-20.5 40q0 57 15 107t38 103.5t33 90.5q9 6 15 15.5t12 27.5t8 22q17 38 51.5 109.5t44.5 91.5q2 2 9.5 5.5t9.5 6.5q6 9 33.5 63.5 t44.5 79.5q5 7 10.5 12t10 8.5t14.5 19.5t26 44q2 6 15 51.5t22 69.5q0 3 6 8.5t6 8.5v12v2q19 56 52 153t52.5 155t44.5 138t44 148q3 13 16 51.5t19 68.5t6 68q0 15 -0.5 20.5t-3.5 15.5t-11 14t-22 4q-17 0 -46.5 -16.5t-45.5 -20.5q-28 -10 -62.5 -37t-50.5 -35 q-40 -24 -123 -86q-20 -10 -20 -16q4 -2 4 -4q0 1 -9.5 -3t-28.5 -10t-38 -6q-45 0 -45 14q0 13 53 35q15 1 20 4.5t4 7t6 9t25 10.5q8 3 31.5 26.5t28.5 30.5q15 1 45 28t41 32q19 8 92 55t109 47q43 0 80.5 -40.5t37.5 -92.5q0 -13 -3 -23.5t-12.5 -38t-18.5 -65.5 q-2 -8 -3.5 -24.5t-3.5 -22.5q-2 -5 -8 -17t-8 -20q-10 -23 -26.5 -79.5t-28.5 -84.5q-2 -3 -9.5 -14t-7.5 -17q-6 -13 -9 -38t-5 -33q-5 -16 -20 -54t-21 -61q-3 -11 -6 -33t-6 -32q-1 -3 -16 -32.5t-15 -47.5z" />
<glyph unicode="k" horiz-adv-x="1531" d="M18 195q4 -2 11 -2q14 0 27.5 16.5t28.5 33.5t34 17q0 21 19 36t20 32q16 3 36.5 28.5t20.5 36.5q0 13 -14.5 25t-14.5 26q0 17 13 17q22 0 50.5 -9.5t29.5 -9.5q5 0 9 1.5t7.5 5l5.5 5.5t5 7t4 7.5t3.5 8.5t3.5 8q4 -2 9 -2q6 0 11 4.5t11 12t10 10.5q4 2 41.5 22.5 t57.5 34.5q42 26 109 50t141 24q10 0 17.5 -0.5t16 -2t14 -2.5t15 -4t14 -4.5t17.5 -6.5t20 -7q37 -15 55.5 -34t27 -38.5t18.5 -27.5q-3 -4 -7 -15t-8 -18q-29 -44 -126.5 -81.5t-194.5 -37.5q-30 0 -88 3.5t-84 3.5h-6h-7.5h-8t-7.5 -1l-6 -2t-4.5 -3t-1.5 -5 q0 -22 30.5 -55t30.5 -49q6 -3 57.5 -45t104 -64t119.5 -22q126 0 362 139q3 5 54.5 29.5t60.5 27.5q2 1 21 24t26 28q49 17 101 51t86.5 64.5t69 58t54.5 33.5q1 -8 3.5 -15.5t2.5 -9.5q0 -6 -24 -37q-11 -7 -54.5 -52t-78.5 -63l-5 -9q-6 -8 -8 -9q-3 -1 -29.5 -10.5 t-29.5 -10.5q-1 0 -104.5 -67t-116.5 -76q-81 -46 -192.5 -91.5t-163.5 -45.5q-7 0 -26.5 -1t-31.5 0t-35.5 4t-55.5 12t-75 24q-80 29 -196 145q-2 2 -5 12.5t-6 14.5q-3 5 -10 8t-8 4q-3 4 -7.5 16t-10.5 18.5t-17 6.5q-12 0 -18.5 -8.5t-10.5 -21t-8 -17.5 q-17 -4 -28 -23.5t-25 -39t-37 -23.5v-4q0 -16 -23 -46.5t-36 -35.5q-1 -3 -3 -16t-7 -21q-2 -5 -10 -10.5t-9 -5.5q-2 -3 -6 -16.5t-11.5 -19.5t-25.5 -9q-18 0 -35.5 13.5t-23.5 33.5q-2 5 -8 11.5t-9.5 16.5t-3.5 27q0 29 16 84t17 61q11 50 49 170q2 8 5 15.5t4 10.5 t1 5q0 1 -4 17q17 7 33.5 36t24.5 37q-26 -8 -87 -59t-106 -64q3 11 4.5 25t5.5 22t15 15q39 26 135 98q21 14 45 47t39 45q3 21 16 47t27 33q6 52 36.5 111t57.5 82q-2 6 -2 12q0 7 18 38t31 38q3 77 64 131q1 5 5.5 18.5t5.5 18t5 15.5t6.5 15.5t7 12.5t9 13.5t10.5 11.5 t14 12q-2 4 -2 10q0 14 11.5 25.5t11.5 15.5q0 1 -1 4.5t-1 5.5q14 5 28 23t21 33l8 16q0 8 -2 16q10 1 15.5 8t10 18t9.5 17q1 1 4 1.5t5.5 1t2.5 1.5q6 8 19 35.5t26 45t27 17.5h4q-4 8 -4 13t5.5 10t14.5 10.5t13 9.5q1 1 15 20.5t30 38t48.5 34.5t71.5 16q47 0 74 -21 t27 -79q0 -41 -18 -94t-48 -99q-1 -2 -6 -6t-6 -6q-4 -6 -8 -21t-8 -22q0 -1 -3 -2l-6 -2t-4 -2v-11q0 -5 -26 -39.5t-27 -54.5q-18 -7 -36.5 -40t-37.5 -40q-2 -11 -11.5 -28.5t-12.5 -26.5q-19 -11 -33 -39t-21 -35q-12 -16 -50.5 -48t-49.5 -56q-2 -4 -13.5 -14.5 t-27 -25t-22.5 -21.5q-41 -42 -252 -238q-11 -33 -53 -111t-52 -135q-8 -5 -16.5 -23.5t-18.5 -52t-16 -55t-16 -63t-11 -45.5zM823 1673q-5 -4 -18 -15t-23 -19.5t-14 -8.5q-2 0 -4.5 1t-3.5 1q-2 0 -2 -2v-10v-2q-26 -11 -60.5 -44t-35.5 -58q-30 -21 -68.5 -85.5 t-65.5 -84.5q0 -2 1 -6t1 -5q0 -7 -4.5 -15.5t-5.5 -12.5q-11 -2 -15.5 -9t-6 -18.5t-4.5 -15.5q-3 -5 -11.5 -10.5t-11.5 -10.5q-2 -4 -3 -15t-3 -16q-2 -4 -11 -14t-14.5 -18.5t-5.5 -14.5v-10q0 -4 -5.5 -5.5t-6.5 -4.5q-3 -4 -4.5 -16t-3.5 -15q-6 -13 -22 -35.5 t-21 -31.5q-2 -4 -4.5 -15.5t-4.5 -15.5q-1 -4 -7.5 -5t-6.5 -5v-9q0 -14 -18.5 -42.5t-18.5 -45.5q-2 -8 -13 -14t-11 -10q0 -6 4 -8q9 1 18.5 8t14.5 13l6 7v8q15 3 35 19q1 1 2.5 8.5t3.5 9.5q1 0 5.5 -1t6.5 -1q3 0 6 7.5t5.5 15.5t4.5 10q1 1 4 2.5l5 2.5t4 3.5t2 5.5 v2q19 6 45 33.5t47 34.5q9 20 37.5 48.5t31.5 35.5q6 14 10.5 18.5t9 6t7.5 4.5q5 7 12.5 25.5t12.5 25.5q9 17 42 61.5t42 75.5q12 0 34.5 33t26.5 63q48 39 51 109q12 9 22.5 32.5t10.5 43.5q0 13 -5 19t-10 6.5t-18 0.5zM655 567q-8 -2 -24.5 -2t-20.5 -2q-2 -12 -6 -12 q-61 -15 -133 -50.5t-98 -68.5q27 -8 92 -8q101 0 163.5 7.5t116.5 33.5q17 10 35 10q-2 -3 0 -2q13 4 37 32q17 19 17 30q0 40 -97 40q-46 0 -82 -8z" />
<glyph unicode="l" horiz-adv-x="784" d="M862 1812q-2 -44 -18 -139q-4 -17 -10.5 -32.5t-15 -33.5t-13.5 -30q-5 -13 -10 -38.5t-7 -31.5q-4 -7 -17 -26t-17 -29q-26 -70 -57 -130.5t-88 -156t-77 -131.5q-11 -19 -23 -34.5t-28 -35t-28 -36.5q-5 -5 -6.5 -14.5t-2.5 -12.5q-14 0 -19.5 -9t-8 -21.5t-6.5 -16.5 q-6 -9 -25.5 -16.5t-19.5 -26.5q0 -9 -14.5 -12t-18.5 -8q-3 -4 -3.5 -16t-2.5 -15q-9 -10 -37 -31t-39 -37q-2 -3 -3.5 -15.5t-4.5 -17.5q-12 0 -15 -6q-42 -56 -68 -157.5t-26 -204.5q0 -186 66 -297q1 -2 4 -5q94 -118 172 -118q18 0 58 5t67 5q10 0 10 -8v-4q0 -8 6 -8 q8 0 24.5 5t28.5 5h11q-4 -33 -43 -51.5t-60 -18.5q-3 0 -16.5 3t-26.5 3q-6 0 -14.5 -4t-13.5 -4q-3 -1 -13 3t-25.5 10.5t-29.5 9.5q-9 2 -25.5 4t-29 5t-19.5 7q-2 1 -5 9t-9 8q-1 0 -4.5 -1t-5.5 -1q-6 0 -7 9t-4 9h-10q-6 0 -6 2t1 6t1 6t-4 2h-10q-6 0 -12 11.5 t-9 13.5q-1 1 -6.5 1.5t-10 2t-5.5 4.5q-4 2 -6 12.5t-5 12.5q-27 32 -49 63q-11 30 -24 43q-39 57 -39 248q0 25 28.5 151t28.5 150q-11 -8 -33.5 -29.5t-48.5 -33.5q-11 -8 -17.5 -12t-8.5 -4t-4.5 -1t-8 -6.5t-16.5 -17.5h-10q-6 0 -18 -2t-17 -2q-16 0 -19 14 q8 0 16.5 8t24.5 8q-2 4 -2 8q0 8 11 10.5t14 6.5q8 13 53.5 49.5t77.5 85.5q2 6 25.5 22t23.5 29q0 5 -4 18t-4 21q0 6 12.5 11t25.5 22t13 51q0 6 -1 10.5t-1 5.5q0 7 23 25q-1 4 -4.5 12t-5 14.5t-1.5 14.5v14q23 26 34.5 77.5t15.5 60.5q2 5 29.5 53t27.5 80v10 q16 6 24.5 20t14.5 37t10 31q3 5 11.5 18.5t13.5 22.5q6 9 35.5 85t48.5 112q1 2 8 9t8 9q1 4 3.5 15t5.5 21t7 19q0 2 7 4t8 4q2 3 4 15t7 19t15 7h6q0 21 21.5 44t21.5 44q8 5 29.5 13.5t28.5 13.5q11 3 17.5 24.5t11.5 24.5q36 5 51 33q5 0 21 -1.5t22.5 -2.5t19.5 -2.5 t20.5 -4t16 -6t14.5 -8.5q5 -4 14.5 -21t20.5 -20zM655 1714q-16 -22 -67 -115q0 -4 -7.5 -5.5t-7.5 -6.5q0 -4 1 -7l1 -3q0 7 -9 -9q-4 -6 -11 -21l-6 -11q-76 -148 -123 -256q-96 -216 -168 -473l2 -6q5 0 13 8.5t10 13.5q11 1 15.5 19t8.5 22q2 4 18.5 6t16.5 11 q0 2 -1 4t-1 4q23 24 31 37t16 43q21 9 43 46t45 44q13 73 74 123q6 29 21 60t28 46q19 20 44.5 86t53.5 94v7q0 8 5.5 19.5t5.5 18.5q0 2 -1 6t-1 7q23 19 53 102.5t30 132.5q0 16 -8 27q-64 -4 -125 -74z" />
<glyph unicode="m" horiz-adv-x="1820" d="M1837 569q0 -2 1 -6t1 -6q0 -19 -11.5 -31t-22.5 -19.5t-11 -14.5t-16.5 -18.5t-16.5 -18.5q2 -5 4 -9q-8 -1 -18 -7.5t-17 -13.5t-16.5 -17.5t-11.5 -12.5q-3 -4 -36.5 -33t-61 -57.5t-27.5 -40.5q-16 0 -55.5 -46t-42.5 -48q-6 -5 -18 -12t-33.5 -18.5t-41.5 -24.5 q-19 -23 -50 -47t-56 -31q-2 0 -52 -21.5t-54 -21.5q-27 -10 -52 -10q-15 0 -41 6.5t-34 13.5l-9.5 9.5l-13.5 13.5t-15 16t-16.5 19.5t-14.5 21t-12.5 24t-8 24.5t-3.5 26v45q0 15 -4 40t-4 33q0 12 10.5 35.5t10.5 38.5q0 6 -1 18t-1 17q0 9 11 27.5t11 27.5q0 4 -1 13 t-1 14q0 12 8 18.5t8 16.5q0 1 -3 6.5t-3 9.5q0 13 12 48t15 46q-1 0 -2 -1t-2 -1v2q0 2 1 10t1 13t-1 16t-1 15q-21 -1 -50 -16.5t-73 -52t-70.5 -60t-87 -80.5t-78.5 -74q-2 -3 -8.5 -8t-7.5 -6t-21 -23t-40.5 -42t-47 -43.5t-52.5 -38t-46 -15.5q-21 1 -29 10.5 t-13.5 31.5t-14.5 36q-2 7 -9.5 19t-7.5 20q0 19 13.5 58t13.5 60l-1 5q-1 5 -1 8q28 43 39.5 80t17.5 104q-17 -1 -35 -10.5t-30 -19.5t-33.5 -30t-30.5 -28q-10 -8 -34 -27t-43.5 -35.5t-36.5 -33.5q-5 -5 -12 -16t-13 -17q-6 -3 -13.5 -9t-12.5 -11l-16 -16l-17 -17 q-4 -4 -6 -11.5t-5 -9.5q-6 -6 -14 -6q-15 -16 -33 -46.5t-33 -47.5t-34 -17q-21 0 -45.5 18t-38.5 42l96 397q4 -2 30 -10.5t36 -16.5t14 -22q-6 -23 -36.5 -105t-37.5 -137q29 1 65 32.5t92.5 91t104.5 97.5q10 8 59 51t85 65t67 22q24 0 43 -15t19 -39q0 -72 -41 -187 t-49 -167q4 -2 12 -2q34 0 76 47q35 23 98 82q7 6 18.5 11t16.5 8q4 4 7 15.5t7 16.5q21 21 68 56t65 51q17 13 69 59t92 73.5t65 27.5q30 0 55.5 -27t25.5 -90q0 -92 -34 -129q-1 -24 -29 -133q-3 -10 -11.5 -41t-16 -49t-17.5 -29q10 -20 10 -39t-7 -50t-7 -46t6 -23 q2 -4 5.5 -31t6.5 -30q4 0 8.5 -6.5t11 -14t29 -14t58.5 -6.5q25 0 67 18.5t76 50.5q8 8 75 52t107 88q4 4 18 21.5t25.5 26.5t22.5 9q39 31 47 31q1 0 11 16t27 40t32 38q4 6 24.5 16t20.5 23q20 7 41 26.5t32 38.5q-1 -2 12.5 8t30 21.5t21.5 11.5q2 0 4 -2z" />
<glyph unicode="n" horiz-adv-x="1435" d="M463 100q-6 9 -13.5 53.5t-7.5 73.5q0 11 11.5 35t11.5 39q0 5 -2 17.5t-2 17.5q0 9 11 27.5t11 27.5q0 4 -1 13t-1 14q0 12 8.5 18.5t8.5 16.5q0 1 -3 6t-3 10q0 13 12 48.5t14 45.5l-2 -2l-2 2q2 4 2 23q0 22 -2 30q-18 -1 -31.5 -6.5t-29.5 -16.5t-23 -15 q-26 -22 -117 -88.5t-145 -116.5q-2 -4 -9 -9l-7 -6q-1 -1 -19.5 -21t-38.5 -40.5t-45 -43.5t-47.5 -38t-36.5 -16q-19 12 -39 41l119 432q6 -2 24.5 -7.5t26 -9t17 -12t12.5 -20.5q-7 -24 -37 -105.5t-37 -134.5q38 25 99 82q7 5 18 10t16 8q48 48 71.5 63.5t36.5 19 t30 18.5q7 5 33 26t42 32.5t40.5 27t47.5 23t45 7.5q40 0 64 -25.5t24 -66.5q-3 -18 -4 -37.5t-1.5 -29t-5.5 -21.5t-15 -24q-2 -41 -29 -131q-3 -10 -11.5 -41t-16 -49t-17.5 -29q10 -15 10 -39q0 -9 -3 -28t-3 -27q7 -38 38 -58t69 -20q34 0 71.5 15.5t84 42.5t67.5 36 q40 19 66.5 35.5t66 46t62.5 45.5q10 7 35.5 15.5t35.5 15.5q5 4 12 19.5t13 19.5q24 16 100 79q5 3 19.5 7.5t19.5 7.5q19 16 50.5 36t51.5 37q9 8 29 26.5t34.5 31t18.5 12.5q9 0 9 -31q0 -15 -6 -24t-17.5 -17t-15.5 -14q-3 -3 -6.5 -14t-6.5 -13q-8 -8 -53 -28t-51 -39 q-51 -26 -83.5 -49.5t-71.5 -57.5t-85 -65q-17 -11 -27 -22t-28 -23q-46 -31 -55 -31h-19q-11 0 -14 -3.5t-3.5 -9.5t-16.5 -16.5t-50 -21.5q-5 -3 -16 -12.5t-16 -12.5l-12 -2q-12 -2 -17 -6q-2 -2 -3.5 -6.5t-5 -7t-10.5 -2.5q-4 0 -12 1t-12 1q-18 0 -31.5 -14t-19.5 -17 q-17 -5 -29 -10.5t-17.5 -7.5t-11.5 -2q-2 0 -9.5 2t-19.5 4t-26 2q-11 0 -27 -3t-22 -3q-12 0 -22.5 6.5t-17.5 14t-21 24.5t-25 28z" />
<glyph unicode="o" horiz-adv-x="966" d="M983 590q4 2 6 2q4 0 8 -3t7 -3q4 0 8 4l-15 -41q-6 -6 -28 -17q-4 -2 -34.5 -22t-55 -32.5t-39.5 -12.5q-4 0 -6 2t-3 2l-2 -3q-2 -2 -5.5 -6t-8.5 -7.5t-13 -6t-18 -2.5h-16q0 -1 1 -3t1 -3q0 -9 -13 -14t-16 -10q-9 1 -15.5 2t-9 2.5t-4.5 2.5t-3 1q-18 0 -36.5 -15.5 t-33.5 -15.5h-10q-8 -3 -42.5 -8t-41.5 -12q-23 -4 -66 -12.5t-82 -14.5q-12 -9 -13 -22t-3 -17q-14 -13 -61 -76.5t-68 -70.5q-1 -2 -18 -11.5t-17 -15.5q0 -2 1 -7t1 -7h-6h-10q-13 0 -24.5 -11t-16.5 -24q-16 -4 -80 -27.5t-98 -23.5q-26 0 -47 8q-1 0 -10.5 3t-18.5 7 t-25.5 16.5t-32.5 30.5q-4 4 -4 15t-2 14q-17 23 -20.5 36t-3.5 44q0 45 17 112t44 107q14 21 30 42t47 53t64 56.5t80.5 45.5t96.5 28v-2q0 -8 6 -8q4 0 13.5 1t14.5 1q48 0 91.5 -24.5t44.5 -67.5q-5 1 -26 8t-34.5 9.5t-27.5 2.5q-17 0 -35 -6q17 -4 32 -9t26 -9.5 t20.5 -12.5t16 -12t12.5 -15t9 -15t8 -17.5t6 -17.5t5.5 -20.5t5.5 -20.5q88 0 219 26.5t246 85.5q19 11 43.5 19t40.5 16q0 14 6 17q3 1 17.5 4t23.5 8zM276 266q14 21 37 105q-3 9 -12 19t-16 16t-19.5 15t-15.5 11q-15 12 -34.5 42t-38.5 50.5t-40 20.5q-26 0 -63 -36.5 t-47 -41.5q-21 -14 -51 -57t-39 -52q-35 -58 -35 -135q0 -141 92 -141q75 0 125 43q3 1 7.5 10t8.5 12q15 10 84 52q3 3 8.5 17.5t12.5 21.5q2 2 7.5 2.5t9 0.5t3.5 3v12q0 3 2.5 4t7 2.5t6.5 3.5z" />
<glyph unicode="p" horiz-adv-x="1232" d="M-100 55l-4 -16q-9 -15 -22 -58t-13 -71q-29 -71 -55 -149t-53.5 -167.5t-41.5 -132.5q-3 -8 -10.5 -39t-15.5 -45q-4 -15 -17.5 -38t-17.5 -33l-12 -45q-4 -13 -24 -54t-20 -57q-9 -23 -14 -75.5t-18 -75.5q-70 5 -70 51q0 28 36.5 107t39.5 89q2 9 2.5 17.5t2 14.5 t7.5 13l21 62q4 11 8.5 29t7.5 28t9.5 20.5t15.5 16.5v10q0 17 3.5 36.5t7.5 32.5t12 35.5t11 32.5q2 5 17 56.5t31 77.5l-5 51q2 4 20.5 28.5t18.5 34.5q0 3 -3 8t-3 9q0 12 29 55.5t29 69.5q0 4 -1.5 11t-1.5 11q0 31 21 33q6 46 6 47q2 5 7.5 19t8.5 24.5t3 17.5v3 q4 0 10 19t6 28q0 17 -14.5 35t-14.5 34q1 1 24 26t32.5 37.5t21.5 36t12 42.5q0 7 -4 17.5t-4 12.5q0 12 19 37q0 2 -2 2h2q-2 2 -2 4l4 4l20 41q0 21 17 82q1 5 4.5 25.5t7 39t8 38t11 31.5t12.5 12l9 -5q5 -3 21 -10l39 -18q3 -6 9.5 -17.5t10 -18.5t6.5 -19.5t3 -26.5 q0 -10 -12 -10q-5 0 -13 6t-16 6q-5 0 -12.5 -15t-16 -40t-14.5 -46.5t-13 -46.5t-8 -28q29 4 71 21.5t92 42.5t67 32q25 4 59 21t57 24q1 0 1.5 -2t1.5 -2q-6 0 2.5 1.5t35 6t46.5 8.5q68 15 88 15q22 0 49 -6q22 -8 55.5 -33.5t38.5 -46.5q16 -55 16 -88 q0 -32 -21.5 -82.5t-43.5 -79.5q30 12 37 12h2q59 0 161 60q30 0 82.5 27.5t83.5 37.5q4 2 46 22.5t49 24.5q6 1 35 21.5t34 21.5q3 1 12.5 12t18.5 11q39 15 63 47q0 -15 6 -24t9 -21q-7 -6 -28.5 -28t-43.5 -36.5t-53 -23.5q-7 0 -28.5 -19.5t-26.5 -21.5q-27 -6 -63 -23 t-63 -32.5t-30 -16.5q-13 2 -24 -10t-15 -12q-3 0 -10.5 1t-10.5 1q-22 -19 -98 -45q-10 -4 -36 -12t-42 -15l-28 -12q-4 -3 -25 -9t-24 -6q-2 0 -22.5 -12t-37.5 -12q-13 0 -27.5 -4.5t-23.5 -9t-26 -14t-25 -13.5q-2 0 -6.5 -6t-8.5 -8q-19 -11 -69 -41t-79.5 -47 t-76 -38.5t-88.5 -33.5q-9 -2 -19.5 -5.5t-17 -6t-15 -4t-16.5 -1.5q-11 0 -61 11h-2q-11 0 -24 19.5t-13 31.5q0 9 3.5 18.5t11.5 20t15 18.5t19.5 19t19 17t20 16.5t16.5 13.5q24 4 95 27.5t107 23.5h21q5 1 12 8.5t12 7.5q3 0 10.5 -1t10.5 -1q8 0 20 7t17 8 q10 2 35.5 5.5t43.5 8.5t33 14q11 20 41.5 46.5t40.5 39.5l13 31l18 23l6.5 19.5t7 21.5t4.5 20t2 22q0 44 -38 70q-2 10 -13 10q-5 0 -11 -1l-5 -1h-25q-70 0 -170 -39q-130 -48 -247 -145q-2 -1 -13 -6t-14 -6.5l-13 -6.5t-14.5 -8.5t-13.5 -9.5t-14.5 -12t-13.5 -14 t-14.5 -17t-12.5 -20q-9 -16 -11.5 -38t-3.5 -26q-1 -3 -8.5 -16.5t-10.5 -23.5t-3 -21q-15 -14 -26.5 -50t-22.5 -53zM285 129q2 1 10 2t14 3.5t6 6.5q0 7 -4 9q-40 -16 -114 -36.5t-111 -36.5t-37 -38q0 -10 14 -10q6 0 19.5 10t19.5 12q120 23 183 78z" />
<glyph unicode="q" horiz-adv-x="843" d="M463 786q1 -7 10.5 -24t9.5 -23q0 -18 -12 -58t-12 -48t6 -23q-3 -6 -10.5 -17.5t-11.5 -18.5t-7.5 -19.5t-3.5 -26.5q2 -2 6 -2q3 0 7.5 2t10.5 7t11 9.5t12 12t11.5 12t12.5 13.5t11 12q11 12 22.5 31t19.5 26.5t22 7.5q9 0 16 -2t11.5 -4.5t7.5 -8.5t5 -9.5t2.5 -13 t0.5 -13v-15.5v-15q-14 -3 -22.5 -14.5t-15.5 -30.5t-12 -27q-4 -5 -22.5 -28t-26.5 -38q-3 -5 -32.5 -59t-49.5 -88q-107 -187 -139 -262q-3 -3 -14 -14.5t-15 -18.5q-3 -8 -6.5 -35.5t-7.5 -38.5q-1 -3 -8.5 -12t-7.5 -10q-13 -25 -30.5 -80t-27.5 -78q-2 -3 -6 -4t-7 -1 t-3 -1q-5 -8 -5.5 -28.5t-4.5 -31.5q-1 -3 -8 -11t-9 -13q-8 -20 -15.5 -60t-16.5 -63q-1 -3 -9 -10.5t-10 -14.5q-31 -146 -31 -233q0 -211 127 -211q82 0 228 84q38 31 123 96t133 105q10 13 21 16t14 6t14 21.5t22 31.5q7 7 31 25t33 29q2 2 7.5 15t21.5 22q2 3 17.5 26 t31.5 35t37 12h10q-6 -34 -26 -71t-38 -58.5t-51 -56.5q-14 -15 -43 -46.5t-46.5 -50t-43.5 -44.5t-49 -47q-45 -58 -141 -121q-2 -1 -11.5 -1.5t-15.5 -2.5q-4 -2 -10.5 -13t-10.5 -12q-5 -5 -23 -10.5t-26 -9.5q-84 -52 -172 -52q-32 0 -93.5 16t-61.5 40v6q0 2 -7 20 q-17 12 -23.5 21t-11.5 23.5t-10 23.5q-2 3 -8 5t-6 9q0 1 1 5t1 5q-20 50 -20 127q0 114 25.5 210.5t74.5 215.5q16 27 16 31q0 3 -1 11.5t-1 11.5v4q7 16 25.5 47.5t26.5 50.5q4 10 9 34t9 34q19 50 92 176t94 188q-4 4 -12 4q-22 0 -51 -24.5t-71.5 -58.5t-86.5 -50 q-3 -2 -16 -4.5t-19 -5.5q-8 -4 -26 -17.5t-27 -15.5q-36 -8 -82 -8q-20 0 -41 5t-47 17.5t-42.5 41.5t-16.5 71q0 17 9 36t9 23q4 14 5 35.5t5 28.5q3 9 11 20t25 29.5t22 24.5t16.5 20t16 19t14 16.5t15.5 17t16.5 16.5t20.5 19.5t24 20t30 24.5q0 2 -1 7.5t-1 7.5l2 2h11 l6 2q0 2 -1 5.5t-1 4.5q0 3 9 8t21.5 10.5t18.5 10.5q4 3 28 21.5t35.5 26t37 24.5t44.5 26t44.5 19.5t51 15t50.5 4.5q37 0 53 -19zM365 748q-11 -20 -31 -35t-37 -15q-8 0 -14 2q-11 -17 -27 -28.5t-39.5 -24t-34.5 -20.5q-6 -7 -16 -19t-14 -16q-41 -28 -137.5 -122.5 t-102.5 -115.5q-7 -13 -17.5 -47t-23.5 -49q12 -7 16 -23t12.5 -27t34.5 -11q69 0 134 45q90 42 122 63q3 3 8.5 13t10.5 12q10 7 23 12t18 10q12 19 29.5 69.5t36 87t40.5 42.5q-4 12 -4 18q0 21 22.5 65t22.5 71q0 43 -28 43h-4z" />
<glyph unicode="r" horiz-adv-x="1028" d="M125 717q3 3 13 13.5t13.5 14.5t9 12.5t7.5 17t2 18.5q0 12 -2 20l-49 2q-8 -7 -15.5 -23.5t-7.5 -33.5q0 -32 29 -41zM1049 571q-1 -5 -4 -9q0 -1 -0.5 -1.5t-0.5 -1.5t3 -10q-2 -10 -11 -20.5t-31.5 -28t-31.5 -25.5q-27 -40 -76 -61h-2q-6 0 -7.5 -10t-2.5 -11 q-6 -6 -17 -10t-14 -6q-5 -5 -21 -24t-30 -29.5t-33 -16.5q-1 -1 -17.5 -16.5t-27.5 -22.5q-2 -2 -22 -12.5t-23 -13.5q-4 -2 -12 -11t-23 -20l-127 -94q-4 -2 -15.5 -6.5t-15.5 -6.5q-23 -12 -65 -46t-83.5 -54t-94.5 -20q-23 0 -40.5 4t-27.5 8.5t-19 16.5t-12 18 t-9.5 23.5t-8.5 23.5q6 12 6 14q0 4 -5 7.5t-5 6.5q0 6 6 15l18 20q15 27 45 85t46 85q0 3 6 5t6 6q0 1 -1 5t-1 5q0 7 11.5 27.5t21.5 31.5q0 1 -1 5t-1 7q0 10 4 31t4 33q0 68 -103 121q-20 9 -28 15t-7.5 8.5t-4.5 5.5t-19 8q-1 -2 -10 -11q-12 -10 -22.5 -18t-16 -11.5 t-10 -6t-6 -4t-1.5 -3.5q1 0 4.5 1t4.5 1h2q0 -4 -31 -26l-8 -6q-14 -14 -35 -29l-12 -2q-9 -10 -28 -18.5t-34 -8.5t-26 4t-11 9q0 4 10.5 9.5t25 12t20.5 12.5l2 2v5h2q14 13 25.5 19.5t13.5 8.5q1 2 2 5.5t2 5.5t4 2h2q4 12 19 28.5t35.5 38t31.5 35.5q-15 15 -30 43.5 t-15 54.5q0 15 6 23l3 7q3 6 7.5 12.5t11 16t16 17.5t20.5 15.5t26 11.5t31 4q11 0 16 -7l4 -8q44 -25 51 -43q-2 -16 -2 -22v-2q-3 -14 -10.5 -29.5t-20.5 -37t-20 -34.5v-8q0 -7 -2 -15t-2 -9q0 -8 27 -26t45 -19v-7q0 -9 13.5 -23t37.5 -26q1 -1 11 -9t19 -16t9 -9 q3 -8 19 -38.5t16 -50.5q0 -18 -13 -28q8 -5 8 -15q0 -17 -2.5 -33t-9 -31.5t-11 -25t-14.5 -27l-14 -24.5q-6 -22 -18 -43q-4 -10 -14 -21t-15 -20q-4 -4 -5 -14.5t-1 -11.5q1 1 -9.5 -13t-22 -28.5t-13.5 -14.5q-9 -21 -16 -39q26 -26 43 -26q28 0 92 37q43 25 47 26 q45 19 95.5 56.5t72.5 48.5l80 61q18 9 32.5 19.5t30 23.5t27.5 21q49 44 105 84t102 79q7 10 16 18.5t14 12t17.5 10.5t15.5 9q3 3 13 14t19 16.5t19 5.5q7 0 11 -2z" />
<glyph unicode="s" horiz-adv-x="917" d="M412 373q-6 -2 -18 -9t-28 -18t-24 -16q-1 -26 -25 -109v-2q-8 -28 -41 -61q-48 -78 -100 -115q-16 -12 -68 -24.5t-59 -28.5q-24 -4 -31 -4q-11 0 -20.5 2t-25 7t-23.5 7l-27 14q-22 27 -22 68q0 59 61 117l23 22q3 3 10.5 6.5t9.5 6.5q2 2 2.5 7t3.5 7t16 4.5t17 5.5 q3 2 9.5 10.5t8.5 10.5q3 1 17 5t23.5 9.5t13.5 13.5h4q11 0 34 10.5t41 20.5l19 10l51 23q2 37 2 59v31q-8 0 -33 186h-10h-18q-8 0 -8 -12q0 -3 -12 -8t-27 -10.5t-19 -8.5q-3 -2 -7.5 -10.5t-6.5 -11.5q-12 -6 -16.5 -6h-6t-16.5 -10t-53 -37q-4 -4 -28 -20t-60.5 -34 t-59.5 -18q-2 0 -5 1t-5 1l16 31l41 24q1 3 19 16t20 13q8 5 25 20.5t18 16.5t27.5 15t28.5 17q21 21 55 31q8 20 30.5 25.5t34.5 15.5q13 13 17 15q4 3 21.5 30t25.5 27q38 0 66 -28.5t28 -43.5q0 -17 -26 -47q-3 -30 -3 -53q0 -26 11 -94l2 -11q-8 0 -8 -12q0 -10 6 -10 v-23v-4q0 -2 -1 -10.5t-1 -9.5v-9q1 -1 1 -2t1 -7t2 -17q131 22 153 31q3 0 45 13t48 13q70 0 112 33q15 12 25 12q3 0 10.5 -2t11.5 -2h6q-1 0 36.5 17t75.5 32.5t38 12.5h-10q12 6 57 18l-25 -45q-11 -5 -16 -9t-5 -6t-1 -4t-6.5 -4t-18.5 -4q-9 0 -22 -14t-23 -14 q-4 0 -4 6v6q0 2 -2 2l-10 -5q-48 -20 -66 -36q-8 -4 -10 -4q-4 0 -8.5 1t-7.5 2t-4 1q-3 -1 -22.5 -11.5t-24.5 -12.5q-2 0 -11 5t-14 5q-8 0 -22 -16.5t-17 -16.5q-5 0 -18.5 13.5t-18.5 13.5q-4 0 -4 -4q0 -2 5 -9.5t5 -9.5q0 -4 -17.5 -8t-21.5 -4q-5 0 -16 3t-16 3h-2 l-30 -13q-29 -14 -38 -14q-4 0 -7.5 8.5t-6.5 8.5h-2zM233 207q-2 2 -2 10q0 11 16.5 38t16.5 46q0 8 -14 8q-14 -11 -46 -24.5t-42 -20.5l-25 -14q-14 -6 -21 -11.5t-12 -11t-10 -8.5q-18 -11 -37.5 -19t-31.5 -16t-27 -26l-14 -19q-21 -26 -25 -59q0 -20 23 -43 q18 4 40 4.5t39 3.5q1 8 32.5 25.5t35.5 21.5q4 2 6 10l2 7l13 10l8 4q2 0 5 -3t5 -3q7 0 33 43t32 47z" />
<glyph unicode="t" horiz-adv-x="563" d="M1116 1233q11 -3 21.5 -4.5t16.5 -1.5h11t7 -2.5t2 -7.5q0 -13 -18.5 -19t-33.5 -6q-13 0 -40.5 5t-43.5 5q-17 0 -47 -6.5t-41 -7.5q-9 0 -26 6.5t-21 7.5q-14 0 -45.5 -3t-52.5 -3q-23 0 -35 2q-79 7 -136 14t-100 11t-139 10q-12 -2 -21.5 -10t-16 -22t-10.5 -24 t-9 -26.5t-6 -20.5q-73 -146 -117 -253q-6 -16 -28 -72t-35.5 -95t-32.5 -98t-32 -120t-21 -123q0 -1 -6.5 -22t-6.5 -23q0 -39 -9 -82t-9 -66v-24q-2 -6 -2 -21q0 -8 4 -20q-2 -6 -2 -17q0 -12 7 -28t7 -29q0 -11 -2 -17q1 -1 14 -20.5t13 -30.5q0 -8 -6 -17t-15 -9 q-4 0 -13 1t-13 1q-12 0 -15 -8v6q1 15 -19 33.5t-24 31.5q-20 58 -20 170q0 126 20 236q5 28 20 75t19 62q3 13 6 39.5t6 38.5q2 10 14.5 29.5t12.5 35.5v15q0 13 9 23t10 16q5 14 21.5 79t18.5 74q3 6 10.5 13.5t12 15t4.5 20.5q1 2 39 86q2 6 19 41t26.5 60.5t11.5 44.5 q0 12 15.5 41t15.5 32v2h-2q-196 23 -332 23q-255 0 -475 -72q-10 -3 -44.5 -13t-58.5 -17t-61 -20.5t-69 -27.5q-2 -1 -5 -10.5t-14 -9.5h-12l-17 -6q-37 -11 -57 -19q-15 -6 -38 -25t-27 -22l-8 -2q-7 -2 -15 -5.5t-17 -9.5t-14.5 -16.5t-5.5 -23.5q0 -16 11 -25t25 -12 t25 -13t11 -26t-49 -16q-17 0 -34.5 4.5t-39.5 13t-31 11.5q0 13 -3 32t-3 27q0 17 16.5 50.5t32.5 41.5q3 3 12.5 5t12.5 5q5 3 13.5 15.5t13.5 15.5q5 4 22.5 7t24.5 7q5 3 38.5 21t50 25.5t47 16.5t56.5 9q32 22 73 37t71.5 21.5t90.5 17.5t93 18q14 2 42.5 12.5 t51.5 10.5h25q25 0 55 11t49 11h35q30 0 79.5 4t67.5 4q41 0 80.5 -3t103.5 -10t113 -11q36 19 115 129q5 8 16 28t16.5 29t15 24t19 27.5t21.5 24.5q15 0 27.5 -5.5t17.5 -10.5t15.5 -18.5t13.5 -16.5q-13 -29 -62 -101.5t-59 -121.5q42 -18 113 -23t104 -16q23 -8 33 -8 q1 0 1 1q1 1 3 1q1 0 41 -11q1 0 11.5 3t17.5 3q34 0 121 -16t141 -16q30 0 104 8z" />
<glyph unicode="u" horiz-adv-x="1314" d="M1346 588l-5 -41l-26 -33l-41 -29l-35 -32l-6 2q-1 0 -1.5 -1t-1 -3t-2.5 -4.5t-5 -4.5q-21 -8 -35 -17.5t-29.5 -25t-21.5 -20.5q-5 -2 -15 -5t-17.5 -5.5t-12.5 -6.5q-58 -47 -119 -86q-2 -1 -3.5 -5t-2.5 -7.5t-2 -3.5q-5 -2 -19.5 -6.5t-23.5 -11.5q-10 -6 -64 -47 t-82 -54q-6 -3 -29.5 -14.5t-38.5 -18.5t-37.5 -13.5t-39.5 -6.5q-19 0 -44.5 13.5t-35.5 23.5q-3 2 -14.5 21t-23 54.5t-11.5 67.5t13 108t13 118q-1 0 -3 1t-3 1q-10 0 -54.5 -37.5t-116.5 -100.5t-120 -100q-10 -8 -26.5 -24t-28 -24t-29.5 -15q-4 -3 -9 -13t-9 -12 q-20 -16 -52.5 -24.5t-53.5 -8.5q-36 0 -60.5 24t-48.5 72q4 20 4 31q0 10 -2 30.5t-2 29.5q0 53 68 202q16 56 41.5 112t48.5 56q38 0 52 -15.5t19 -51.5q0 -19 -23.5 -26.5t-25.5 -18.5q-6 -13 -22.5 -51.5t-23.5 -55.5t-20 -51.5t-19.5 -59t-13 -58.5t-9.5 -68 q15 -9 34 -9q35 0 80.5 36.5t73.5 37.5v4q0 13 12 20.5t13 14.5h4q6 0 14.5 5t15.5 5q1 0 5 -1t6 -1q46 49 160.5 145t213.5 205q6 0 12 -1t10 -2t8.5 -2.5t7 -2.5t6.5 -4t5.5 -4t6.5 -5t6 -5q-1 -19 -3 -35.5t-3.5 -27t-8 -31.5t-9 -29.5t-14.5 -42.5t-17 -49 q-2 -8 -17 -50.5t-22.5 -80t-7.5 -80.5q0 -60 28 -101q10 5 15 5t16 -3.5t16 -3.5q14 0 59.5 33t75.5 33h11q19 34 75 59q9 2 26.5 24.5t29.5 22.5q5 0 14 -6q20 54 84 60q25 25 77 58.5t69 33.5h8q12 15 32.5 29t34.5 36h4q11 0 21.5 19.5t15.5 19.5q4 0 6 -2q9 3 9 6 q0 1 -1 3.5t-1 3.5q0 8 43 10z" />
<glyph unicode="v" horiz-adv-x="894" d="M-27 639q82 -43 82 -145q0 -38 -20.5 -126t-20.5 -89q-1 -7 -4.5 -10t-7 -2.5t-6 -5.5t-2.5 -19q0 -5 1 -15.5t1 -15.5v-6q-21 -105 -21 -119q0 -53 17 -53q11 0 22.5 15.5t18.5 19.5q10 6 14.5 8.5t6 4t1.5 2.5t0.5 4t3.5 7q2 2 10.5 3t10.5 3q1 1 5.5 14t12.5 13h6 q8 19 21 38t23 29.5t34 34.5q1 2 5 13.5t9.5 18.5t14.5 7h4q7 29 51 84q2 3 27.5 46.5t46.5 70.5q5 11 17.5 27t19 32.5t6.5 42.5q27 17 47 17q17 0 37 -10q6 0 29.5 -23.5t23.5 -32.5q0 -6 -6 -6h-12q-11 0 -13 -10q6 -10 37 -22.5t52 -12.5q4 0 12.5 4t13.5 4t12 -5t11 -5 q3 0 10.5 2t11.5 2h6q2 0 6 1t7 1h10q28 0 84 25t100 57q10 0 17.5 5.5t11 10.5t4.5 5t4 -3q8 -19 8 -20t-1 -1q-1 -1 -2.5 -3.5t-2.5 -7.5q-54 -55 -141 -88t-156 -33h-15h-18t-17.5 0.5t-19 1t-17 2.5t-17.5 4t-15 5.5t-14 8.5h-2q-2 0 -4.5 -1t-3.5 -1l-2 2v11q0 2 -6 2 q-5 0 -16.5 -6.5t-16.5 -6.5h-4q-24 -13 -51.5 -55t-40.5 -55q-4 -8 -18.5 -34.5t-27 -47t-24.5 -35.5l-7 -7q-38 -35 -38 -42v-8q0 -5 -10.5 -16.5t-23.5 -24.5t-17 -19q-19 -26 -42.5 -57t-61.5 -71t-54 -40q-36 0 -62 32.5t-26 86.5q0 5 3 17.5t3 17.5q-1 8 -7.5 18 t-6.5 15q0 13 11 43t11 45q0 7 -1 12t-1 6t6.5 8t6.5 17q0 4 -2.5 9t-2.5 9v8q6 11 13 23t11 41q2 11 3 18q1 8 7.5 29.5t6.5 34.5v22q0 6 3.5 28t3.5 30q-2 16 -11.5 46.5t-9.5 45.5q0 8 7 22.5t7 22.5z" />
<glyph unicode="w" horiz-adv-x="1603" d="M745 602l-2 -4q0 -4 9 -8q-2 -14 -3.5 -40.5t-6 -46.5t-17.5 -38q-2 -4 -7 -23t-11.5 -32t-16.5 -19q0 -2 -1 -10t-1.5 -11t-1.5 -10t-2 -10.5t-3 -9t-4 -9t-4.5 -7.5t-6 -6.5t-7.5 -4.5q-1 -18 -8.5 -75t-7.5 -86q0 -37 11 -67t36 -30q10 0 19 6t18 15t14 12q3 3 11 4.5 t10 3.5t8 11t12 14q19 20 81 78.5t93 91.5q2 2 12 11.5t19 22t17 29.5l4 4q3 5 10.5 14t15 20t16.5 25t15.5 28t11 28.5t4.5 26.5v20q0 9 2 15q0 5 12 47.5t17 42.5q12 0 20.5 -10.5t18.5 -10.5h8v-6q0 -10 6 -18t6 -15q0 -12 -4 -32.5t-4 -28.5q0 -21 7 -36t16.5 -23 t27 -13.5t32 -7.5t38.5 -4.5t39 -5.5h2q5 0 33 10t35 10q4 0 4 -2q63 24 104.5 52t85.5 73h4q5 0 13 11.5t10 11.5q8 0 12 -10.5t4 -16.5q0 -5 -2 -14t-2 -11q-3 3 -16 -10t-30.5 -28t-29.5 -15q-8 -5 -23.5 -18t-28 -22t-21.5 -9q-7 0 -13 6q-6 -2 -17.5 -17t-27.5 -20 q-21 0 -53.5 -14t-50.5 -14q-16 0 -50.5 3t-47.5 3h-17q-12 8 -37 23.5t-28 15.5q-6 0 -10.5 -11.5t-8 -25.5t-6.5 -17q-18 -33 -47.5 -68t-70 -78t-62.5 -69q-14 -18 -41.5 -47.5t-30.5 -29.5h-10q-2 -1 -2 -3q0 -1 1 -4t1 -4q0 -4 -4 -4q-2 0 -5.5 1t-4.5 1v-4v-8 q0 -13 -46.5 -39t-76.5 -27q-13 0 -37.5 6t-34.5 13q-2 0 -4.5 5t-3.5 5q-11 9 -27 28.5t-35.5 62t-19.5 83.5q0 42 16.5 117.5t18.5 93.5q-16 -5 -32 -17t-34.5 -29t-30.5 -26q-128 -101 -192 -139q-13 -11 -49 -43t-60 -49q-10 -6 -39.5 -27t-48.5 -32.5t-48.5 -23 t-55.5 -11.5q-46 0 -74.5 35.5t-28.5 95.5q0 18 3.5 38t11 47t10.5 42q2 6 3.5 21.5t4.5 23.5q2 6 11 16.5t10 18.5q5 12 9.5 42t14.5 48q5 11 23 70.5t36 103t33 43.5q19 0 37.5 -12.5t18.5 -24.5q0 -47 -62 -213q-3 -6 -4.5 -10.5t-3.5 -9.5q0 -3 -6 -8.5t-6 -8.5v-10 q0 -7 -15 -43t-30 -90t-15 -105q0 -20 2 -28q43 6 80.5 27t77.5 50.5t68 43.5q17 21 63 57t60 49q14 14 45.5 35.5t56.5 42.5q5 4 27.5 19.5t43.5 31.5t31 27q1 1 10 7.5t14 10t15.5 11.5t17.5 14t16 14t15 15.5t11.5 15.5t8.5 15.5t3 14.5t-6 18t-6 19q0 23 39 23 q44 0 77 -33z" />
<glyph unicode="x" horiz-adv-x="1193" d="M246 297q-21 -1 -43.5 -18.5t-22.5 -28.5q0 -13 14.5 -37.5t14.5 -42.5q13 -19 27.5 -33.5t28.5 -23.5t24.5 -14.5t20.5 -8.5l9 -4q6 0 26 -5t34 -5q17 0 43.5 7t32.5 7q5 0 14 -2t14 -2q33 14 35 14q4 0 7 -4l3 -4q19 0 54 35q4 1 18.5 2t17.5 2q31 15 69 40t65 40 q174 104 174 119q0 1 -1 3t-1 3q40 37 65 51q20 10 28.5 20t9 16.5t6.5 12t22 8.5q15 12 33.5 37.5t46.5 40.5q5 3 11 9t10 11t5 5t1 -1q1 -1 3 -1q1 0 9 4q10 10 10 16q0 2 -2 2v-2l-2 2q4 1 22 11q3 -2 9 -4.5t8 -4.5t2 -6q0 -15 -5 -24.5t-22 -26.5q-8 -6 -9.5 -12.5 t-10.5 -12.5q-20 -11 -27.5 -17.5t-8.5 -9.5t-10 -13.5t-28 -26.5q-21 -28 -30 -36t-40 -28q-10 -6 -30.5 -29.5t-36.5 -27.5q-44 -40 -76 -55l-21 -4l-49 -47q-5 -3 -33 -15q-8 0 -12 -3.5t-6 -8.5t-4 -6q-10 -5 -36 -11.5t-40 -21.5l-33 -10q-67 -67 -151 -70 q-5 -8 -15 -8q-1 0 -5.5 1t-6.5 1q-45 -4 -80 -12q-4 -4 -10 -4q-3 0 -15 5t-22 5h-16q-14 0 -51 18.5t-54 18.5q-4 2 -4.5 6t-3.5 4h-8q-2 0 -3 3.5t-1.5 7.5t-1.5 5q-3 2 -12 3t-13 3q-17 17 -36 58.5t-19 52.5q-80 -29 -193 -152q-6 3 -10 3q-2 -3 -2 -5v-6 q0 -1 -11 -4.5t-11 -11.5l2 -4h-23q-5 -5 -14.5 -16t-17.5 -18t-15 -7h-8q-14 -23 -41 -23q-9 0 -25 4q7 15 20 30.5t22.5 24.5t32 27t30.5 25q14 12 72.5 55t86.5 72l23 24q3 0 5.5 2.5l6.5 6.5t8 6q26 12 38.5 29.5t14.5 34.5t5 49.5t10 58.5q6 48 6 49q0 9 -5 16t-5 11 q0 2 4 10q-6 10 -10.5 15t-14 10t-24.5 6h-14h-9q-8 -3 -34 -11q-6 -6 -35 -23.5t-37 -17.5q-3 0 -6 2t-4 2l-2 -3q-2 -3 -6 -7t-10.5 -8t-18 -7t-25.5 -3l2 -6h-2q-10 14 -16 14q-2 -2 -2 -4q-6 0 -6 4q0 9 50 45.5t50 38.5q39 12 43 14l35 17q4 -4 10 -4q3 0 7.5 7t13.5 7 q27 0 37 -8t12 -8h12q6 0 11 -6.5t9 -8.5q62 -45 62 -119q0 -36 -6 -77q10 3 19 8t19 12.5t15.5 12t18.5 16t18 16.5q14 11 43.5 25.5t44.5 27.5q68 58 86 76q9 7 30 22t35 27t23 25q5 5 14.5 26.5t18.5 28.5q-1 12 -18.5 22t-20.5 19q27 27 61 27q30 0 61.5 -15.5 t35.5 -46.5q0 -8 -22.5 -45t-35.5 -37q-2 0 -5.5 1t-4.5 1q-2 -2 -2 -4t1 -5t1 -5q0 -3 -16 -14t-39 -27.5t-35 -28.5q-13 -9 -36 -33t-38 -34q-3 -2 -24.5 -26.5t-38.5 -24.5q-4 0 -12 2t-11 2q5 0 -59 -39q-25 -25 -37 -33l-6 -12q-37 -9 -41 -37z" />
<glyph unicode="y" horiz-adv-x="1394" d="M1448 582q1 0 4 1t4 1l6 -6q-13 0 -16 -3q4 1 -7 -11q-40 -43 -43 -49q-1 -2 -1 -3l-15 -2.5t-14 -4t-14.5 -7t-8 -10t-4.5 -15.5q0 -8 2 -12q-8 4 -14 4q-14 0 -36 -29t-46 -35q-6 -3 -10 -14.5t-6 -13.5q-16 -9 -37 -26.5t-49 -42.5t-33 -30q-3 -2 -10.5 -4t-9.5 -4 q-20 -23 -62.5 -65.5t-64.5 -57.5q-17 -11 -66 -62.5t-63 -62.5q-4 -3 -25.5 -31t-26.5 -32q-48 -39 -99 -95.5t-65 -90.5q-30 -84 -120 -256q0 -17 -8.5 -22.5t-8.5 -8.5q0 -1 1 -5.5t1 -6.5q0 -3 -2.5 -4.5t-6.5 -3t-5 -1.5q-4 -12 -14 -33t-17.5 -37t-7.5 -18v-12 q0 -3 -5 -4.5t-5 -3.5q-96 -169 -123 -213q-9 -14 -40.5 -60.5t-49.5 -78.5t-31 -66q-10 -3 -16.5 -9t-11.5 -16t-9 -14q-1 -3 -6.5 -6t-5.5 -6v-12q0 -2 -11 -16t-28.5 -34.5t-32.5 -35.5q-20 -28 -34 -44.5t-44 -35t-65 -23.5q-13 5 -38 20.5t-40 20.5q-6 27 -6 53 q0 75 41 162q1 2 6.5 3.5t5.5 4.5q0 1 -1 4t-1 5q0 7 6.5 21t14 26t18.5 29.5t14 21.5q6 13 21.5 36t26 41t10.5 25v8q23 10 37 33.5t38.5 65t65.5 82.5q2 2 3 9t3 9q4 6 15.5 14.5t15.5 12.5q4 5 8 19.5t8 19.5q7 9 26.5 26t27.5 27q4 3 20 12.5t27.5 18.5t11.5 14 q0 3 -3 11t-3 11q0 4 10 6.5t22 5t15 5.5q7 7 9 21.5t9 23.5q51 65 228 229q12 38 56 150t65 198q2 5 3 18.5t3 18.5q0 2 5 8t5 7q8 23 20 103t25 130q-11 11 -14 33.5t-3.5 40.5t-17.5 32.5t-55 14.5q-36 0 -98 -37q-6 -2 -22 -5.5t-24 -8.5q-30 -18 -60.5 -40.5t-75 -60 t-56.5 -47.5l-18 -6q-15 -11 -55.5 -48t-55.5 -50q-4 -5 -16.5 -14t-16.5 -13q-4 -3 -24.5 -27.5t-36.5 -31.5q-13 -14 -58 -60t-61 -65q-4 -3 -6 -12t-6 -13q-4 -5 -17 -12q-63 -80 -106 -80q-22 0 -39 25.5t-17 56.5q0 35 25 51q2 51 39 148q1 4 5.5 8t4.5 8v16 q0 3 10.5 10t10.5 15l-2 4v-1q0 -2 1 0v3q11 53 33 58q0 7 -4 13.5t-4 12.5q0 -2 2 2q2 3 6 15q26 62 39 71q0 27 8.5 51.5t17.5 39t26 38.5q17 0 28 -6t22.5 -18t18.5 -17q-10 -20 -18.5 -57.5t-14.5 -52.5q-3 -10 -44 -70.5t-44 -75.5q-1 -3 -1.5 -11.5t-3.5 -12.5t-11 -6 q0 -36 -24.5 -84t-24.5 -84q8 -4 10 -4q11 0 21.5 14t15.5 14l8 -2q9 0 20 11t23.5 27.5t18.5 21.5q1 2 5 3.5t5 2.5q6 0 13.5 9.5t24 27.5t40.5 34q21 18 51 51t57 50q2 1 3.5 6.5t4.5 5.5h9q5 0 32 23.5t71 61t79 60.5q2 2 7.5 10.5t10.5 10.5q4 3 13 4.5t12 3.5 q6 4 15.5 17t15.5 16t26 9.5t29 10.5q1 0 9 5.5t18 11t23.5 11.5t31 9.5t35.5 3.5q16 0 58 -13t42 -26v-8q0 -2 2 -2h10q19 0 32 -50.5t13 -86.5q0 -11 -1 -29t-1 -24q-1 -6 -6 -16.5t-6 -16.5q-2 -13 -5.5 -48t-8.5 -52q-5 -20 -18.5 -61t-18.5 -62q-3 -10 -8.5 -31 t-8.5 -31q-5 -14 -16.5 -41.5t-17.5 -48t-9 -47.5l2 -2q15 0 65.5 60.5t53.5 62.5q20 16 54.5 50.5t39.5 47.5q2 -2 9 -2q4 0 32.5 26t72.5 65.5t73 62.5q5 5 26 28t35 35.5t19 12.5h8q4 0 6 2q0 1 -1 4.5t-1 5.5l2 6q6 3 18 8t17 8t12.5 8t12.5 11.5t8 15.5q48 21 55 27 q7 4 14.5 10t15 14t11.5 11q9 5 28 10t33 12t25 21zM12 -1167q8 9 23.5 26t23 25t15.5 19.5t12 19.5q3 3 4 10.5t4 9.5q2 3 11.5 9.5t11.5 9.5t3 10t3 8q5 10 17 26.5t14 20.5l12 14q12 14 25 35t30 54q2 3 3 10t3 10t12 11t13 14q3 5 5 16t5 16q1 2 12 13.5t17 31.5 q13 21 31 46q12 24 39 70t30 52q15 29 56 121.5t69 139.5q0 14 -10 14h-4q-15 -22 -74.5 -69.5t-75.5 -82.5q-5 -1 -6 -6t-8 -8q-24 -10 -41.5 -28.5t-26.5 -32t-14 -13.5q-6 0 -12.5 -9.5t-15.5 -29t-13 -26.5q-3 -5 -21.5 -15.5t-21.5 -15.5q-4 -6 -4.5 -18t-3.5 -17 q-2 -2 -9 -2.5t-12.5 -2t-5.5 -5.5t6.5 -20.5t6.5 -20.5v-4q-41 -66 -78 -103q-1 -8 -3 -15t-7.5 -14t-8.5 -10l-11 -11l-7 -7q-6 -8 -7 -20.5t-3 -16.5q-5 -5 -8.5 -9t-5.5 -6.5t-3.5 -7t-2 -5t-2 -6.5t-1.5 -7q0 8 -11 -11q-25 -44 -52 -112q-1 -2 -19.5 -38t-19.5 -50 q6 -6 6 -12q0 -3 -3 -20.5t-3 -26.5q0 -3 1 -8.5t1 -7.5q19 1 36 11.5t27 21t25 29t22 26.5z" />
<glyph unicode="z" horiz-adv-x="1202" d="M1468 -29q9 1 42.5 7t58.5 9t45 3q25 0 43 -6l-4 -11q-4 9 -8 9l-12 -4q-30 -7 -38 -11q-12 -3 -63.5 -9t-83.5 -24q-13 -3 -41 -8.5t-52.5 -11.5t-45.5 -14q-58 -18 -163.5 -42.5t-185.5 -49t-141 -60.5q-40 -106 -135 -283q-10 -26 -15.5 -37.5t-19.5 -29t-31 -23.5 q-9 -41 -23 -64.5t-44 -31.5q-7 -25 -34 -55.5t-34 -50.5h-8q-7 0 -14 -12.5t-17 -12.5q1 16 15.5 31t15.5 16q31 48 31 55v21q0 20 10 20q4 0 8 -5t6 -5q-1 0 9 11t22.5 25.5t16.5 20.5q16 119 86 154v8q0 16 6 36t12 34t16.5 35t12.5 26q4 14 14.5 33.5t15.5 40.5 q-2 2 -6 2t-20.5 -13t-32.5 -16q-13 -8 -67.5 -50t-88.5 -60q0 -13 -16 -23.5t-18 -13.5q-12 -29 -34.5 -53.5t-52.5 -51t-47 -47.5v-10q-11 -14 -37.5 -40.5t-29.5 -28.5l-41 -56q-16 -20 -47 -71q-1 -2 -7.5 -4t-7.5 -3q-3 -5 -25 -66.5t-44 -88.5q7 -5 18 -21 q42 0 104.5 39.5t94.5 44.5q13 13 16 13l10 -5q-4 -15 -16.5 -34t-23.5 -19l-9 2v-10q0 2 -9.5 -8.5t-24.5 -22.5t-25 -12h-12q-5 0 -6.5 -8.5t-2.5 -9.5q-21 0 -32 -9q-4 -1 -12.5 -9.5t-20.5 -8.5q-5 0 -14.5 1t-14.5 1q-14 0 -22 -6q-5 5 -20 16t-21 17t-15 16.5 t-12.5 22t-3.5 26.5q0 26 10 51q0 2 3.5 3t6.5 1h3q4 5 4 21.5t4 22.5q5 9 20 28.5t17 26.5q11 35 55 74q11 24 27.5 45.5t44 51.5t34.5 38q63 82 117 112q6 22 46 67.5t81 45.5q15 23 36 40t50 34.5t43 27.5q55 40 121 76q4 8 7 17.5t4.5 23.5t2.5 24t2 30t2 30v4 q0 47 7 78q0 48 -11.5 108.5t-38.5 100.5q-7 10 -19 22t-37 30.5t-63.5 31t-82.5 12.5q-17 0 -43 -8t-27 -8q-3 0 -7 1t-7 1q-14 0 -31 -13t-40.5 -40t-25.5 -29q-11 -5 -21.5 -12t-26 -20.5t-21.5 -18.5q-30 -27 -113 -76q-4 -3 -10 -7q-9 -7 -18.5 -8t-57.5 -1 q-63 0 -63 47q0 43 22 65q37 38 84 69t76.5 46t99.5 47q22 5 50 16t63.5 32t64 47.5t48.5 65.5t20 83q0 28 -20 51q-13 3 -23.5 18.5t-38.5 16.5q-41 20 -47 20q-6 2 -25 2q-85 -3 -163 -41q-11 -5 -36.5 -17t-35.5 -17.5t-27.5 -15.5t-32 -20t-30.5 -24q-5 -2 -33.5 -23.5 t-40.5 -21.5h-4q-15 -27 -29 -27h-6q-3 -2 -8.5 -4t-26.5 -20q-4 1 -18 2.5t-22.5 4t-8.5 7.5q0 -2 19.5 17t62 53t86.5 59q8 1 39 22.5t67 45.5t95 44.5t119 20.5h10q7 0 23 2t22 2q20 0 46.5 -10t37.5 -10h8h6q-12 0 14 -14l50 -27q16 -13 29.5 -44t13.5 -48 q0 -35 -7.5 -64.5t-14.5 -46t-26.5 -38t-25.5 -26.5t-29 -24q15 -6 53.5 -15t57.5 -16q7 -2 28.5 -16t36.5 -20q14 -9 28 -15q10 -5 14 -11t25 -45q2 -3 3 -5l16 -39l-6 43q64 -95 64 -154q0 -11 -15 -26q17 10 23 10q12 0 12 -12q0 -8 -6 -23q4 -32 4 -49q0 -25 -3 -49.5 t-9 -59.5t-8 -51q24 2 55.5 15t48.5 16q26 25 100.5 31t102.5 16q9 3 29.5 15.5t31.5 15.5q22 7 50 8t47 6.5t37 24.5q21 0 51 -7.5t49 -7.5q12 0 22 2zM336 291l-62 -21l-45 -24l-98 -58l-29 -45q-10 -7 -10 -10q0 -10 27 -10q30 0 51 14l47 35l57 37l35 39l25 14 q12 8 21.5 18t14.5 16.5t5 8.5q-1 0 -39 -14z" />
<glyph unicode="{" d="M1124 1565h-8q-24 0 -41.5 22.5t-38.5 22.5q-14 0 -24 -5.5t-22.5 -18t-16.5 -15.5q-6 -6 -18.5 -13t-16.5 -10q-2 -2 -5.5 -9t-6.5 -9q-1 -1 -7.5 -1.5t-9.5 -2.5q-29 -37 -61 -90q-17 -17 -56.5 -92.5t-39.5 -90.5q0 -7 6 -16q-17 -5 -24 -18.5t-9.5 -35.5t-5.5 -30 q-4 -9 -17 -27t-18 -28q-9 -18 -20.5 -51t-18.5 -46q-2 -4 -11 -11t-11 -11l-5 -13q-4 -14 -8 -20q-5 -14 -11 -22t-18 -20t-20 -21q-6 -6 -15 -20.5t-14 -18.5q-2 -2 -11 -6t-16 -7t-7 -6v-8q0 -3 -15 -12t-33.5 -21.5t-25.5 -23.5q5 -6 11 -10.5t14.5 -8.5t14 -6 t16.5 -5.5t14 -4.5q16 -7 37.5 -20.5t49 -36t46 -53.5t18.5 -62q0 -8 -3 -31t-3 -35q0 -6 1 -19t1 -19q0 -39 -24 -108t-29 -105q1 0 3.5 -2.5t2.5 -4.5q0 -3 -4.5 -8t-5.5 -14q4 0 4 -6q0 -16 -17 -56q-1 -4 -12.5 -55.5t-32.5 -79.5q0 -27 -10 -73.5t-10 -65.5 q0 -21 7 -34t23.5 -18.5t31.5 -7t44 -1.5q16 0 29 1t27.5 4.5t22 5.5t25.5 7.5t25 7.5q16 4 38 11.5t56 22t57 33.5t23 38q0 6 -6 16.5t-6 15.5q0 17 21 17q15 0 26.5 -8t15.5 -15t11.5 -25t9.5 -22q-6 -53 -90 -104t-174 -54q-53 -24 -111 -24q-4 0 -10 6t-8 6q-7 0 -20 -3 t-19 -3q-9 0 -18 6q0 -2 -5 -2q-4 0 -8 9t-8 12q-3 1 -14.5 1.5t-14.5 2.5q-1 1 -5 10t-7 14q-43 43 -43 76q0 7 5 29.5t5 31.5q0 2 -3 3.5t-3 3.5q0 8 3.5 19.5t10.5 27t9 22.5q25 61 57 213q9 47 36.5 147t31.5 146q0 38 -8 65t-24 43t-30 25t-37.5 19.5t-35.5 17.5 q-4 -2 -15 -2q-56 0 -98 29q-8 -2 -23 -2q-11 0 -22.5 3t-18 5t-21 9t-18.5 9q-1 5 -2 11t-1.5 9.5t-0.5 6.5q0 35 13 35q4 0 10 -3t10 -3h6q26 16 88.5 47.5t98.5 54.5q31 25 70 81.5t46 63.5q12 12 43.5 75t53.5 118q1 3 10 32t18 46q0 2 5.5 4.5t5.5 5.5v6q56 124 63 131 q4 7 16.5 17.5t16.5 15.5q1 2 15.5 23.5t25.5 37t27.5 35.5t27.5 29q2 2 12.5 4.5t14.5 5.5q2 2 3 8.5t3 7.5q8 8 35.5 18.5t40.5 10.5q2 0 6.5 -3t7.5 -3q2 0 12 1t15 1q11 0 14 -6t6 -6h8l5 -3q4 -4 12 -11.5t15.5 -17t13 -23.5t5.5 -29q0 -4 -4 -6z" />
<glyph unicode="|" horiz-adv-x="1273" d="M715 1511q-12 -40 -17 -86t-7 -120t-3 -97q-18 -264 -18 -520q0 -24 5 -75t5 -76q0 -28 -5 -93t-5 -104q0 -23 5 -69.5t5 -69.5v-428q-12 -1 -18.5 -2.5t-9.5 -4.5t-3 -5.5t-1 -9t-3 -11.5q-15 12 -20.5 29.5t-8 41t-6.5 35.5q-8 1 -8 7l6 6h2q-2 3 -10 14.5t-8 17.5 q0 5 2 7q-2 4 -2 8q0 6 4 6q1 0 5.5 -4t6.5 -4q4 0 4 16q0 6 -8 11t-10 8q16 0 16 16v8q2 4 2 8q0 6 -10 11.5t-10 11.5t2 10q-4 8 -4 12q0 20 20 27q-14 35 -19 66t-5.5 73t-1.5 51q10 0 10 7q0 3 -1.5 8.5t-4 15t-4.5 17.5q0 4 2 14.5t2 15.5q0 9 -11.5 22t-11.5 17 q0 5 9.5 11.5t9.5 11.5q0 7 -8.5 14t-8.5 10q0 6 5.5 18t5.5 17q-4 40 -5.5 95.5t-3 130t-2.5 116.5q0 9 -2 25.5t-2 25.5t4 33q5 22 5.5 94t5.5 111q0 8 3 26.5t3 26.5t-8.5 22t-8.5 23q0 3 5.5 10t5.5 13q0 9 -14.5 17.5t-14.5 17.5q0 7 4 23t4 24q0 16 -4 46t-4 44 q0 5 5 15t5 15q-2 15 -11 40.5t-9 35.5q0 28 30 49t68 21q37 0 78 -21z" />
<glyph unicode="}" d="M1102 584q2 -16 2 -29q0 -33 -12 -33q-2 0 -10 2t-13 2q-23 -15 -73.5 -39t-80.5 -45q-4 -3 -15.5 -8t-16.5 -10q-12 -9 -24 -21t-20.5 -21t-21 -26t-17.5 -24.5t-19 -27.5t-17 -25q-8 -7 -26.5 -45t-46 -99t-40.5 -88q-3 -5 -5.5 -18t-6.5 -21q0 -2 -5 -3.5t-5 -4.5v-6 q0 -5 -4.5 -16.5t-11 -25.5t-14.5 -30.5t-15 -29t-12 -22.5l-5 -9q-4 -5 -17 -16t-18 -17q-5 -7 -21.5 -31t-27.5 -39t-29 -34t-34 -31q-3 -3 -5.5 -3t-4.5 -3q-12 -15 -41.5 -26t-57.5 -11q-34 0 -68 27t-34 65q0 12 10 12q23 0 41 -23.5t41 -23.5q14 0 32 11.5t40.5 32 t23.5 20.5q3 2 6.5 9t6.5 9q19 12 40 45t37 49q15 15 55 89.5t40 93.5q0 4 -4 16q18 5 25.5 18.5t9.5 35.5t5 30q3 10 16 28.5t17 26.5q6 13 17 46.5t22 49.5q2 3 12 11t11 14q3 4 5 9t4 12t3 10q6 15 12.5 23.5t18 19.5t18.5 20q6 6 15 20.5t14 18.5q1 1 10 5t17 7.5t8 6.5 v8q0 3 14.5 12.5t33 22t25.5 22.5q-7 10 -18.5 16.5t-27 11t-21.5 7.5q-44 17 -99 66.5t-55 105.5q0 8 3 30.5t3 34.5q0 6 -1 19.5t-1 19.5q0 22 12.5 62t12.5 61q15 12 29 90q-2 0 -4.5 2.5t-2.5 4.5q0 3 5.5 8.5t5.5 13.5v-2q-4 6 -4 8l16 56q1 4 12.5 55.5t32.5 79.5 q0 27 9 74t9 67q0 39 -23.5 49t-78.5 10q-72 0 -170 -36.5t-135 -90.5q0 -9 6 -20.5t6 -15.5q0 -17 -18 -17q-16 0 -28 8.5t-16 14.5t-12.5 25.5t-9.5 21.5q6 52 90.5 103t173.5 54q55 25 109 25q6 0 12.5 -6t7.5 -6q6 0 20 3t21 3q8 0 17 -6l4 2q5 0 10 -9.5t8 -11.5 q2 -1 13.5 -1.5t13.5 -2.5l4 -9q4 -9 8 -13q45 -45 45 -78q0 -7 -5 -31.5t-5 -30.5q0 -2 2 -2q1 0 1.5 -1t0.5 -3q0 -29 -30.5 -103t-37.5 -106q-5 -16 -7 -44.5t-3 -34.5q-8 -38 -27.5 -107t-30.5 -120t-11 -91q0 -31 7.5 -49t17.5 -24.5t24.5 -18t23.5 -25.5h9q7 0 13 -1 t9.5 -2.5t9 -4t7.5 -4t7.5 -5.5t6.5 -5q3 0 8 1t8 1q48 0 96 -29q8 2 23 2q14 0 26 -3t30.5 -11t23.5 -10z" />
<glyph unicode="~" horiz-adv-x="1193" d="M969 571q2 -4 2 -8q0 -8 -5.5 -14.5t-15 -13t-12.5 -9.5q-8 -10 -64.5 -31t-103.5 -24q-6 0 -21 3t-18 3q-6 0 -18 -2.5t-17 -3.5l-6 3q-7 3 -12 3q-2 0 -5 -1t-5 -1q-19 1 -117 33q-16 6 -62 30.5t-77 24.5q-44 0 -111.5 -32.5t-85.5 -32.5q-10 0 -27 10q2 2 2 6 q0 3 -1 11.5t-1 11.5q0 8 5 8h8q2 3 5.5 11t7.5 11.5t11 3.5q25 30 56 44t84 14q68 0 149 -45q104 -52 141 -52q9 0 32 3.5t26 3.5q5 0 6 -3q0 -1 2 -1q4 1 32.5 1.5t55.5 6t43 20.5q4 -6 12 -6t24 6.5t19 7.5q8 0 22 -2t21 -2q13 0 19 4z" />
<glyph unicode="&#xa1;" horiz-adv-x="1169" d="M631 539q11 -23 28 -23q-1 -43 -16 -86.5t-40.5 -95t-35.5 -80.5q-4 -8 -6.5 -25t-5.5 -22q-4 -11 -19 -37t-20 -41q-66 -152 -72 -164l-4 -7q-46 -78 -47 -116q-10 -4 -21 -22t-25 -50.5t-15 -35.5q-12 -26 -29.5 -79t-28.5 -79q-2 -7 -7 -10t-5 -6q0 -2 1 -6t1 -5 q-1 -3 -24 -43q0 -5 -15.5 -34t-15.5 -39q0 -2 1 -7.5t1 -7.5q0 -9 -13 -34.5t-22 -28.5q-76 7 -76 55q0 17 10 37t28.5 47t25.5 39q23 44 35 72q2 3 2.5 11.5t3.5 12.5q1 1 5.5 4t6.5 7q10 21 15.5 36.5t6.5 20.5t8 16.5t23 32.5q2 5 5 19.5t6 23.5q9 0 18 17t20 49t13 36 q75 154 219 467l5 20q6 20 14.5 46t18.5 52.5t21.5 44.5t20.5 18zM721 903q29 29 80 29q31 0 45 -14.5t14 -47.5q0 -8 -3.5 -23.5t-8.5 -15.5q-2 0 -7 1.5t-7 1.5q-3 0 -6.5 -16.5t-12.5 -18.5q-17 1 -25.5 2t-16.5 5.5t-11 8t-13 15.5t-20 22q4 14 4 20q0 8 -6 16t-6 15z " />
<glyph unicode="&#xa2;" horiz-adv-x="1093" d="M934 1227q-11 -10 -26.5 -14.5t-24.5 -10.5q-23 -42 -66 -82q0 -1 1 -5t1 -5q0 -2 -2 -4q-11 -20 -37 -63.5t-47 -82t-37 -71.5q10 -8 47.5 -32t57.5 -46t20 -49q0 -9 -8 -33q-8 2 -18 2h-13q-15 0 -26.5 20t-25 40.5t-34.5 21.5q-6 0 -6 -6v-2q-15 10 -18 10 q-7 0 -10.5 -6t-5.5 -15.5t-5 -13.5q-6 -11 -16 -26t-17 -31q-1 -4 -48.5 -118.5t-53.5 -162.5h14q33 0 76.5 9t67.5 16.5t87.5 30t76.5 26.5q24 21 67 21h2q2 1 20.5 11.5t41.5 10.5q17 0 49 -4q-2 -11 -7.5 -19t-14.5 -14t-15 -9t-18.5 -8t-16.5 -7q-6 -3 -37 -19 t-47 -23.5t-42.5 -15.5t-47.5 -8q-6 0 -6 2q-72 -35 -82 -39q-7 -2 -25 -3t-26 -3q-99 -28 -127 -32q-7 -15 -20.5 -81.5t-39.5 -84.5q-17 0 -26 20.5t-17 24.5q11 37 11 59q0 45 -23 45q-3 0 -14 -1t-17 -1q-16 0 -47.5 10.5t-50.5 20.5q-20 11 -52 44.5t-32 39.5 q0 2 4 8.5t4 9.5q-1 3 -4.5 6.5t-3.5 6.5q0 6 5.5 17.5t15 26t12.5 21.5q1 1 2.5 11.5t3.5 13.5q3 5 17.5 14.5t21.5 17.5q51 62 92.5 103t97.5 76q1 1 1.5 6.5t5.5 5.5q1 0 2.5 -4t3.5 -4q3 0 17 16.5t16 17.5q4 2 15.5 3.5t16.5 3.5q49 19 74 48t53 87l2 4q0 2 -1 5.5 t-1 4.5q0 4 11.5 16.5t15.5 20.5q2 5 3 16t3 15l9 9t9 11q13 20 33.5 63.5t43 80t52.5 65.5q29 0 43 -6q2 0 5 -6t6 -6q1 0 5 1t5 1q7 0 23 -16t16 -21v-4zM414 672q-5 -4 -10 -13.5t-9 -11.5q-1 -3 -8.5 -4.5t-9.5 -3.5q-35 -35 -45 -43q-1 -2 -4.5 -14t-8.5 -19 q-2 -3 -12.5 -11.5t-13.5 -14.5q-21 -43 -21 -78q0 -16 9 -26t27.5 -13.5t32 -4.5t36.5 -1q37 0 51 2q15 68 53 182.5t49 151.5q0 4 -4 4h-2q-21 -11 -58.5 -42.5t-51.5 -39.5z" />
</font>
</defs>
</svg>
